<svg id="Picture" xmlns="http://www.w3.org/2000/svg" xmlns:xlink="http://www.w3.org/1999/xlink" viewBox="0 0 127.6 169.61"><defs><style>.cls-1,.cls-10,.cls-6,.cls-8,.cls-9{fill:none;}.cls-2{clip-path:url(#clip-path);}.cls-3,.cls-4{fill:#fff;}.cls-4{opacity:0.5;}.cls-5{fill:#cdd0d0;}.cls-6{stroke:#fff;stroke-width:1.5px;}.cls-10,.cls-6,.cls-8,.cls-9{stroke-miterlimit:10;}.cls-7{fill:#e1cbd1;}.cls-10,.cls-8,.cls-9{stroke:#e1cbd1;}.cls-8{stroke-width:2px;}.cls-9{stroke-width:0.25px;}</style><clipPath id="clip-path"><rect class="cls-1" y="19.18" width="81" height="129.38"/></clipPath></defs><title>Alzheimers_mockup</title><g class="cls-2"><path class="cls-3" d="M-0.19,28.68C1,27.51,3.11,26.5,7.06,27.17l8.3,1.59s3.17,1.47,3.42,2.12a16,16,0,0,1,16.52,5l0.49,1a2.52,2.52,0,0,0,1.79,1.46s5.45,2,7.08,4.15a14.15,14.15,0,0,1,6.43,7.16s3.74,2.52,3.17,6.26a8.55,8.55,0,0,1,3,4.39A7.94,7.94,0,0,1,60,63.91,14.86,14.86,0,0,1,64,70.42s3.34,5.53,1.55,9.19l-1,1.14s-1.55,1.22.16,3c0,0,4,4.15-.89,12a13.91,13.91,0,0,1-.16,11.47,8.5,8.5,0,0,1,.73,7.32l-0.81,2.28a27.66,27.66,0,0,0-.65,3.74s-0.73,2.93-2.06,4.2l-0.22.19a12.81,12.81,0,0,0-1.79,1.55s2.36,4.15-5.37,9.52c0,0-3.34,7.24-8.71,5.45,0,0-5.45-1-7.16-.49,0,0-4.23,1.47-5.78.16,0,0-8.38-.32-11.23-3.25,0,0-5-1.87-5-6.43,0,0,.41-2.44-1.22-2.93,0,0-5.29-2.28-3.9-11.47a5.18,5.18,0,0,1-2.69,2.11l-0.41.17S5.85,124,2.27,124.68a4.08,4.08,0,0,1-2.17.63H-0.61a4.06,4.06,0,0,1-2.17-.63C-6.36,124-7.9,119.4-7.9,119.4l-0.41-.17A5.18,5.18,0,0,1-11,117.12c1.38,9.19-3.9,11.47-3.9,11.47-1.63.49-1.22,2.93-1.22,2.93,0,4.56-5,6.43-5,6.43-2.85,2.93-11.23,3.25-11.23,3.25-1.54,1.3-5.78-.16-5.78-0.16-1.71-.49-7.16.49-7.16,0.49-5.37,1.79-8.7-5.45-8.7-5.45-7.73-5.37-5.37-9.52-5.37-9.52A12.89,12.89,0,0,0-61.19,125l-0.22-.19c-1.33-1.27-2.06-4.2-2.06-4.2a27.74,27.74,0,0,0-.65-3.74l-0.82-2.28a8.49,8.49,0,0,1,.73-7.32,13.92,13.92,0,0,1-.16-11.47c-4.88-7.89-.89-12-0.89-12,1.71-1.79.16-3,.16-3l-1-1.14c-1.79-3.66,1.55-9.19,1.55-9.19a14.86,14.86,0,0,1,4.07-6.51,8,8,0,0,1,2.68-3.66,8.55,8.55,0,0,1,3-4.39c-0.57-3.74,3.17-6.26,3.17-6.26a14.16,14.16,0,0,1,6.43-7.16c1.63-2.19,7.08-4.15,7.08-4.15a2.52,2.52,0,0,0,1.79-1.46l0.49-1a16,16,0,0,1,16.52-5c0.25-.65,3.42-2.12,3.42-2.12l8.3-1.59c3.92-.67,6.07.32,7.23,1.49Z"/><path class="cls-4" d="M-0.19,28.68C1,27.51,3.11,26.5,7.06,27.17l8.3,1.59s3.17,1.47,3.42,2.12a16,16,0,0,1,16.52,5l0.49,1a2.52,2.52,0,0,0,1.79,1.46s5.45,2,7.08,4.15a14.15,14.15,0,0,1,6.43,7.16s3.74,2.52,3.17,6.26a8.55,8.55,0,0,1,3,4.39A7.94,7.94,0,0,1,60,63.91,14.86,14.86,0,0,1,64,70.42s3.34,5.53,1.55,9.19l-1,1.14s-1.55,1.22.16,3c0,0,4,4.15-.89,12a13.91,13.91,0,0,1-.16,11.47,8.5,8.5,0,0,1,.73,7.32l-0.81,2.28a27.66,27.66,0,0,0-.65,3.74s-0.73,2.93-2.06,4.2l-0.22.19a12.81,12.81,0,0,0-1.79,1.55s2.36,4.15-5.37,9.52c0,0-3.34,7.24-8.71,5.45,0,0-5.45-1-7.16-.49,0,0-4.23,1.47-5.78.16,0,0-8.38-.32-11.23-3.25,0,0-5-1.87-5-6.43,0,0,.41-2.44-1.22-2.93,0,0-5.29-2.28-3.9-11.47a5.18,5.18,0,0,1-2.69,2.11l-0.41.17S5.85,124,2.27,124.68a4.08,4.08,0,0,1-2.17.63H-0.61a4.06,4.06,0,0,1-2.17-.63C-6.36,124-7.9,119.4-7.9,119.4l-0.41-.17A5.18,5.18,0,0,1-11,117.12c1.38,9.19-3.9,11.47-3.9,11.47-1.63.49-1.22,2.93-1.22,2.93,0,4.56-5,6.43-5,6.43-2.85,2.93-11.23,3.25-11.23,3.25-1.54,1.3-5.78-.16-5.78-0.16-1.71-.49-7.16.49-7.16,0.49-5.37,1.79-8.7-5.45-8.7-5.45-7.73-5.37-5.37-9.52-5.37-9.52A12.89,12.89,0,0,0-61.19,125l-0.22-.19c-1.33-1.27-2.06-4.2-2.06-4.2a27.74,27.74,0,0,0-.65-3.74l-0.82-2.28a8.49,8.49,0,0,1,.73-7.32,13.92,13.92,0,0,1-.16-11.47c-4.88-7.89-.89-12-0.89-12,1.71-1.79.16-3,.16-3l-1-1.14c-1.79-3.66,1.55-9.19,1.55-9.19a14.86,14.86,0,0,1,4.07-6.51,8,8,0,0,1,2.68-3.66,8.55,8.55,0,0,1,3-4.39c-0.57-3.74,3.17-6.26,3.17-6.26a14.16,14.16,0,0,1,6.43-7.16c1.63-2.19,7.08-4.15,7.08-4.15a2.52,2.52,0,0,0,1.79-1.46l0.49-1a16,16,0,0,1,16.52-5c0.25-.65,3.42-2.12,3.42-2.12l8.3-1.59c3.92-.67,6.07.32,7.23,1.49Z"/><path class="cls-5" d="M59.82,78.13c1.75-3.91.12-4.09,0.12-4.09-1.58-.23-1.29,2.92-1.11,4.32a3.32,3.32,0,0,1-1,2.51s-0.7-.12-1,2.1a2.45,2.45,0,0,1-1.93,2.4c-3.33.35-4-4.62-4-7a3.66,3.66,0,0,0-2.8-3.74,12.14,12.14,0,0,1-2.81-1.17c-2.63-2.28-.06-7,1.7-7.66s3.1-.52,2.92-1.69-4.09-.35-4.09-0.35-1.58.41-5.08,0.93-8.88-.76-9.06-3.51a3.29,3.29,0,0,1,3.16-3.62,10.62,10.62,0,0,0,2.92-.53A30.06,30.06,0,0,1,44,56.57c1,0.12,4.68.53,5.32-2.34s-2-3.74-3.51-4-4.62-.58-4.44-3.68S39.6,42.19,37,42.07s-4-3.45-4.44-4.26-0.41-2.28-1.87-2.28-1.87,1.7-2.16,3.21a1.72,1.72,0,0,1-3,.88c-1.05-1.17-1.93-.82-1.93-0.82-2,.76-0.47,3.86.23,5.14s2.63,4.73.06,7.66-7.07-.7-9.11-4.32-0.29-7.42.82-11-1.52-4.5-2.63-4.5a19.51,19.51,0,0,1-3.27-.53,4.09,4.09,0,0,0-4.33.18c-1.05.94-.82,4-0.64,4.85a9.86,9.86,0,0,1,.18,3.1,4.07,4.07,0,0,0,2,3.45,3.1,3.1,0,0,1,1.34,2c0.7,2.63-3,3.8-3,3.8-2,.59-1.11,3.74-1.11,3.74,0.41,2.34,4.21,1.87,4.21,1.87,6.37,0.94,5.9,5.44,5.9,5.44-0.52,5.61-8.59,2.92-8.59,2.92-2.4-.47-1.46,2.57-1.46,2.57A3.52,3.52,0,0,1,3.72,68c-0.59,2.4,2.69,1.81,2.69,1.81,0.47-.06,2.45,0,2.45,0,3.56,0.82-2,3.1-2,3.1l-4.5.64a13,13,0,0,1-2.21.11L0.16,89.27c0.42,1.53,2.16,8.07,1.92,10.54a2,2,0,0,1-1.88,1v4.29c12.27,0.53,15.14,3.27,15.14,3.27,2.57,3.74-5.44,5.14-5.44,5.14l2.45,0.88,5.26-1.11,4.38-1c0.88,0.35-.35,2.28-1.34,2.86s-3.56,4.73-3.56,4.73c-1.87,2.63.23,5.38,1.92,6.37s2.4,1.34,2.46,3.74,2.46,3.74,2.46,3.74c2.22,1.46,3.68-2.28,3.68-2.28s1.58-4,1.93-5.26,2-2.63,4.5-2.1,2,5.49,2,5.49-0.23.7-1.11,3.8a2.53,2.53,0,0,0,3.16,3.33,4.52,4.52,0,0,1,3.27-.06c0.82,0.41,2.46.64,2.57-.65s-1.17-1.23-1.87-1.81-2.51-.88-2.92-5.14,1.35-6,2.92-6,3.63,1.81,4.5,3.33,2,2.39,3.1,2.22,0.76-2,.41-3.45-0.64-3.51,1.75-3.74,4.56-.76,3.68-2.51-5,.35-6.49,1.52-4.5,1.23-5.55,0-0.53-3.74,2.63-4.91,2.81-3.68,2.81-3.68-0.41-1.93,1.52-4.91,3.27-1.4,3.27-1.4a2.13,2.13,0,0,0,1.52.7c0.94,0,1.34-.47.94-1.69a2.84,2.84,0,0,1,.12-2.16l1-1.87c0.47-1.52-1.17-1.05-1.17-1.05-0.23.17,0.64,0.29-2,.06s-3.56,1-4,2.86a6.56,6.56,0,0,1-2.45,4A16,16,0,0,0,45,109.1s-1.93,3.56-2.86,5.14-1.87,4.85-5.55,3.86S34.75,112,34.75,112s1.05-4,1.58-5.38-0.47-1.63-1-4-0.06-5.78,2.34-6.9,0.18-2.22.18-2.22a10.35,10.35,0,0,1-4.91-7c-0.94-5,0-7.54,1.58-8.06s3.21,0.76,4.09,2.1,3.27,0.7,3.27.7a4.22,4.22,0,0,1,4,1.05,6.73,6.73,0,0,0,2.16,1.58l2.16,1.05a2.93,2.93,0,0,1,.41,3.8c-0.41.7-.76,1.34,0,1.75a1.76,1.76,0,0,0,1.64-.18l1.7-.93a7,7,0,0,1,3.62-.88c1.87-.06,2.8-2,1.93-4.32S59.82,78.13,59.82,78.13ZM3.75,99.28l-0.53-2.8-2-8.68c-2.19-6.57.88-7.63,3.07-8.5s11-6.13,11-6.13c1.58-.79,2,0.26,2,0.26,0.44,1.49-2,2.63-2,2.63L9.71,79C4.36,81.58,5.06,94.11,5.06,94.11L5.15,99C4.71,101.91,3.75,99.28,3.75,99.28Zm8.41-19.9s3.68-2.54,7.45-1.93c0,0-5.17,15.78-13.15,21.39C6.46,98.84,3.49,85.34,12.16,79.39ZM11.67,104C5.53,101.5,9,99.22,9,99.22l3.86-2.75c1.93-1.05,2.51,1.34,2.51,1.34l0.52,3.86C16.28,105.71,11.67,104,11.67,104ZM19.17,106s-2.1,0-1.66-2.89-0.26-3.94-.26-3.94-1.75-2.89,0-5.52l2-3.77a3.35,3.35,0,0,0-.53-4.12s-3.07-2.37.61-1.31c0,0,1.58.52,2-.44s-0.61-1.49-.79-1.75-2.72-2.19.44-1.58L21.64,81s1.29,0.48,1.29-.24-0.24-.68-0.9-0.92-2-.94-1.79-1.53,0.83-.78,2.35.38c0,0,11.66,7.54,8.06,20.16C30.66,98.84,26.8,108.22,19.17,106Zm5.16,18.22c-2.73,1.12-5.64.33-6.49-1.75s0.68-4.67,3.41-5.79,5.64-.33,6.49,1.75S27.07,123.13,24.34,124.25ZM35.92,94.9a7.15,7.15,0,0,0-2.54,5.87s0.35,2.37,1.31,2.89c0,0-2.81,5.79-2.45,9.47a21,21,0,0,0-3.33-3,1.89,1.89,0,0,1-.17-3.33c1.48-1.13,5.28-9.08,2.35-22.89,0-.21-0.07-0.34-0.07-0.34s0,0.22.07,0.34C31.44,85.61,33.19,93.26,35.92,94.9Z"/><path class="cls-6" d="M59.82,78.13c1.75-3.91.12-4.09,0.12-4.09-1.58-.23-1.29,2.92-1.11,4.32a3.32,3.32,0,0,1-1,2.51s-0.7-.12-1,2.1a2.45,2.45,0,0,1-1.93,2.4c-3.33.35-4-4.62-4-7a3.66,3.66,0,0,0-2.8-3.74,12.14,12.14,0,0,1-2.81-1.17c-2.63-2.28-.06-7,1.7-7.66s3.1-.52,2.92-1.69-4.09-.35-4.09-0.35-1.58.41-5.08,0.93-8.88-.76-9.06-3.51a3.29,3.29,0,0,1,3.16-3.62,10.62,10.62,0,0,0,2.92-.53A30.06,30.06,0,0,1,44,56.57c1,0.12,4.68.53,5.32-2.34s-2-3.74-3.51-4-4.62-.58-4.44-3.68S39.6,42.19,37,42.07s-4-3.45-4.44-4.26-0.41-2.28-1.87-2.28-1.87,1.7-2.16,3.21a1.72,1.72,0,0,1-3,.88c-1.05-1.17-1.93-.82-1.93-0.82-2,.76-0.47,3.86.23,5.14s2.63,4.73.06,7.66-7.07-.7-9.11-4.32-0.29-7.42.82-11-1.52-4.5-2.63-4.5a19.51,19.51,0,0,1-3.27-.53,4.09,4.09,0,0,0-4.33.18c-1.05.94-.82,4-0.64,4.85a9.86,9.86,0,0,1,.18,3.1,4.07,4.07,0,0,0,2,3.45,3.1,3.1,0,0,1,1.34,2c0.7,2.63-3,3.8-3,3.8-2,.59-1.11,3.74-1.11,3.74,0.41,2.34,4.21,1.87,4.21,1.87,6.37,0.94,5.9,5.44,5.9,5.44-0.52,5.61-8.59,2.92-8.59,2.92-2.4-.47-1.46,2.57-1.46,2.57A3.52,3.52,0,0,1,3.72,68c-0.59,2.4,2.69,1.81,2.69,1.81,0.47-.06,2.45,0,2.45,0,3.56,0.82-2,3.1-2,3.1l-4.5.64a13,13,0,0,1-2.21.11L0.16,89.27c0.42,1.53,2.16,8.07,1.92,10.54a2,2,0,0,1-1.88,1v4.29c12.27,0.53,15.14,3.27,15.14,3.27,2.57,3.74-5.44,5.14-5.44,5.14l2.45,0.88,5.26-1.11,4.38-1c0.88,0.35-.35,2.28-1.34,2.86s-3.56,4.73-3.56,4.73c-1.87,2.63.23,5.38,1.92,6.37s2.4,1.34,2.46,3.74,2.46,3.74,2.46,3.74c2.22,1.46,3.68-2.28,3.68-2.28s1.58-4,1.93-5.26,2-2.63,4.5-2.1,2,5.49,2,5.49-0.23.7-1.11,3.8a2.53,2.53,0,0,0,3.16,3.33,4.52,4.52,0,0,1,3.27-.06c0.82,0.41,2.46.64,2.57-.65s-1.17-1.23-1.87-1.81-2.51-.88-2.92-5.14,1.35-6,2.92-6,3.63,1.81,4.5,3.33,2,2.39,3.1,2.22,0.76-2,.41-3.45-0.64-3.51,1.75-3.74,4.56-.76,3.68-2.51-5,.35-6.49,1.52-4.5,1.23-5.55,0-0.53-3.74,2.63-4.91,2.81-3.68,2.81-3.68-0.41-1.93,1.52-4.91,3.27-1.4,3.27-1.4a2.13,2.13,0,0,0,1.52.7c0.94,0,1.34-.47.94-1.69a2.84,2.84,0,0,1,.12-2.16l1-1.87c0.47-1.52-1.17-1.05-1.17-1.05-0.23.17,0.64,0.29-2,.06s-3.56,1-4,2.86a6.56,6.56,0,0,1-2.45,4A16,16,0,0,0,45,109.1s-1.93,3.56-2.86,5.14-1.87,4.85-5.55,3.86S34.75,112,34.75,112s1.05-4,1.58-5.38-0.47-1.63-1-4-0.06-5.78,2.34-6.9,0.18-2.22.18-2.22a10.35,10.35,0,0,1-4.91-7c-0.94-5,0-7.54,1.58-8.06s3.21,0.76,4.09,2.1,3.27,0.7,3.27.7a4.22,4.22,0,0,1,4,1.05,6.73,6.73,0,0,0,2.16,1.58l2.16,1.05a2.93,2.93,0,0,1,.41,3.8c-0.41.7-.76,1.34,0,1.75a1.76,1.76,0,0,0,1.64-.18l1.7-.93a7,7,0,0,1,3.62-.88c1.87-.06,2.8-2,1.93-4.32S59.82,78.13,59.82,78.13ZM3.75,99.28l-0.53-2.8-2-8.68c-2.19-6.57.88-7.63,3.07-8.5s11-6.13,11-6.13c1.58-.79,2,0.26,2,0.26,0.44,1.49-2,2.63-2,2.63L9.71,79C4.36,81.58,5.06,94.11,5.06,94.11L5.15,99C4.71,101.91,3.75,99.28,3.75,99.28Zm8.41-19.9s3.68-2.54,7.45-1.93c0,0-5.17,15.78-13.15,21.39C6.46,98.84,3.49,85.34,12.16,79.39ZM11.67,104C5.53,101.5,9,99.22,9,99.22l3.86-2.75c1.93-1.05,2.51,1.34,2.51,1.34l0.52,3.86C16.28,105.71,11.67,104,11.67,104ZM19.17,106s-2.1,0-1.66-2.89-0.26-3.94-.26-3.94-1.75-2.89,0-5.52l2-3.77a3.35,3.35,0,0,0-.53-4.12s-3.07-2.37.61-1.31c0,0,1.58.52,2-.44s-0.61-1.49-.79-1.75-2.72-2.19.44-1.58L21.64,81s1.29,0.48,1.29-.24-0.24-.68-0.9-0.92-2-.94-1.79-1.53,0.83-.78,2.35.38c0,0,11.66,7.54,8.06,20.16C30.66,98.84,26.8,108.22,19.17,106Zm5.16,18.22c-2.73,1.12-5.64.33-6.49-1.75s0.68-4.67,3.41-5.79,5.64-.33,6.49,1.75S27.07,123.13,24.34,124.25ZM35.92,94.9a7.15,7.15,0,0,0-2.54,5.87s0.35,2.37,1.31,2.89c0,0-2.81,5.79-2.45,9.47a21,21,0,0,0-3.33-3,1.89,1.89,0,0,1-.17-3.33c1.48-1.13,5.28-9.08,2.35-22.89,0-.21-0.07-0.34-0.07-0.34s0,0.22.07,0.34C31.44,85.61,33.19,93.26,35.92,94.9Z"/><path class="cls-7" d="M0.35,73.63a13,13,0,0,1-2.21-.11l-4.5-.64s-5.61-2.28-2-3.1c0,0,2-.06,2.45,0,0,0,3.27.58,2.69-1.81a3.5,3.5,0,0,1-.52-2.86s0.93-3-1.46-2.57c0,0-8.06,2.69-8.59-2.92,0,0-.47-4.5,5.9-5.44,0,0,3.8.47,4.2-1.87,0,0,.88-3.15-1.11-3.74,0,0-3.68-1.17-3-3.8a3.1,3.1,0,0,1,1.34-2,4.07,4.07,0,0,0,2-3.45,9.92,9.92,0,0,1,.18-3.1c0.18-.82.41-3.91-0.64-4.85a4.09,4.09,0,0,0-4.32-.18,19.5,19.5,0,0,1-3.27.53c-1.11,0-3.74.88-2.63,4.5s2.86,7.42.82,11-6.55,7.25-9.11,4.32-0.64-6.37.06-7.66,2.22-4.38.23-5.14c0,0-.88-0.35-1.93.82a1.71,1.71,0,0,1-3-.88c-0.3-1.52-.7-3.21-2.16-3.21s-1.4,1.46-1.87,2.28S-34,42-36.57,42.07s-4.5,1.35-4.32,4.44-2.92,3.39-4.44,3.68-4.15,1.17-3.51,4,4.32,2.46,5.32,2.34a30.06,30.06,0,0,1,6.19.53,10.63,10.63,0,0,0,2.92.53,3.29,3.29,0,0,1,3.16,3.62c-0.18,2.75-5.55,4-9.06,3.51s-5.08-.93-5.08-0.93-3.92-.82-4.09.35,1.17,1,2.92,1.69,4.33,5.38,1.7,7.66a12.19,12.19,0,0,1-2.81,1.17,3.66,3.66,0,0,0-2.81,3.74c0,2.34-.64,7.3-4,7A2.45,2.45,0,0,1-56.39,83c-0.29-2.22-1-2.1-1-2.1a3.32,3.32,0,0,1-1-2.51c0.18-1.4.47-4.56-1.11-4.32,0,0-1.63.18,0.12,4.09,0,0,1.17,3.68.29,6s0.06,4.27,1.93,4.32a7,7,0,0,1,3.62.88l1.69,0.93a1.77,1.77,0,0,0,1.64.18c0.76-.41.41-1.05,0-1.75a2.92,2.92,0,0,1,.41-3.8l2.16-1.05a6.74,6.74,0,0,0,2.16-1.58,4.21,4.21,0,0,1,4-1.05s2.4,0.64,3.27-.7,2.51-2.63,4.09-2.1,2.51,3.1,1.58,8.06a10.35,10.35,0,0,1-4.91,7s-2.22,1.11.17,2.22,2.86,4.5,2.34,6.9-1.52,2.69-1,4S-34.3,112-34.3,112s1.87,5.08-1.81,6.08-4.61-2.28-5.55-3.86-2.86-5.14-2.86-5.14a16,16,0,0,0-2.69-2.81,6.59,6.59,0,0,1-2.45-4c-0.41-1.87-1.34-3.1-4-2.86s-1.75.12-2-.06c0,0-1.64-.47-1.17,1.05l1,1.87a2.83,2.83,0,0,1,.12,2.16c-0.41,1.23,0,1.69.93,1.69a2.13,2.13,0,0,0,1.52-.7s1.35-1.58,3.27,1.4,1.52,4.91,1.52,4.91-0.35,2.51,2.8,3.68,3.68,3.68,2.63,4.91-4,1.17-5.55,0-5.61-3.27-6.49-1.52,1.29,2.28,3.68,2.51,2.1,2.34,1.75,3.74-0.64,3.27.41,3.45,2.22-.7,3.1-2.22,2.92-3.33,4.5-3.33,3.33,1.75,2.92,6-2.22,4.56-2.92,5.14-2,.52-1.87,1.81,1.75,1.05,2.57.65a4.52,4.52,0,0,1,3.27.06,2.53,2.53,0,0,0,3.16-3.33c-0.88-3.1-1.11-3.8-1.11-3.8s-0.53-5,2-5.49,4.15,0.88,4.5,2.1,1.93,5.26,1.93,5.26,1.46,3.74,3.68,2.28c0,0,2.4-1.34,2.46-3.74s0.76-2.75,2.45-3.74,3.79-3.74,1.93-6.37c0,0-2.57-4.15-3.57-4.73s-2.22-2.51-1.34-2.86l4.38,1,5.26,1.11,2.45-.88s-8-1.4-5.43-5.14c0,0,2.87-2.75,15.13-3.27l0-4.29a2,2,0,0,1-1.88-1c-0.23-2.47,1.5-9,1.92-10.54Zm-28.8,36.52a21,21,0,0,0-3.33,3c0.35-3.68-2.45-9.47-2.45-9.47,1-.53,1.31-2.89,1.31-2.89a7.16,7.16,0,0,0-2.54-5.87c2.72-1.63,4.48-9.28,4.84-11,0-.11,0-0.22.07-0.34s0,0.12-.07.34c-2.93,13.81.87,21.76,2.35,22.89A1.89,1.89,0,0,1-28.45,110.15Zm7.65,6.56c2.74,1.12,4.26,3.71,3.41,5.79s-3.76,2.87-6.49,1.75-4.26-3.71-3.41-5.79S-23.54,115.6-20.8,116.71Zm4-17.52s-0.7,1.05-.26,3.94S-18.72,106-18.72,106c-7.62,2.19-11.48-7.19-11.48-7.19-3.59-12.62,8.06-20.16,8.06-20.16,1.52-1.15,2.18-1,2.35-.38s-1.14,1.29-1.79,1.53-0.9.2-.9,0.92,1.29,0.24,1.29.24l0.63-.3c3.16-.61.61,1.31,0.44,1.58s-1.23.79-.79,1.75,2,0.44,2,.44c3.68-1.05.62,1.31,0.62,1.31a3.35,3.35,0,0,0-.53,4.12l2,3.77C-15,96.3-16.8,99.19-16.8,99.19Zm5.58,4.76s-4.61,1.75-4.2-2.28l0.52-3.86s0.59-2.4,2.51-1.34l3.86,2.75S-5.08,101.5-11.22,104ZM-6,98.84c-8-5.61-13.15-21.39-13.15-21.39,3.77-.61,7.45,1.93,7.45,1.93C-3,85.34-6,98.84-6,98.84Zm5.26-11-2,8.68-0.53,2.8s-1,2.63-1.4-.26l0.09-4.91S-3.91,81.58-9.26,79l-5.61-3s-2.46-1.14-2-2.63c0,0,.43-1.05,2-0.26,0,0,8.85,5.26,11,6.13S1.44,81.23-.75,87.8Z"/><path class="cls-8" d="M0.35,73.63a13,13,0,0,1-2.21-.11l-4.5-.64s-5.61-2.28-2-3.1c0,0,2-.06,2.45,0,0,0,3.27.58,2.69-1.81a3.5,3.5,0,0,1-.52-2.86s0.93-3-1.46-2.57c0,0-8.06,2.69-8.59-2.92,0,0-.47-4.5,5.9-5.44,0,0,3.8.47,4.2-1.87,0,0,.88-3.15-1.11-3.74,0,0-3.68-1.17-3-3.8a3.1,3.1,0,0,1,1.34-2,4.07,4.07,0,0,0,2-3.45,9.92,9.92,0,0,1,.18-3.1c0.18-.82.41-3.91-0.64-4.85a4.09,4.09,0,0,0-4.32-.18,19.5,19.5,0,0,1-3.27.53c-1.11,0-3.74.88-2.63,4.5s2.86,7.42.82,11-6.55,7.25-9.11,4.32-0.64-6.37.06-7.66,2.22-4.38.23-5.14c0,0-.88-0.35-1.93.82a1.71,1.71,0,0,1-3-.88c-0.3-1.52-.7-3.21-2.16-3.21s-1.4,1.46-1.87,2.28S-34,42-36.57,42.07s-4.5,1.35-4.32,4.44-2.92,3.39-4.44,3.68-4.15,1.17-3.51,4,4.32,2.46,5.32,2.34a30.06,30.06,0,0,1,6.19.53,10.63,10.63,0,0,0,2.92.53,3.29,3.29,0,0,1,3.16,3.62c-0.18,2.75-5.55,4-9.06,3.51s-5.08-.93-5.08-0.93-3.92-.82-4.09.35,1.17,1,2.92,1.69,4.33,5.38,1.7,7.66a12.19,12.19,0,0,1-2.81,1.17,3.66,3.66,0,0,0-2.81,3.74c0,2.34-.64,7.3-4,7A2.45,2.45,0,0,1-56.39,83c-0.29-2.22-1-2.1-1-2.1a3.32,3.32,0,0,1-1-2.51c0.18-1.4.47-4.56-1.11-4.32,0,0-1.63.18,0.12,4.09,0,0,1.17,3.68.29,6s0.06,4.27,1.93,4.32a7,7,0,0,1,3.62.88l1.69,0.93a1.77,1.77,0,0,0,1.64.18c0.76-.41.41-1.05,0-1.75a2.92,2.92,0,0,1,.41-3.8l2.16-1.05a6.74,6.74,0,0,0,2.16-1.58,4.21,4.21,0,0,1,4-1.05s2.4,0.64,3.27-.7,2.51-2.63,4.09-2.1,2.51,3.1,1.58,8.06a10.35,10.35,0,0,1-4.91,7s-2.22,1.11.17,2.22,2.86,4.5,2.34,6.9-1.52,2.69-1,4S-34.3,112-34.3,112s1.87,5.08-1.81,6.08-4.61-2.28-5.55-3.86-2.86-5.14-2.86-5.14a16,16,0,0,0-2.69-2.81,6.59,6.59,0,0,1-2.45-4c-0.41-1.87-1.34-3.1-4-2.86s-1.75.12-2-.06c0,0-1.64-.47-1.17,1.05l1,1.87a2.83,2.83,0,0,1,.12,2.16c-0.41,1.23,0,1.69.93,1.69a2.13,2.13,0,0,0,1.52-.7s1.35-1.58,3.27,1.4,1.52,4.91,1.52,4.91-0.35,2.51,2.8,3.68,3.68,3.68,2.63,4.91-4,1.17-5.55,0-5.61-3.27-6.49-1.52,1.29,2.28,3.68,2.51,2.1,2.34,1.75,3.74-0.64,3.27.41,3.45,2.22-.7,3.1-2.22,2.92-3.33,4.5-3.33,3.33,1.75,2.92,6-2.22,4.56-2.92,5.14-2,.52-1.87,1.81,1.75,1.05,2.57.65a4.52,4.52,0,0,1,3.27.06,2.53,2.53,0,0,0,3.16-3.33c-0.88-3.1-1.11-3.8-1.11-3.8s-0.53-5,2-5.49,4.15,0.88,4.5,2.1,1.93,5.26,1.93,5.26,1.46,3.74,3.68,2.28c0,0,2.4-1.34,2.46-3.74s0.76-2.75,2.45-3.74,3.79-3.74,1.93-6.37c0,0-2.57-4.15-3.57-4.73s-2.22-2.51-1.34-2.86l4.38,1,5.26,1.11,2.45-.88s-8-1.4-5.43-5.14c0,0,2.87-2.75,15.13-3.27l0-4.29a2,2,0,0,1-1.88-1c-0.23-2.47,1.5-9,1.92-10.54Zm-28.8,36.52a21,21,0,0,0-3.33,3c0.35-3.68-2.45-9.47-2.45-9.47,1-.53,1.31-2.89,1.31-2.89a7.16,7.16,0,0,0-2.54-5.87c2.72-1.63,4.48-9.28,4.84-11,0-.11,0-0.22.07-0.34s0,0.12-.07.34c-2.93,13.81.87,21.76,2.35,22.89A1.89,1.89,0,0,1-28.45,110.15Zm7.65,6.56c2.74,1.12,4.26,3.71,3.41,5.79s-3.76,2.87-6.49,1.75-4.26-3.71-3.41-5.79S-23.54,115.6-20.8,116.71Zm4-17.52s-0.7,1.05-.26,3.94S-18.72,106-18.72,106c-7.62,2.19-11.48-7.19-11.48-7.19-3.59-12.62,8.06-20.16,8.06-20.16,1.52-1.15,2.18-1,2.35-.38s-1.14,1.29-1.79,1.53-0.9.2-.9,0.92,1.29,0.24,1.29.24l0.63-.3c3.16-.61.61,1.31,0.44,1.58s-1.23.79-.79,1.75,2,0.44,2,.44c3.68-1.05.62,1.31,0.62,1.31a3.35,3.35,0,0,0-.53,4.12l2,3.77C-15,96.3-16.8,99.19-16.8,99.19Zm5.58,4.76s-4.61,1.75-4.2-2.28l0.52-3.86s0.59-2.4,2.51-1.34l3.86,2.75S-5.08,101.5-11.22,104ZM-6,98.84c-8-5.61-13.15-21.39-13.15-21.39,3.77-.61,7.45,1.93,7.45,1.93C-3,85.34-6,98.84-6,98.84Zm5.26-11-2,8.68-0.53,2.8s-1,2.63-1.4-.26l0.09-4.91S-3.91,81.58-9.26,79l-5.61-3s-2.46-1.14-2-2.63c0,0,.43-1.05,2-0.26,0,0,8.85,5.26,11,6.13S1.44,81.23-.75,87.8Z"/><path class="cls-9" d="M-0.22,28.7a8.93,8.93,0,0,1-.9,4.89,11.17,11.17,0,0,0-.45,4.12s0.54,6.53-1.7,7l-2.06.54s-0.82-.12-0.85.51c0,0,.06.65,1.13,0.31l1.71-.4s1.62-1.24,2-.15c0,0,.9.27,0.37,3.7A17.17,17.17,0,0,0-1.1,52c0.09,0.93.25,5.27-2.46,5.83a30.72,30.72,0,0,1-3.8,0c-1.31-.15-5.14,0-5,1.68,0,0,.19.78,1.34,0.19l1.78-1a4,4,0,0,1,2.12-.25,9.4,9.4,0,0,0,2.4.15c0.65-.15,3-1.79,3.21-0.29,0,0,1,3,.55,3.85a5.77,5.77,0,0,0,.28,3.61,10.4,10.4,0,0,0,.9-4.33s-1.33-3.85.26-3.94a19.69,19.69,0,0,1,4.6.72l0.81,0.34s2.86,1.81,3.52,1c0,0,.84-0.53-2.71-1.28,0,0-5.22.19-6.09-2.52,0,0-2-5.58-.16-8.56,0,0,.38-3.47,2.34-2.63L4,45.13s2,0.75,2.28.25c0,0,.44-0.4-0.5-0.78a10.32,10.32,0,0,0-2.3-.41,3.71,3.71,0,0,1-3.15-.84s-1.88.54-.82-3.2a11.76,11.76,0,0,0,.31-5.08,7.71,7.71,0,0,1-.28-2Z"/><path class="cls-9" d="M-0.64,65.75A5,5,0,0,1-3.45,71.1a7.33,7.33,0,0,1-4.92-.54s10,4.39,15.57-.09c0,0-6.44,2.33-7.52-1.08Z"/><path class="cls-9" d="M0.39,89.29a9.35,9.35,0,0,0,0,2.81,3.06,3.06,0,0,1-.26,2A3.62,3.62,0,0,0,.47,96a4.5,4.5,0,0,1-.26,3,2.86,2.86,0,0,0,.18,1.84"/><path class="cls-9" d="M-0.05,105.53s-0.35.06-.53,1.11a3.47,3.47,0,0,1-.58,2c-0.64.82-.29,1.11-0.12,2.16a4.78,4.78,0,0,1-.53,2.8c-0.29.47-.12,2.57,0.18,3.62a2.35,2.35,0,0,1-.18,2.1c-0.35.76-.53,4,1.35,4.27,0,0,1.64-.82,1.17-4.38l-0.29-.7a4.13,4.13,0,0,1,0-2,13.17,13.17,0,0,0,.17-4.27c-0.12-1.87-.17-1.23.29-2s0.7-1.17-.12-2.1c0,0-.47,0-0.47-1C0.3,107.17,1.17,105.36-.05,105.53Z"/><path class="cls-9" d="M-0.05,105.53l-0.23,2.92s0,2.1.06,2.34a6.76,6.76,0,0,1-.35,2.69A2.57,2.57,0,0,0-.7,116c0.53,0.7.18,2.63,0.18,3.33s-0.58,2-.35,3.21-0.06,1-.06,1"/><path class="cls-9" d="M33.55,82.28s-0.7,1.4,1.14,2.37c0,0,1.84,1.84,1.66,3,0,0-.09,2.1,1.49,1.14,0,0,3.42-1.23,5.09,1.4,0,0,2.89,3.94,1.14,6.66L43.28,98s-0.88,2.8-2.72,2l-1.93-.53s-2.37.44-.17,1.14c0,0,1.66.79,1.05,2.19l-0.7,2.54a7.62,7.62,0,0,0,.35,2c0.35,1.14-.53,1.66-1,2.45s-1.84,3.42-.53,3.07a10.37,10.37,0,0,0,1.84-3.07c0.7-1.84,1.93-4.12,3.15-4.73L46,102.44a2.29,2.29,0,0,0,.79-2.19c-0.26-1.4.09-3.94,3.59-4.12a17.08,17.08,0,0,0,4.3-.53c1.49-.52,7.27-1.75,7.1,3.94,0,0-.18,2.37-1.67,3.07a1.19,1.19,0,0,0-.32,2s2,3.74-2,8.12a2.81,2.81,0,0,1-2.34.7s-1.23,0-1.7-2.39-1.17-3.27-2-2.8c0,0-1,.58.7,2,0,0,2.22,2.16.47,4.21a3,3,0,0,1-3,.88c-1.87-.47-1.87.76-2.16,1.23a1.82,1.82,0,0,1-.76.76c-0.23.12-1.17,0.94,0.18,0.94A6.36,6.36,0,0,0,50,116.58c0.88-1.11,3.1-1.23,4.73-1.23s1.87-.76,1.87-0.76a2.67,2.67,0,0,1,2.57-.41s3.74,1.46,1.64,5.43a29,29,0,0,1-4,5,2.08,2.08,0,0,1-2.34.41,3.06,3.06,0,0,1-1.23-.76,0.83,0.83,0,0,0-1.34-.29s-0.41.64,0.94,1l1,0.29s1.87,0.29.58,2.1c0,0-3.45,4.33-6.19,4.38,0,0-3.16.06-4.39-2.45L43,127.62s-0.76-1.23-1.11-1.05c0,0-.76.18,0.12,1.29a6.18,6.18,0,0,1,1.29,2.4,1.82,1.82,0,0,0,2.1,1.52s4.74,0.17,4.38,2.57-0.94,2-.94,2a3.27,3.27,0,0,0-1.05,1.87,3,3,0,0,1-3.51,2.28,8.41,8.41,0,0,0-5.75.38,37.62,37.62,0,0,1,6.27.61c5.37,1.79,8.7-5.45,8.7-5.45,7.73-5.37,5.37-9.52,5.37-9.52A13.09,13.09,0,0,1,60.68,125l0.22-.19c1.33-1.27,2.06-4.2,2.06-4.2a27.58,27.58,0,0,1,.65-3.74l0.81-2.28a8.48,8.48,0,0,0-.73-7.32,13.91,13.91,0,0,0,.16-11.47c4.89-7.89.9-12,.9-12-1.71-1.79-.16-3-0.16-3l1-1.14C67.36,75.95,64,70.42,64,70.42A14.88,14.88,0,0,0,60,63.91a7.94,7.94,0,0,0-2.69-3.66,8.55,8.55,0,0,0-3-4.39,4.79,4.79,0,0,0,0-.49,5.24,5.24,0,0,1-2.69,3.33A20.54,20.54,0,0,1,45.91,60l-2.28-.09s-2.54-.17-3.42.35c0,0-1.93,1-3.07.35,0,0-3.33-.35-2,0.62a16.79,16.79,0,0,0,5.52-.35l2.45-.26s6.93-1,11,.88c0,0,2.72,1.75.52,3.94,0,0-1.22,1.23-2,1.14,0,0-1.49-.53-1.49.61,0,0,.09,2.28-1.14,2.54,0,0-1.4.61-1,1.58,0,0,.26.88,1.75,0.79a4,4,0,0,1,2.82,1.24C53,71.63,52,67.79,55,66.85c0,0,4.73-2.11,7.19,5.61a26.18,26.18,0,0,1,.26,8.5,19.25,19.25,0,0,0,.79,4.82A8.57,8.57,0,0,1,63.09,91s-2.28,4.47-6.23,3.5c0,0-1.4-.44-1.84-0.09a1.74,1.74,0,0,1-2.1-.18c-0.7-.61-1.58,0-2.28.52A2.55,2.55,0,0,1,47,94.55s-3.59-3-3-6c0,0,.35-2.72-1.49-1.67,0,0-3.68,1.75-5.26-1.14l-1.84-2.37S34.08,81.84,33.55,82.28Zm20.34-8.06a1.86,1.86,0,0,0-.33-0.86C53.74,73.87,53.89,74.21,53.89,74.21ZM21.11,138.35c3.19,2.56,10.77,2.85,10.77,2.85a1.45,1.45,0,0,0,.23.16l-0.2-.35s-4.21-1-3.27-4.33A8.88,8.88,0,0,1,21.11,138.35ZM49.68,48.71s0.55,0.21,1.27.56A14.22,14.22,0,0,0,45,42.62a6.29,6.29,0,0,1,.73,2S46.79,48.27,49.68,48.71ZM29.75,31.65a16.32,16.32,0,0,0-11-.77,6,6,0,0,1-.37,6s-4,5.49.12,8.77c0,0,.29,3.59,2,3.59,0,0,1.05.09-.35-1.4a11.28,11.28,0,0,1-1.75-5.43S16.77,29.78,29.75,31.65ZM8.25,115.18S11,115.23,9.75,118a5.41,5.41,0,0,0,.73-0.9,19.13,19.13,0,0,0-.23,3.25c0.32-2.1,1.12-4.47,3.07-4.78l1.29-.47,1.52-.7,1.11-.35s3.39-.41,3.91-1.29c0,0,.41-1.11-1-0.88a10.05,10.05,0,0,1-4.56.93l-2.34.23-1.52.18-2.4.29s-2.63,0-2.28,1C7.08,114.53,7,115.06,8.25,115.18ZM4.16,121.9a24.06,24.06,0,0,1-1.45,2.67c2.76-.79,4.2-3.93,4.58-4.89A5,5,0,0,0,4.16,121.9Z"/><path class="cls-9" d="M63.89,70.3S59,64.34,55,64.92"/><path class="cls-9" d="M58.25,65.53A2,2,0,0,1,59.92,64"/><path class="cls-9" d="M57.27,60.25A2.73,2.73,0,0,0,55,59.92a4.73,4.73,0,0,1-3.4-1.1"/><path class="cls-9" d="M44.68,95.34s-0.09,7.1-5.53,11.22"/><path class="cls-9" d="M41.27,106.21s1.75-6.14,6.13-8.77"/><path class="cls-9" d="M57,113.22a12.61,12.61,0,0,0,6.65-5.95"/><path class="cls-9" d="M63.86,95.8a4.73,4.73,0,0,0-2.6-2.48"/><path class="cls-9" d="M58.89,126.56l-3.14,3.17s-3.44,3.51-7.53,2"/><path class="cls-9" d="M53.48,131.36a9.56,9.56,0,0,1,0,4.71"/><path class="cls-9" d="M10.49,117.12A13.52,13.52,0,0,1,12.87,113"/><ellipse class="cls-9" cx="5.15" cy="117.69" rx="1.81" ry="0.76" transform="translate(-45.19 11.19) rotate(-22.79)"/><path class="cls-9" d="M-0.46,105.53s0.35,0.06.53,1.11a3.47,3.47,0,0,0,.58,2c0.64,0.82.29,1.11,0.12,2.16a4.79,4.79,0,0,0,.53,2.8,7.91,7.91,0,0,1-.18,3.62,2.34,2.34,0,0,0,.18,2.1c0.35,0.76.52,4-1.35,4.27,0,0-1.64-.82-1.17-4.38l0.29-.7a4.11,4.11,0,0,0,0-2,13.08,13.08,0,0,1-.17-4.27c0.12-1.87.17-1.23-.29-2s-0.7-1.17.11-2.1c0,0,.47,0,0.47-1C-0.81,107.17-1.69,105.36-.46,105.53Z"/><path class="cls-9" d="M-0.46,105.53l0.23,2.92s0,2.1-.06,2.34a6.76,6.76,0,0,0,.35,2.69A2.56,2.56,0,0,1,.19,116c-0.53.7-.18,2.63-0.18,3.33s0.58,2,.35,3.21,0.06,1,.06,1"/><path class="cls-9" d="M53.89,74.21a5,5,0,0,1-.44,4.21,2.24,2.24,0,0,0-.7,2.54"/><path class="cls-9" d="M-13.86,105.85l8.7-3.53A3.93,3.93,0,0,1-1.69,102a4.28,4.28,0,0,0,4,.1c0.68-.47,1.42-0.74,3.53.26l5.43,2.74"/><path class="cls-10" d="M-0.19,28.68C1,27.51,3.11,26.5,7.06,27.17l8.3,1.59s3.17,1.47,3.42,2.12a16,16,0,0,1,16.52,5l0.49,1a2.52,2.52,0,0,0,1.79,1.46s5.45,2,7.08,4.15a14.15,14.15,0,0,1,6.43,7.16s3.74,2.52,3.17,6.26a8.55,8.55,0,0,1,3,4.39A7.94,7.94,0,0,1,60,63.91,14.86,14.86,0,0,1,64,70.42s3.34,5.53,1.55,9.19l-1,1.14s-1.55,1.22.16,3c0,0,4,4.15-.89,12a13.91,13.91,0,0,1-.16,11.47,8.5,8.5,0,0,1,.73,7.32l-0.81,2.28a27.66,27.66,0,0,0-.65,3.74s-0.73,2.93-2.06,4.2l-0.22.19a12.81,12.81,0,0,0-1.79,1.55s2.36,4.15-5.37,9.52c0,0-3.34,7.24-8.71,5.45,0,0-5.45-1-7.16-.49,0,0-4.23,1.47-5.78.16,0,0-8.38-.32-11.23-3.25,0,0-5-1.87-5-6.43,0,0,.41-2.44-1.22-2.93,0,0-5.29-2.28-3.9-11.47a5.18,5.18,0,0,1-2.69,2.11l-0.41.17S5.85,124,2.27,124.68a4.08,4.08,0,0,1-2.17.63H-0.61a4.06,4.06,0,0,1-2.17-.63C-6.36,124-7.9,119.4-7.9,119.4l-0.41-.17A5.18,5.18,0,0,1-11,117.12c1.38,9.19-3.9,11.47-3.9,11.47-1.63.49-1.22,2.93-1.22,2.93,0,4.56-5,6.43-5,6.43-2.85,2.93-11.23,3.25-11.23,3.25-1.54,1.3-5.78-.16-5.78-0.16-1.71-.49-7.16.49-7.16,0.49-5.37,1.79-8.7-5.45-8.7-5.45-7.73-5.37-5.37-9.52-5.37-9.52A12.89,12.89,0,0,0-61.19,125l-0.22-.19c-1.33-1.27-2.06-4.2-2.06-4.2a27.74,27.74,0,0,0-.65-3.74l-0.82-2.28a8.49,8.49,0,0,1,.73-7.32,13.92,13.92,0,0,1-.16-11.47c-4.88-7.89-.89-12-0.89-12,1.71-1.79.16-3,.16-3l-1-1.14c-1.79-3.66,1.55-9.19,1.55-9.19a14.86,14.86,0,0,1,4.07-6.51,8,8,0,0,1,2.68-3.66,8.55,8.55,0,0,1,3-4.39c-0.57-3.74,3.17-6.26,3.17-6.26a14.16,14.16,0,0,1,6.43-7.16c1.63-2.19,7.08-4.15,7.08-4.15a2.52,2.52,0,0,0,1.79-1.46l0.49-1a16,16,0,0,1,16.52-5c0.25-.65,3.42-2.12,3.42-2.12l8.3-1.59c3.92-.67,6.07.32,7.23,1.49Z"/></g><rect class="cls-1" x="1.11" width="126.49" height="169.61"/></svg>