<svg xmlns="http://www.w3.org/2000/svg" viewBox="0 0 127.55 172.18"><defs><style>.cls-1{isolation:isolate;}.cls-2,.cls-4{fill:#fff;}.cls-2{stroke:#cdd0d0;}.cls-2,.cls-3{stroke-miterlimit:10;}.cls-3{fill:#ecbfbd;stroke:#ecbfbd;stroke-width:1.25px;}.cls-10,.cls-11,.cls-12,.cls-13,.cls-14,.cls-15,.cls-16,.cls-17,.cls-18,.cls-19,.cls-20,.cls-21,.cls-22,.cls-32,.cls-42,.cls-43,.cls-44,.cls-45,.cls-46,.cls-47,.cls-48,.cls-49,.cls-5,.cls-50,.cls-51,.cls-52,.cls-53,.cls-54,.cls-55,.cls-56,.cls-57,.cls-58,.cls-6,.cls-7,.cls-8,.cls-9{fill:#749ebb;}.cls-24,.cls-5{opacity:0;}.cls-6{opacity:0.04;}.cls-7{opacity:0.09;}.cls-8{opacity:0.13;}.cls-9{opacity:0.18;}.cls-10{opacity:0.22;}.cls-11{opacity:0.26;}.cls-12{opacity:0.31;}.cls-13{opacity:0.35;}.cls-14{opacity:0.4;}.cls-15{opacity:0.44;}.cls-16{opacity:0.49;}.cls-17{opacity:0.53;}.cls-18{opacity:0.57;}.cls-19{opacity:0.62;}.cls-20{opacity:0.66;}.cls-21{opacity:0.71;}.cls-22{opacity:0.75;}.cls-23{opacity:0.9;mix-blend-mode:multiply;}.cls-24{fill:#a7c3d4;}.cls-25{fill:#9fbccf;opacity:0.06;}.cls-26{fill:#98b8cc;opacity:0.12;}.cls-27{fill:#92b3c9;opacity:0.18;}.cls-28{fill:#8cafc7;opacity:0.24;}.cls-29{fill:#85abc4;opacity:0.29;}.cls-30{fill:#7fa7c1;opacity:0.35;}.cls-31{fill:#7aa2be;opacity:0.41;}.cls-32{opacity:0.47;}.cls-33{fill:#6e9ab8;opacity:0.53;}.cls-34{fill:#6896b5;opacity:0.59;}.cls-35{fill:#6292b1;opacity:0.65;}.cls-36{fill:#5d8eae;opacity:0.71;}.cls-37{fill:#578aab;opacity:0.76;}.cls-38{fill:#5186a8;opacity:0.82;}.cls-39{fill:#4c82a5;opacity:0.88;}.cls-40{fill:#467ea2;opacity:0.94;}.cls-41{fill:#407a9f;}.cls-42{opacity:0.04;}.cls-43{opacity:0.07;}.cls-44{opacity:0.11;}.cls-45{opacity:0.14;}.cls-46{opacity:0.18;}.cls-47{opacity:0.21;}.cls-48{opacity:0.25;}.cls-49{opacity:0.28;}.cls-50{opacity:0.32;}.cls-51{opacity:0.35;}.cls-52{opacity:0.39;}.cls-53{opacity:0.42;}.cls-54{opacity:0.46;}.cls-55{opacity:0.49;}.cls-56{opacity:0.53;}.cls-57{opacity:0.56;}.cls-58{opacity:0.6;}</style></defs><title>Alzheimers</title><g class="cls-1"><g id="Picture"><path class="cls-2" d="M79.37,142.79l-1.36,4-2.51,5-2.32,3.09-2.83,11.47h-0.6c-11.07-7.11-29.31-10.73-29.31-10.73-11.18-2.33-16.16-8.6-18.35-14.15,2-1.4,3.18-2.32,3.18-2.32,12.75-15.73,3.15-25,3.15-25-4.64-5-9.44-16.06-9.44-16.06C11.86,79.05,21.46,63,21.46,63,33.55,38.82,62.85,40.81,62.85,40.81c41.88,0.83,41.47,33.44,41.47,33.44l0.08,0.83,0.33,1.49a4.43,4.43,0,0,1,.5,3.64,5.1,5.1,0,0,0-.83,5l8.53,13.91c2.23,3.06,1.49,4.63,1.49,4.63,0.08,2.15-4,1.74-4,1.74a3.88,3.88,0,0,0-2.32-.33c-3.31.41,0.25,5.38,0.25,5.38l0.33,1.24C109.2,114.07,106,115,106,115l1.24,1.16c1.65,2.48-1.16,4.22-1.16,4.22-3.39,2.15.25,7.78,0.25,7.78,1.66,1.82.91,4.55,0.91,4.55-2.15,7.94-24.91,6.13-24.91,6.13-2.95.27-3.27,2.23-2.94,4h0Z"/><path class="cls-3" d="M21.05,78.19c0.14-6.76,3-8.44,3-8.44,1.82-6.2,3.86-7.27,5-9.62s2.51-5,4.82-5.77S36.25,52,38,50.73a25.56,25.56,0,0,1,5.26-2.38,6.49,6.49,0,0,1,6-1.73c5.63-2.22,6.18,0,7.85-.08s2.41-2,5-1.88a20.9,20.9,0,0,1,5.81,1.56c5.6-1.21,4.49,1.71,6.43,1.33s6.53,0.07,7.9,1.94,2.35,0.55,5.24,2.68A13.13,13.13,0,0,1,91.28,56a3.84,3.84,0,0,0,2.06,2,12.9,12.9,0,0,1,4.85,7.58,5.74,5.74,0,0,1,2.44,5.59,9.69,9.69,0,0,0-.52,5.38c-1.16,9-10.29,10.55-11.7,11.38a15.26,15.26,0,0,1-3.9,1.32,13.91,13.91,0,0,1-2.18,4.36c-1.84.36-8.93,4.89-11.2,5.34a19.27,19.27,0,0,1-5.77-.22C57.14,100.78,53,97.78,53,97.78c-5,1.64-4.36-.49-6.2-0.13s-4.91.17-6.14-.93-2.55-1-4.38-1.73S32.18,93.2,30,94.74s-3.55.81-3.55,0.81C20.52,91,20.92,85,21.05,78.19Z"/><path class="cls-4" d="M48.24,67.9a2.35,2.35,0,0,1,1.14,2.39c-0.71.59-1.85,0.51-1.51-.83s-1.11-1.06-1.47-1.81S46.81,67.13,48.24,67.9Z"/><path class="cls-4" d="M49.52,81c-0.42.91-.79,0.15-1.34-0.71s-0.07-3.05.68-3.05S49,78.54,49,78.54C49.08,79.86,49.94,80.07,49.52,81Z"/><path class="cls-4" d="M38.93,84.24s2,1.4,2.19,2.79,1.87,0.38,2.65,2.47-0.72.14-1.12,0a10.65,10.65,0,0,1-1.77-1c-0.6-.41-0.59-2.65-1.87-3.45S38.66,84.37,38.93,84.24Z"/><path class="cls-4" d="M28.43,77.24c-0.94.18-1.74-3.55-1.32-4.83s0.52,0,.52,0S29.36,77.06,28.43,77.24Z"/><path class="cls-4" d="M70,84.91c-1,.41,0-1.43.2-2.43s-0.48-2.45.4-2.55,0.72,2.18.72,2.18A2.94,2.94,0,0,1,70,84.91Z"/><path class="cls-4" d="M26.47,95.55s1.38,0.74,3.55-.81,4.39-.52,6.23.24,3.15,0.62,4.38,1.73,4.3,1.29,6.14.93,1.24,1.78,6.2.13c0,0,4.18,3,12.42.94a19.27,19.27,0,0,0,5.77.22c2.27-.44,9.36-5,11.2-5.34a13.91,13.91,0,0,0,2.18-4.36,15.26,15.26,0,0,0,3.9-1.32c1.41-.84,10.53-2.4,11.7-11.38a9.69,9.69,0,0,1,.52-5.38,5.74,5.74,0,0,0-2.44-5.59A12.9,12.9,0,0,0,93.35,58a3.84,3.84,0,0,1-2.06-2,13.13,13.13,0,0,0-3.79-3.86c-2.89-2.13-3.86-.82-5.24-2.68s-6-2.32-7.9-1.94S73.52,45,67.92,46.23a20.9,20.9,0,0,0-5.81-1.56c-2.61-.16-3.36,1.78-5,1.88s-2.22-2.15-7.85.08a6.49,6.49,0,0,0-6,1.73A25.56,25.56,0,0,0,38,50.73c-1.78,1.24-1.91,2.84-4.23,3.63S30.09,57.79,29,60.14s-3.15,3.42-5,9.62c0,0-2.81,1.67-3,8.44S20.52,91,26.47,95.55ZM43.8,54.77c1.11,1.06.65,1.44-.35,1.64s-0.9-1.54-1.43-2.34-1.87-1.51-3.52.39a4.53,4.53,0,0,1-3.67,1.92c-0.88.1-1.14-.45-0.78-0.52a3.7,3.7,0,0,0,2.8-1.37,12.24,12.24,0,0,1,4.73-3.39c2.48-1.08,1.73.41,1.73,0.41A5.53,5.53,0,0,0,43.8,54.77Zm1.43,2.72c-1.06-.84,3-3.13,6.21-2.71s6.36,4.6,6.54,7-1,2.68-.9,5.72-3.64,1.31-4.06-.85,0.34-2.46.78-2.92c0,0,1-1.39.2-1.69,0,0-.46-0.06-0.92,1.08a2.25,2.25,0,0,1-3.46,1.05c-1.62-1-2-1-3-1,0,0-1.47-.61-1-1.16S46.29,58.32,45.23,57.48Zm14.26-3.61a3.34,3.34,0,0,1,1.73,2A4.24,4.24,0,0,0,63,58.42a3.68,3.68,0,0,1,1.48,4.88c0.75,5.77-.16,6.47-0.16,6.47-1.42,1.55-.86,1.74-0.86,1.74,1.46-.21,1.58-1.13,2.12-3s0-5.46,0-5.46C66.39,62,66,59.93,65.74,59s-2.61-2.26-2.61-2.26C63,55.59,63,55.2,61.46,53.63s-1.24-2.9-1.24-2.9c0.66-2.38,3.81-.45,3.81-0.45,2.13,2.88,3.75,3.46,5.23,3.77s1.58,3.13,1.58,3.13c1.36,2.73.09,2.75,0.09,2.75-0.29.06-.17-1.24-0.76-1.58a1.18,1.18,0,0,1-.6-1.53,1,1,0,0,0-.36-1.05c-1.33.48-.43,2.78-0.43,2.78,1,0.34,1.14,2.77,1.14,2.77a13.33,13.33,0,0,0-.55,6.39c1.3,6.26-2.12,7.9-3.63,7.82s-2.46-1.09-4.69-.65-3.35-1.07-4.12-2.71,1.12-3.44,1.37-4.09-0.37-1.5.27-3.2a9.33,9.33,0,0,0,.18-5.2c-0.35-1.43.12-1.67,0.45-3.08S58.8,54.53,58.43,55a2.48,2.48,0,0,0-.23,1.47c-0.38,1.87-1.42,1.18-1.42,1.18,0-2.54-1.4-2.57-2.38-2.6s0.54-1.08.54-1.08c1-.41.19-0.94,0.19-0.94a4.68,4.68,0,0,1-4.24.15c-1.78-.7-4.28.69-4.28,0.69-2.25,1.49-2.08-.72-2.08-0.72-0.45-2.31.53-4.15,2.18-4.54s1.06,0.84,1.06.84a1.79,1.79,0,0,0,1.73,2.73c1.23-.24.08-1.51,0.08-1.51a1.77,1.77,0,0,1,.95-2.43c4.5-1.85,5.85.8,7.3,1.34S59.49,53.87,59.49,53.87ZM88.15,66.46c3,1.58,1.63,6.79-2.29,6.66s-4.73,1.82-6.19,2.79-3.08,1.87-3.22,1.15a3.73,3.73,0,0,1,2-3.39c1.47-.51,2.76-1.21,3.78-4S84.14,67,84.14,67c-0.18,1,1,2.66,1,2.66,1.94,1.87.89,0,.89,0-1.46-2.86-.29-6.08,1.29-6.39s4.37,2.44,4.37,2.44c0.22,2.65-2.29.15-2.29,0.15C88,65.07,88.15,66.46,88.15,66.46Zm-12.4,3.17c-0.34-1.73-1.68-5.14-3.23-6.18a2.19,2.19,0,0,1-.82-2.68c2.32-1.95,3,.32,3.94,1.77s1.58,0.81.49-.92S75.21,59.25,77.41,59s3.34,3.31,4.26,4.18,0.73-.07-0.41-2.47-0.32-2.78.41-4S83.26,56,83.26,56a18.87,18.87,0,0,0,4.42,3.1c1.42,0.77,2.92,3.47,2.92,3.47C91.42,64,90,62.95,90,62.95c-0.93-1.69-3.41-1.35-3.41-1.35-1.47.89-1.58-.06-1.58-0.06-0.73-.68-0.78.23-0.78,0.23,1.28,3.12-.55,4.08-0.55,4.08-2.85,1.91-3.42-1.43-3.72-3.32s-1.09-1.36-1-.93a18.6,18.6,0,0,1,.43,4.48c-0.19,1.31-2.08,3.18-.72,2.84s0-1.28,2-1.52,0.7,2.41-1.88,4.56S76.09,71.36,75.75,69.63Zm1.53-15.12c-0.57-2.13.11-2.12,0.11-2.12,2.23-.44,4.37,2.06,4.37,2.06,0.4,0.52-.85,1-0.85,1a18.52,18.52,0,0,0-1.83,2.9,5.35,5.35,0,0,1-1.38-.93c-1.62.92-1.44-.47-1.44-0.47C76.48,55.41,77.85,56.64,77.28,54.51ZM75.22,76.1s-1.9,2.17-5.55,1.09c0,0-2.14-1.75-.35-2.55a4.41,4.41,0,0,1,1.56,1.49s1.68,0.94.65-.88c0,0-1.34-.34-0.94-3.26a15.61,15.61,0,0,0,0-6.14c-0.37-1.13.2-2.06,1.36-1.09C72,64.76,76.85,71.44,75.22,76.1ZM69.49,49.52c0.34,1.35.66,3,3,2.71,0,0,2.74-1.29,3.28,1.08s0.14,0.72-1,4.16-3-.16-3-1.51-0.06-3.36-3.05-3.75S65.89,49.85,65,49.27s-2.59-1.74-5.81.16a1.15,1.15,0,0,1,.21-2,6.23,6.23,0,0,1,6.12-.07,3.34,3.34,0,0,0,2.29.23A3.11,3.11,0,0,1,69.49,49.52Zm14.17,5.09c-1.8-.4-0.41-2.84-7.06-3.56a8.44,8.44,0,0,0-4.09-.25s-1.72.41-1.89-2a1.49,1.49,0,0,0-.8-1s0.09-.69,1.64,0a11.29,11.29,0,0,1,2,1.48s4.77-1.23,7.94,2a2.25,2.25,0,0,0,2.09,1.09c1.48-.07,1.25.28,1.37,0.48C84.87,52.72,85.46,55,83.66,54.61Zm12,8.74A5.84,5.84,0,0,1,92.08,62a5.27,5.27,0,0,0-1.9-2.47,6.52,6.52,0,0,0-3.59-2.67c-1.45-.54-1.46-1.36-1.46-1.36a1.38,1.38,0,0,0,1.38-1.77c1.27,0.35,2.71,2.39,2.71,2.39a4.47,4.47,0,0,0,2.12,3.18A9.73,9.73,0,0,1,95.63,63.35Zm2.68,7.56s-1.72,1.91-2.43-1.32a2.86,2.86,0,0,0-1.8-3.47,4.61,4.61,0,0,0-1.77-1.38s-0.82-.74.92-0.63A6.66,6.66,0,0,1,98.31,70.91Zm-1.56,8.84c-5.2,4-8.33,1-7.71-.37s-0.09-3.88-.09-3.88a5.13,5.13,0,0,0,2.27.9c6.11,0.61,5.2-1.76,5.2-1.76-3.42,1.64-4,.63-5.65.21s-3.42-1.43-2.2-1.67,2.95-1.78,2.62-3.06S91.12,67.07,92.68,67s1.77,1.75,1.77,1.75a3.84,3.84,0,0,1-.17,2.2c0.19,1.38,2.41,1.62,2.41,1.62,1.87-.37,1.52.9,1.52,0.9a2.74,2.74,0,0,0-.54,1.83A4,4,0,0,1,96.74,79.75ZM90,82.93A6.38,6.38,0,0,0,95.32,82c-1.42,2.3-6.55,5.17-7.11,2.66S90,82.93,90,82.93Zm-5.9,2a5.21,5.21,0,0,0,2.77-.39c1,1.89.13,2.22-1.38,2.52s-2.09,0-2.59-1S84.13,84.91,84.13,84.91ZM81.4,82.82s-0.28-1.44-1.28-1.55c0,0-.4-1.27,1.23-1,0,0,3.13-.46,4.27-1.51s-0.1-.88-1.12-0.38a10.83,10.83,0,0,1-6.6.69s-1.42-.4,1.62-1.66,2.61-3.13,6.86-3.21c0,0,2.62,1.13,1.16,4.79,0,0,1.1,2.18.37,3.45C87.91,82.45,83,85.12,81.4,82.82ZM37.24,84C36.94,82.22,39,80.91,40,80.83a15.47,15.47,0,0,1,4.43,1.1c1.73,0.56.81,1.25,1.95,2.48a5.61,5.61,0,0,1,1.19,1.51c-0.46-.36-2-0.11-3.22.18s-0.35.8-.35,0.8c2,0.8,7-2,7.16,1.58s-3.07,3-4.67,3.1-3.67-.68-5.44.05-0.6,1.24-.6,1.24c1.54-.75,4.53-0.38,6.21-0.43s2.37,0.32,2.7,2.05,0.76,1.59,1.2,1.28-0.78-2.88-.23-3.49,2.72-1.88,2.47-3.18a1.58,1.58,0,0,1,.34-1.69,16.68,16.68,0,0,0,3.47-.9,8.73,8.73,0,0,1,5.25-1.59c1.94-.15,2.57,1.07,5.13,1.24a17.2,17.2,0,0,1,4.5.92c2.35,1.67,3.71,2.3,6,2.2s1.39-.94,1.39-0.94a4.42,4.42,0,0,1-3.59-.25c-1.13-.9.27-1.79,0.63-2.82s-0.54-.74-0.54-0.74c-1.49.41-.21,2.4-2,2.58s-1.82-1.55-3.71-1.74A13.81,13.81,0,0,1,64,83.44c-1.37-1-.39-1.72-1.26-3.29s-0.57-1.74-.34-2.91-1.74,0-1.12,2.3,1.85,1.71.16,3.39-2.34.4-2.62-.78-1.16-.45-1.15-1.57,0-1.46,0-1.46c-1.13-.62-1,1.09-0.82,2.41s2,2.92-1.09,3.92S48.91,86,48,84.1a7.71,7.71,0,0,0-4.19-3.62c-1.52-.6-1.61-0.47-2-2.25s1.73-3.76,2.75-4a0.67,0.67,0,0,0,.53-1.06c-3.3.36-3.7,3.2-4.24,4.14s0.48,3-1.72,1.85-3.26-5.2-3.48-6.34-0.14-1.55-.86-1.52c-1.32.05,0.73,4.86,2.24,7.14s1.24,2.06.07,2.35-4.29-.68-6.15-5.59,0.73-5.48-1-5.31S30.31,77,30.31,77c0.94,0.77.43,1.32,0.43,1.32-1.32-.7-3.42,1.17-3.42,1.17-0.66.92-1.75-.61-1.43-1,0.63-.8.67-1.76,0.09-4.4s-0.28-2.87,1-6.48,2.1-3.05,3-3.22,2,2.08,1.93,3.55-1.34,2.9-.25,5.61,1.54,1.84,1.54,1.84c-0.4-.6-0.72-4.24-0.72-4.24,1.39-3.53-.14-5.59-0.75-7s-1.89-.75-2.07-1.39,1.21-1.87,2.81-1.39,0.72,2.22,2.22,3.27,1,1.31,1,1.31a4.45,4.45,0,0,0-1.73.34c-0.34.85,0.91,0.66,2.24,0.85s1.72,4.21,1.91,5.75-0.3,2.19.4,2.06,0.65-3,0-6.4-3-4.41-3.51-6.17,1.2-2.76,1.66-3.3,1.35-2-.49-0.8S34.78,60,34.25,60.12s-0.81-.4-1.78-0.21a1.61,1.61,0,0,1-1.18,0c0.32-2.08,2.95-2.15,2.95-2.15a7.56,7.56,0,0,0,4.51-1.61c1.49-1.58,3.53.26,2.46,0.81a12.71,12.71,0,0,0-3.48,2.87c-0.44.31-1.05,1.22-.08,1a4.94,4.94,0,0,0,2.08-1.7c2.55-1.34,3.93-1.44,4.61-.28s0.61,3.42-.73,4-1.09,2.46-1.09,2.46c0.43,1.32.74,0,.88-0.68s2.36-1.7,3.18-.11,1.51,1.11,1.51,1.11c2.85-.05,4.14,2.22,4.93,3.13s3.23,3.3,2.49,5-2.23-.52-2.23-0.52c-1.88-1.6-2.36-.32-3.93-0.3s-0.4-2.05-2.76-2-3.67-2.71-3.67-2.71a1.36,1.36,0,0,1-1.22-.77,8,8,0,0,1,.3-6.51c0.41-.81-0.08-1-0.08-1-1.3.25-2.31,4-2,5.33A8.65,8.65,0,0,1,40,68.15c-0.78,0-.45.59-0.45,0.59a3.91,3.91,0,0,0,1.44.17c1.89-.09,4,3.42,4.91,3.59s1.45,1.4,1,1.82-2,2.48-3.51,3S43,78.06,43,78.06c1,0,3.05-1,4.89-2.87s3.05-1.33,3.05-1.33c2.06-.4,2.5,1.87,2.39,2.45a42,42,0,0,1-1,4.19c-0.31.73-.39,2,0.58,1S53.47,77.75,55.2,76s2.8-.23,2.8-0.23c0.52,0.35,1,1.82,1.8,1.15A4.68,4.68,0,0,1,62,76.06a3.55,3.55,0,0,0,2.08.72c2.83-.48,3.9.81,3.9,0.81a2.4,2.4,0,0,0,2.74,1.79c4-1.91,5.49.5,5.49,0.5a5,5,0,0,1,3.69,2.8,3,3,0,0,0,.2,1.72c1.49,0.72,2,3.21,2,3.21-0.28,7.19-2.63,3.77-4.46,5.59a4.58,4.58,0,0,1-5.14,1.28c-1.46-.56-4.14.08-5.26,0.36s-1.06-1.09-1.44-1.35S65.25,94,65.49,95s3.09,0.86,4.57.68,1.87,0.65,1.63,1.14-1.1,1.28-4.43.31-5,.48-8.19.31-1.3-1.48,0-2.93,1.28-2.38,3.37-2.85S65,91.77,67,92.52s1.44-.11,1.44-0.11c-1.51-2.29-5.4-1.75-6.24-1.75s-0.61-1.4-.61-1.4c0.19-.77-0.37-0.77-0.37-0.77A9,9,0,0,0,60,90.9c-2.89,4.72-5.21,5.23-5.21,5.23-5.47,1-6.33.06-7.5-.44A1.09,1.09,0,0,1,46.89,94c-0.19-1-.81-0.12-0.81-0.12-1.52,1.42,1,2.06-.73,2.33s-3.77-.89-5.36-2.72S37.53,85.81,37.24,84ZM32.1,91.42c0.29-.8.43-2-0.18-4.38s-0.16-2.74,1.79-3.12,2.74,1.78,2.74,1.78c1,7.44,2.07,7.91,2.07,7.91-0.88.47-1.63-.28-2.52-1s-1.06-.84-0.57-1.39-0.15-2.67-.46-3.88-1.46-1.73-1.14-.08,0.72,3.68-.44,4.65S31.81,92.22,32.1,91.42Zm-4.57-3.07c-1.33-1.84-.65-4.07-0.42-6s4.12-3.8,4.87-2.67S33,80.9,34.76,81.31s1.06,1.59,1.06,1.59a2,2,0,0,1-1.41-.7,3.84,3.84,0,0,0-2.65.59c-1.45,1.78-1.76.57-2.77,0s-1.38-.55-1,0.05a6.26,6.26,0,0,0,1.62,1.4c1.31,0.2,1.59,6.2,1.59,6.2-0.27,3.2-.94,1.68-0.94,1.68C29.81,89.69,28.86,90.18,27.53,88.34Zm-4.24-2.16c-1.21-10.77,1.3-14,1.3-14C25,72.3,25.3,77,25.3,77c-0.88.85-1.21,3.38-.55,3.33a1.1,1.1,0,0,1,.9,1.54,7.5,7.5,0,0,0-.45,2.71c1,6.55.85,4,2.88,6.7s-0.5,2.42-.5,2.42C24.32,93.39,23.29,86.18,23.29,86.18Z"/><path class="cls-4" d="M48.22,58.25c1.83,2.49,2.53.33,4,0S53.46,59,53.09,59a4.56,4.56,0,0,0-1.14.3,3.34,3.34,0,0,0-1.14.67c-0.84.31-1,.95-1.67,0.63s-1.33-.27-1.52-1.65S48.22,58.25,48.22,58.25Z"/><path class="cls-5" d="M65.83,70.73a48.75,48.75,0,0,1,9.06-.79s11.87,6,12.11-4.44c0,0,6.11-1.32,4.66-4.15a27.21,27.21,0,0,1,4.83,7.44C98.23,73,98.6,78.15,93.15,82c0,0-3.49,2.82.57,1.71,0,0-9.59,11.57-15.84,11.65,0,0-7.31,1.82-20.12,1.75,0,0-21,3-32.81-5.85a50.84,50.84,0,0,1-1.44-9.85C23.27,76,24,69.52,27.77,65.46c0,0,7.87,17.17,26.42,18.2C54.19,83.66,53.73,71.83,65.83,70.73Z"/><path class="cls-6" d="M27.89,65.85a35.48,35.48,0,0,0,6.61,9A29.9,29.9,0,0,0,54.32,84s-0.4-10.63,9.94-12.62A16.31,16.31,0,0,1,66,71.1s1.09-.21,2.78-0.41A46.08,46.08,0,0,1,75,70.42c0.17,0,5.76,2.68,9.3.92,1.47-.73,2.65-2.43,2.81-5.59,0.09-.17,5.92-1.58,4.52-4.29a27,27,0,0,1,4.68,7.44c1.66,4.19,2,9.31-3.47,13,0,0-3.32,2.72.45,1.76-0.12.2-9.38,11.41-15.48,11.5,0,0-6.57,1.6-18.25,1.71-0.55,0-1.14,0-1.77,0-0.31,0-21.07,2.71-32.7-5.79a49.35,49.35,0,0,1-1.45-9.67C23.42,76.12,24.11,69.8,27.89,65.85Z"/><path class="cls-7" d="M28,66.24a35.84,35.84,0,0,0,6.64,9,29.83,29.83,0,0,0,19.8,9.07s-0.4-10.59,10-12.56a15.81,15.81,0,0,1,1.73-.25c0.08,0,1.12-.2,2.78-0.39a49.41,49.41,0,0,1,6.26-.19c0.34,0,5.78,2.46,9.28.7,1.37-.69,2.59-2.45,2.84-5.59,0.18-.34,5.72-1.85,4.37-4.43A26.77,26.77,0,0,1,96.2,69c1.58,4.17,1.82,9.25-3.59,12.89,0,0-3.15,2.62.33,1.81-0.24.4-9.16,11.26-15.12,11.35,0,0-6.51,1.54-18.18,1.68-0.51,0-1.11,0-1.76,0S36.73,99.18,25.3,91a47.88,47.88,0,0,1-1.47-9.5C23.57,76.27,24.25,70.08,28,66.24Z"/><path class="cls-8" d="M28.14,66.63a36.2,36.2,0,0,0,6.67,8.95,29.76,29.76,0,0,0,19.77,9S54.2,74,64.59,72.11a15.51,15.51,0,0,1,1.73-.26c0.11,0,1.15-.19,2.78-0.37a53.6,53.6,0,0,1,6.25-.1c0.5,0,5.8,2.24,9.26.47,1.28-.65,2.53-2.47,2.86-5.6,0.26-.5,5.53-2.12,4.23-4.57a26.57,26.57,0,0,1,4.36,7.43c1.51,4.16,1.67,9.2-3.7,12.74,0,0-3,2.51.22,1.87-0.36.6-8.94,11.1-14.77,11.2,0,0-6.45,1.51-18.1,1.64-0.48,0-1.07,0-1.75,0-0.94,0-21.24,2.2-32.48-5.67A46.44,46.44,0,0,1,24,81.55C23.72,76.42,24.39,70.36,28.14,66.63Z"/><path class="cls-9" d="M28.26,67A36.57,36.57,0,0,0,35,75.94a29.68,29.68,0,0,0,19.75,9s-0.38-10.52,10-12.43a14.64,14.64,0,0,1,1.72-.26c0.15,0,1.17-.18,2.78-0.36a59.79,59.79,0,0,1,6.24,0c0.67,0,5.81,2,9.24.24,1.18-.61,2.47-2.49,2.89-5.6,0.35-.67,5.34-2.38,4.09-4.71a26.38,26.38,0,0,1,4.2,7.43c1.43,4.14,1.53,9.15-3.82,12.59,0,0-2.8,2.41.1,1.92-0.48.8-8.73,10.95-14.41,11,0,0-6.39,1.47-18,1.6-0.44,0-1,0-1.74,0-1.25,0-21.32,2-32.37-5.6a45,45,0,0,1-1.49-9.15C23.87,76.58,24.53,70.65,28.26,67Z"/><path class="cls-10" d="M28.39,67.41a37,37,0,0,0,6.73,8.88,29.61,29.61,0,0,0,19.73,8.93S54.48,74.75,64.92,72.87a13.67,13.67,0,0,1,1.72-.26c0.19,0,1.2-.17,2.78-0.34,1.15-.13,3.49,0,6.22.07,0.84,0,5.83,1.81,9.22,0,1.09-.57,1.92-2.63,2.91-5.6,0.3-.9,5.14-2.65,3.95-4.85a26.2,26.2,0,0,1,4,7.42c1.36,4.13,1.38,9.09-3.94,12.44,0,0-2.62,2.31,0,2-0.6,1-8.51,10.79-14.05,10.9,0,0-6.32,1.42-17.95,1.56-0.41,0-1,0-1.73,0-1.56-.06-21.4,1.7-32.26-5.54a43.62,43.62,0,0,1-1.5-9C24,76.73,24.67,70.93,28.39,67.41Z"/><path class="cls-11" d="M28.51,67.81a37.34,37.34,0,0,0,6.76,8.85A29.53,29.53,0,0,0,55,85.55S54.62,75.1,65.09,73.25A12.63,12.63,0,0,1,66.8,73c0.23,0,1.23-.16,2.78-0.33,1.05-.11,3.42.08,6.21,0.16,1,0,5.84,1.59,9.2-.21C86,72.08,86.9,70,87.93,67c0.37-1.07,5-2.91,3.8-5a26,26,0,0,1,3.88,7.42c1.28,4.12,1.24,9-4.06,12.29,0,0-2.45,2.21-.14,2-0.72,1.2-8.3,10.63-13.7,10.75,0,0-6.26,1.37-17.87,1.53-0.38,0-1,0-1.72,0-1.88-.07-21.48,1.44-32.15-5.48a42.25,42.25,0,0,1-1.51-8.8C24.17,76.89,24.81,71.21,28.51,67.81Z"/><path class="cls-12" d="M28.63,68.2A37.74,37.74,0,0,0,35.42,77c4.41,4.28,11,8.57,19.69,8.84,0,0-.35-10.41,10.14-12.23A11.55,11.55,0,0,1,67,73.36l2.78-.31c1-.1,3.35.17,6.2,0.25,1.18,0,5.86,1.38,9.17-.43,0.9-.49,1.89-2.67,3-5.61,0.45-1.24,4.76-3.18,3.66-5.13a25.87,25.87,0,0,1,3.73,7.42c1.2,4.1,1.09,9-4.18,12.13,0,0-2.28,2.11-.26,2.08-0.84,1.4-8.08,10.48-13.34,10.6,0,0-6.2,1.33-17.79,1.49-0.34,0-.93,0-1.71,0-2.19-.09-21.56,1.19-32-5.41a40.89,40.89,0,0,1-1.52-8.63C24.32,77,24.95,71.49,28.63,68.2Z"/><path class="cls-13" d="M28.76,68.59a38.15,38.15,0,0,0,6.82,8.79c4.42,4.28,11,8.56,19.67,8.8,0,0-.35-10.37,10.18-12.17a10.47,10.47,0,0,1,1.7-.27l2.78-.3c0.86-.09,3.28.25,6.18,0.34,1.35,0,5.87,1.16,9.15-.66,0.81-.45,1.88-2.68,3-5.62,0.54-1.41,4.56-3.45,3.52-5.27a25.73,25.73,0,0,1,3.57,7.41c1.13,4.09.95,8.94-4.3,12,0,0-2.1,2-.38,2.13-1,1.6-7.86,10.32-13,10.45,0,0-6.14,1.28-17.71,1.45-0.31,0-.9,0-1.71,0-2.5-.1-21.64.93-31.94-5.35a39.56,39.56,0,0,1-1.53-8.45C24.47,77.2,25.08,71.77,28.76,68.59Z"/><path class="cls-14" d="M28.88,69a38.57,38.57,0,0,0,6.84,8.75c4.44,4.27,11,8.55,19.65,8.76,0,0-.34-10.33,10.21-12.1a9.4,9.4,0,0,1,1.7-.27l2.79-.28c0.76-.08,3.22.33,6.17,0.42,1.51,0,5.89.95,9.13-.88,0.71-.4,1.86-2.7,3-5.62C89,66.17,92.76,64,91.77,62.34a25.6,25.6,0,0,1,3.41,7.41c1.05,4.07.8,8.88-4.42,11.83,0,0-1.93,1.91-.5,2.19-1.08,1.8-7.65,10.17-12.63,10.3A107.1,107.1,0,0,1,60,95.47c-0.27,0-.87,0-1.7,0-2.81-.12-21.72.68-31.83-5.29a38.26,38.26,0,0,1-1.54-8.28C24.62,77.35,25.22,72.06,28.88,69Z"/><path class="cls-15" d="M29,69.37a39,39,0,0,0,6.87,8.72c4.46,4.27,11,8.54,19.63,8.71,0,0-.33-10.3,10.25-12a8.37,8.37,0,0,1,1.69-.27l2.79-.26c0.67-.07,3.15.42,6.16,0.51,1.68,0.05,5.9.73,9.11-1.11,0.62-.36,1.84-2.71,3-5.62,0.72-1.75,4.18-4,3.23-5.56A25.48,25.48,0,0,1,95,69.86c1,4.06.66,8.83-4.53,11.68,0,0-1.76,1.8-.62,2.24-1.2,2-7.43,10-12.27,10.15A110.51,110.51,0,0,1,60,95.29c-0.24,0-.83,0-1.69,0-3.13-.13-21.8.42-31.72-5.23a37,37,0,0,1-1.55-8.1C24.77,77.5,25.36,72.34,29,69.37Z"/><path class="cls-16" d="M29.13,69.76A39.43,39.43,0,0,0,36,78.45C40.51,82.72,47.1,87,55.64,87.12c0,0-.33-10.26,10.28-12a7.39,7.39,0,0,1,1.69-.28l2.79-.25c0.57-.05,3.08.5,6.14,0.6,1.85,0.06,5.91.52,9.09-1.34,0.53-.31,1.82-2.72,3.07-5.63,0.82-1.91,4-4.25,3.09-5.7A25.38,25.38,0,0,1,94.88,70c0.9,4,.51,8.78-4.65,11.53,0,0-1.58,1.7-.74,2.29-1.32,2.2-7.22,9.85-11.92,10a114.25,114.25,0,0,1-17.48,1.34c-0.21,0-.8,0-1.68,0-3.44-.15-21.89.17-31.61-5.16A35.72,35.72,0,0,1,25.25,82C24.92,77.66,25.5,72.62,29.13,69.76Z"/><path class="cls-17" d="M29.25,70.15a39.88,39.88,0,0,0,6.93,8.66c4.49,4.26,11.09,8.52,19.58,8.62,0,0-.32-10.22,10.32-11.91a6.46,6.46,0,0,1,1.68-.28c0.46,0,1.41-.1,2.79-0.23,0.48,0,3,.58,6.13.69,2,0.07,5.93.3,9.07-1.56,0.44-.26,1.8-2.73,3.09-5.63,0.92-2.08,3.79-4.51,2.95-5.84a25.28,25.28,0,0,1,2.93,7.4c0.83,4,.37,8.73-4.77,11.38,0,0-1.41,1.6-.85,2.35-1.44,2.4-7,9.7-11.56,9.85a118.38,118.38,0,0,1-17.4,1.3c-0.17,0-.76,0-1.67,0-3.75-.17-22-0.08-31.5-5.1A34.48,34.48,0,0,1,25.41,82C25.07,77.81,25.64,72.9,29.25,70.15Z"/><path class="cls-18" d="M29.37,70.54a40.34,40.34,0,0,0,7,8.62c4.51,4.26,11.12,8.51,19.56,8.58,0,0-.31-10.19,10.35-11.84a5.6,5.6,0,0,1,1.68-.28c0.49,0,1.43-.09,2.79-0.22a53,53,0,0,0,6.12.77c2.19,0.07,5.94.09,9-1.79A28.16,28.16,0,0,0,89,68.75c1-2.23,3.6-4.78,2.81-6a25.21,25.21,0,0,1,2.78,7.4c0.75,4,.22,8.67-4.89,11.22,0,0-1.23,1.5-1,2.4-1.56,2.6-6.79,9.54-11.2,9.7a123,123,0,0,1-17.33,1.26c-0.14,0-.73,0-1.66-0.05-4.06-.19-22-0.34-31.39-5a33.27,33.27,0,0,1-1.58-7.58C25.22,78,25.78,73.19,29.37,70.54Z"/><path class="cls-19" d="M29.5,70.93a40.81,40.81,0,0,0,7,8.59C41,83.78,47.63,88,56,88.06c0,0-.31-10.15,10.39-11.78A4.79,4.79,0,0,1,68.09,76c0.53,0,1.46-.08,2.79-0.2a38.93,38.93,0,0,0,6.1.86,16.32,16.32,0,0,0,9-2A34.74,34.74,0,0,0,89.16,69c1.14-2.39,3.41-5,2.66-6.12a25.15,25.15,0,0,1,2.62,7.4c0.67,4,.08,8.62-5,11.07a5.65,5.65,0,0,0-1.09,2.45c-1.68,2.8-6.57,9.39-10.85,9.55a128.1,128.1,0,0,1-17.25,1.22c-0.1,0-.69,0-1.65-0.06-4.38-.21-22.13-0.59-31.28-5a32.08,32.08,0,0,1-1.59-7.4C25.37,78.12,25.92,73.47,29.5,70.93Z"/><path class="cls-20" d="M29.62,71.32a41.29,41.29,0,0,0,7,8.56c4.54,4.25,11.16,8.49,19.52,8.49,0,0-.3-10.11,10.42-11.71a4.05,4.05,0,0,1,1.67-.29c0.57,0,1.49-.08,2.79-0.18a31,31,0,0,0,6.09.95,16.13,16.13,0,0,0,9-2.24,45.1,45.1,0,0,0,3.17-5.65c1.25-2.55,3.21-5.31,2.52-6.26a25.1,25.1,0,0,1,2.46,7.39c0.6,4-.07,8.57-5.13,10.92,0,0-.72,1.35-1.21,2.51C86.59,87,81.6,93,77.46,93.21a133.85,133.85,0,0,1-17.17,1.19l-1.64-.06C54,94.1,36.44,93.49,27.48,89.42a30.92,30.92,0,0,1-1.6-7.23C25.52,78.27,26.06,73.75,29.62,71.32Z"/><path class="cls-21" d="M29.75,71.72a41.78,41.78,0,0,0,7.05,8.53c4.56,4.24,11.19,8.47,19.5,8.45,0,0-.3-10.07,10.46-11.65,0,0,0-.15,1.66-0.29,0.61-.05,1.52-0.07,2.8-0.17a25.4,25.4,0,0,0,6.07,1,15.89,15.89,0,0,0,9-2.47,63.85,63.85,0,0,0,3.19-5.65c1.37-2.7,3-5.58,2.38-6.4a25.07,25.07,0,0,1,2.3,7.39c0.52,4-.21,8.52-5.25,10.77l-1.33,2.56c-1.73,3.3-6.14,9.07-10.13,9.25a140.35,140.35,0,0,1-17.09,1.15l-1.63-.07c-5-.25-22.29-1.1-31.06-4.85A29.79,29.79,0,0,1,26,82.25C25.67,78.43,26.2,74,29.75,71.72Z"/><path class="cls-22" d="M66.92,77.42s-0.06-.29,4.46-0.45c0,0,9.05,3.4,15-1.57,0,0,6.65-10.79,5.45-12.19A25,25,0,0,1,94,70.6c0.45,4-.36,8.46-5.37,10.62,0,0-5.65,11.45-11.23,11.71,0,0-5.58.7-17,1.11,0,0-22.33-.76-32.57-4.86a28.67,28.67,0,0,1-1.62-6.88c-0.37-3.72.14-8,3.68-10.19A42.29,42.29,0,0,0,37,80.6c4.57,4.24,11.21,8.46,19.48,8.4C56.43,89,56.07,78.41,66.92,77.42Z"/><g class="cls-23"><ellipse class="cls-24" cx="71.22" cy="85.8" rx="8.96" ry="13.29" transform="translate(-35.09 119.45) rotate(-67.87)"/><ellipse class="cls-25" cx="71.21" cy="85.81" rx="8.76" ry="13.07" transform="translate(-35.1 119.44) rotate(-67.87)"/><ellipse class="cls-26" cx="71.19" cy="85.82" rx="8.56" ry="12.86" transform="translate(-35.12 119.43) rotate(-67.87)"/><ellipse class="cls-27" cx="71.18" cy="85.83" rx="8.36" ry="12.64" transform="translate(-35.14 119.42) rotate(-67.86)"/><ellipse class="cls-28" cx="71.17" cy="85.83" rx="8.16" ry="12.42" transform="translate(-35.16 119.41) rotate(-67.86)"/><path class="cls-29" d="M82.46,90.44c-1.65,4.07-8.06,5.31-14.3,2.77s-10-7.9-8.31-12,8.06-5.32,14.3-2.78S84.11,86.37,82.46,90.44Z"/><path class="cls-30" d="M82.24,90.37c-1.61,4-7.89,5.17-14,2.67S58.43,85.31,60,81.34s7.89-5.17,14-2.67S83.85,86.4,82.24,90.37Z"/><path class="cls-31" d="M82,90.3c-1.57,3.87-7.72,5-13.74,2.57s-9.63-7.57-8.06-11.44S68,76.41,74,78.86,83.6,86.43,82,90.3Z"/><path class="cls-32" d="M81.81,90.23C80.28,94,74.25,95.1,68.35,92.69s-9.46-7.41-7.93-11.17S68,76.65,73.88,79.05,83.34,86.46,81.81,90.23Z"/><path class="cls-33" d="M81.6,90.16c-1.49,3.67-7.39,4.72-13.19,2.37s-9.29-7.24-7.8-10.91S68,76.89,73.79,79.25,83.08,86.49,81.6,90.16Z"/><path class="cls-34" d="M81.38,90.08c-1.44,3.56-7.23,4.58-12.91,2.26s-9.12-7.08-7.68-10.64S68,77.13,73.71,79.44,82.83,86.52,81.38,90.08Z"/><path class="cls-35" d="M81.17,90c-1.4,3.46-7.06,4.43-12.63,2.16s-9-6.91-7.55-10.38S68,77.37,73.62,79.64,82.57,86.55,81.17,90Z"/><path class="cls-36" d="M81,89.94C79.59,93.3,74.06,94.22,68.6,92s-8.79-6.75-7.42-10.11,6.9-4.28,12.36-2.06S82.32,86.58,81,89.94Z"/><path class="cls-37" d="M80.74,89.87c-1.32,3.26-6.73,4.13-12.08,2S60,85.24,61.36,82s6.73-4.14,12.08-2S82.06,86.61,80.74,89.87Z"/><path class="cls-38" d="M80.52,89.79c-1.28,3.16-6.56,4-11.8,1.85s-8.45-6.42-7.17-9.58,6.56-4,11.8-1.85S81.8,86.64,80.52,89.79Z"/><path class="cls-39" d="M80.31,89.72c-1.24,3.05-6.4,3.84-11.52,1.75s-8.28-6.26-7-9.31,6.4-3.84,11.52-1.75S81.55,86.67,80.31,89.72Z"/><path class="cls-40" d="M80.09,89.65c-1.19,3-6.23,3.69-11.25,1.65s-8.12-6.09-6.92-9,6.23-3.69,11.25-1.65S81.29,86.7,80.09,89.65Z"/><path class="cls-41" d="M79.88,89.58c-1.15,2.85-6.06,3.54-11,1.55S61,85.19,62.11,82.34s6.06-3.54,11-1.54S81,86.73,79.88,89.58Z"/></g><path class="cls-5" d="M42.48,73.13s-8.94,1.92-9.18,12.34c0,0-5.54,5-4.08,7.8A35.11,35.11,0,0,1,25.34,84c-1.25-5.11-1.13-11.19,4.36-15,0,0,.94-2.81-3.15-1.69,0,0,10.87-6.11,17.15-6.19,0,0,6.13-7.29,19-7.22,0,0,21.11-.55,33,8.26a38.39,38.39,0,0,1,1.45,8.63c0.25,4.82-.46,10.66-4.28,14.72,0,0-7.88-18.38-26.54-19.4C66.33,66.08,57.32,64.17,42.48,73.13Z"/><path class="cls-42" d="M95.47,62a36.25,36.25,0,0,1,1.28,6.91c0,0.52.08,1.06,0.11,1.61a22.15,22.15,0,0,1-2.24,11.38,10.16,10.16,0,0,1-2.16,2.78,37.54,37.54,0,0,0-3.78-6.14c-3.82-5-10.62-11.47-20.94-12.6-0.51-.06-1-0.09-1.61-0.1-0.17.07-7.45-1.23-19.06,4.54-1.36.67-2.79,1.64-4.48,2.42-0.21.1-7.31,2.21-9.25,12,0,0-.32.32-0.78,0.8-1.38,1.44-4.41,4.74-3.3,6.83a33,33,0,0,1-2.9-6.75c-0.23-.74-0.43-1.52-0.61-2.32-1.07-4.95-.82-10.8,4.59-14.52,0,0,.95-2.68-2.8-1.68,0.15-.07,10.69-5.19,16.82-6.08A25,25,0,0,1,56.5,54.86a48.93,48.93,0,0,1,6.58-.68C63.41,54.15,83.88,53.57,95.47,62Z"/><path class="cls-43" d="M95.24,61.94a34.75,34.75,0,0,1,1.24,6.81c0,0.51.08,1,.09,1.59a21.5,21.5,0,0,1-2.39,11.14,7.48,7.48,0,0,1-2.13,2.46,38.83,38.83,0,0,0-3.79-6C84.47,73,77.7,66.8,67.51,65.71a13.76,13.76,0,0,0-1.58-.07c-0.35.14-7.69-.93-18.79,4.52-1.28.63-2.72,1.56-4.43,2.34-0.43.19-7.43,2.32-9.32,11.69,0,0-.31.34-0.74,0.8-1.29,1.36-4.45,4.61-3.34,6.67a31.67,31.67,0,0,1-2.62-6.61c-0.2-.72-0.37-1.48-0.52-2.26-0.89-4.78-.51-10.42,4.82-14,0,0,1-2.55-2.45-1.66C28.84,67,39,62.05,45,61.13a27.17,27.17,0,0,1,12-6,51.23,51.23,0,0,1,6.44-.68C64.11,54.44,83.93,53.83,95.24,61.94Z"/><path class="cls-44" d="M95,61.84a33.31,33.31,0,0,1,1.2,6.72c0,0.51.07,1,.08,1.56A20.86,20.86,0,0,1,93.75,81a5.56,5.56,0,0,1-2.1,2.14,40.78,40.78,0,0,0-3.8-5.88A30.14,30.14,0,0,0,67.28,65.46a4.76,4.76,0,0,0-1.55,0c-0.55.12-7.94-.64-18.52,4.51-1.19.58-2.64,1.49-4.39,2.27-0.64.29-7.55,2.42-9.39,11.36a7.82,7.82,0,0,1-.71.8c-1.19,1.28-4.5,4.49-3.38,6.5A29.82,29.82,0,0,1,27,84.39c-0.16-.7-0.31-1.44-0.43-2.19-0.72-4.61-.21-10,5.05-13.52,0,0,1-2.42-2.1-1.65,0.46-.22,10.21-4.92,16.15-5.87,0.54-.09,4.4-4.11,11.79-5.66a53.83,53.83,0,0,1,6.31-.69C64.81,54.73,84,54.09,95,61.84Z"/><path class="cls-45" d="M94.77,61.75a31.91,31.91,0,0,1,1.16,6.63c0,0.5.06,1,.07,1.54a20.24,20.24,0,0,1-2.68,10.65,4.18,4.18,0,0,1-2.06,1.81,42.62,42.62,0,0,0-3.8-5.74A29.94,29.94,0,0,0,67.05,65.21a4.47,4.47,0,0,0-1.52,0,43.24,43.24,0,0,0-18.25,4.5c-1.11.53-2.57,1.41-4.34,2.19a14.54,14.54,0,0,0-9.46,11,5.51,5.51,0,0,1-.67.81c-1.09,1.2-4.54,4.36-3.42,6.33a28,28,0,0,1-2.06-6.34C27.2,83,27.09,82.33,27,81.59c-0.54-4.45.1-9.66,5.29-13,0,0,1-2.28-1.76-1.63,0.61-.29,10-4.79,15.82-5.76,0.72-.12,4.53-3.9,11.62-5.37a56.75,56.75,0,0,1,6.18-.69C65.51,55,84,54.35,94.77,61.75Z"/><path class="cls-46" d="M94.54,61.65a30.56,30.56,0,0,1,1.12,6.53c0,0.49,0,1,.05,1.52a19.64,19.64,0,0,1-2.83,10.41,3.19,3.19,0,0,1-2,1.49A44.27,44.27,0,0,0,87,76,29.76,29.76,0,0,0,66.82,65a4.24,4.24,0,0,0-1.49,0,47.23,47.23,0,0,0-18,4.49c-1,.49-2.5,1.33-4.3,2.11A14.46,14.46,0,0,0,33.54,82.3a4.34,4.34,0,0,1-.64.81c-1,1.12-4.59,4.24-3.46,6.16a26.28,26.28,0,0,1-1.78-6.21c-0.1-.66-0.19-1.36-0.25-2.07-0.36-4.28.41-9.28,5.52-12.52,0,0,1-2.15-1.41-1.61,0.76-.37,9.73-4.66,15.49-5.65,0.9-.16,4.66-3.69,11.44-5.07a60.06,60.06,0,0,1,6-.69C66.21,55.3,84.09,54.61,94.54,61.65Z"/><path class="cls-47" d="M94.3,61.56A29.26,29.26,0,0,1,95.37,68c0,0.48,0,1,0,1.49a19.05,19.05,0,0,1-3,10.17,2.49,2.49,0,0,1-2,1.17,45.62,45.62,0,0,0-3.82-5.48,29.59,29.59,0,0,0-20-10.64,4.07,4.07,0,0,0-1.46.07,52.09,52.09,0,0,0-17.7,4.47c-0.94.44-2.43,1.26-4.25,2-1.3.55-7.91,2.72-9.59,10.39a3.66,3.66,0,0,1-.6.81c-0.9,1-4.63,4.11-3.5,6A24.61,24.61,0,0,1,28,82.4c-0.07-.64-0.13-1.32-0.16-2-0.19-4.11.72-8.9,5.75-12,0,0,1-2-1.06-1.6,0.91-.44,9.49-4.53,15.15-5.55,1.08-.19,4.8-3.48,11.27-4.78,1.29-.26,3.35-0.47,5.91-0.69C66.9,55.58,84.14,54.88,94.3,61.56Z"/><path class="cls-48" d="M94.07,61.47a28,28,0,0,1,1,6.35c0,0.48,0,1,0,1.47A18.49,18.49,0,0,1,92,79.21a2,2,0,0,1-2,.85A46.56,46.56,0,0,0,86.2,74.7,29.45,29.45,0,0,0,66.36,64.46a3.94,3.94,0,0,0-1.43.1C63.67,64.9,56,65.11,47.5,69c-0.86.4-2.35,1.18-4.21,2-1.52.63-8,2.82-9.66,10.07a3.22,3.22,0,0,1-.57.82c-0.8,1-4.68,4-3.53,5.82a23,23,0,0,1-1.22-5.94c0-.62-0.07-1.28-0.07-1.95,0-3.94,1-8.52,6-11.52,0,0,1-1.89-.71-1.58,1.07-.52,9.25-4.4,14.82-5.44,1.26-.23,4.93-3.27,11.1-4.49,1.17-.23,3.21-0.46,5.78-0.69C67.6,55.86,84.19,55.14,94.07,61.47Z"/><path class="cls-49" d="M93.83,61.37a26.78,26.78,0,0,1,1,6.25c0,0.47,0,1,0,1.44a18,18,0,0,1-3.28,9.68,1.71,1.71,0,0,1-1.93.52,47,47,0,0,0-3.84-5.22,29.33,29.33,0,0,0-19.66-9.85,3.86,3.86,0,0,0-1.4.14c-1.44.41-9.15,0.84-17.16,4.45-0.78.35-2.28,1.1-4.16,1.87s-8.14,2.92-9.73,9.74a2.94,2.94,0,0,1-.53.82c-0.71.87-4.72,3.86-3.57,5.65a21.49,21.49,0,0,1-.94-5.8c0-.6,0-1.23,0-1.88,0.15-3.76,1.34-8.14,6.22-11,0,0,1-1.76-.37-1.57,1.22-.59,9-4.27,14.49-5.33,1.44-.28,5.06-3.06,10.93-4.19,1.06-.2,3.06-0.45,5.65-0.7S84.24,55.4,93.83,61.37Z"/><path class="cls-50" d="M93.6,61.28a25.61,25.61,0,0,1,.95,6.16c0,0.46,0,.94,0,1.42a17.45,17.45,0,0,1-3.43,9.44c-0.34.48-.89,0.5-1.89,0.2a46.78,46.78,0,0,0-3.84-5.09A29.23,29.23,0,0,0,65.9,64a3.84,3.84,0,0,0-1.36.17c-1.62.48-9.39,1.13-16.89,4.43-0.69.31-2.21,1-4.12,1.8s-8.26,3-9.8,9.42a2.76,2.76,0,0,1-.49.82c-0.62.78-4.76,3.73-3.61,5.48A20.06,20.06,0,0,1,29,80.41c0-.58.05-1.19,0.11-1.82a12.6,12.6,0,0,1,6.45-10.51s1-1.63,0-1.55c1.37-.66,8.76-4.13,14.15-5.22,1.61-.33,5.19-2.84,10.76-3.9,0.94-.18,2.92-0.44,5.51-0.7C69,56.4,84.3,55.66,93.6,61.28Z"/><path class="cls-51" d="M93.36,61.19a24.48,24.48,0,0,1,.9,6.07c0,0.45,0,.92,0,1.4a17,17,0,0,1-3.58,9.2c-0.3.42-.84,0.32-1.86-0.12a45.92,45.92,0,0,0-3.85-5,29.16,29.16,0,0,0-19.29-9.06,3.88,3.88,0,0,0-1.33.21c-1.79.56-9.63,1.42-16.62,4.42-0.61.26-2.13,1-4.07,1.72-2.19.86-8.38,3.12-9.87,9.09a2.67,2.67,0,0,1-.46.83c-0.53.69-4.81,3.61-3.65,5.31a18.73,18.73,0,0,1-.38-5.53c0-.56.11-1.15,0.2-1.76a12.81,12.81,0,0,1,6.68-10s1-1.5.33-1.53c1.52-.74,8.52-4,13.82-5.11,1.79-.38,5.33-2.63,10.59-3.6,0.82-.15,2.77-0.43,5.38-0.7C69.69,56.67,84.35,55.92,93.36,61.19Z"/><path class="cls-52" d="M93.13,61.09a23.39,23.39,0,0,1,.86,6c0,0.45,0,.9,0,1.37a16.5,16.5,0,0,1-3.72,9c-0.27.35-.8,0.13-1.83-0.44a44.42,44.42,0,0,0-3.86-4.82,29.13,29.13,0,0,0-19.11-8.67,4,4,0,0,0-1.3.24c-2,.63-9.86,1.71-16.35,4.41-0.52.22-2.06,0.87-4,1.64-2.41.94-8.5,3.21-9.94,8.77a2.66,2.66,0,0,1-.42.83c-0.44.6-4.85,3.48-3.69,5.14a17.5,17.5,0,0,1-.1-5.4c0.07-.54.17-1.11,0.29-1.7a13.11,13.11,0,0,1,6.91-9.51s1-1.37.68-1.52a72.45,72.45,0,0,1,13.49-5c2-.43,5.46-2.42,10.41-3.31,0.71-.13,2.62-0.42,5.25-0.7C70.38,56.94,84.4,56.18,93.13,61.09Z"/><path class="cls-53" d="M92.89,61a22.34,22.34,0,0,1,.82,5.88c0,0.44,0,.89,0,1.35a12.36,12.36,0,0,1-3.87,8.71c-0.17.33-.87,0.1-1.79-0.76-0.75-.71-1.88-2.68-3.87-4.69A29.13,29.13,0,0,0,65.21,63.2a4.27,4.27,0,0,0-1.27.27c-2.13.72-10.1,2-16.08,4.39-0.44.18-2,.8-4,1.56-2.64,1-8.61,3.31-10,8.44a2.73,2.73,0,0,1-.39.83c-0.36.51-4.9,3.36-3.73,5a16.37,16.37,0,0,1,.18-5.26c0.1-.52.23-1.07,0.38-1.64a13.53,13.53,0,0,1,7.15-9,8.48,8.48,0,0,0,1-1.5,71.81,71.81,0,0,1,13.15-4.9c2.14-.48,5.59-2.21,10.24-3,0.59-.1,2.48-0.41,5.12-0.7C71.08,57.2,84.45,56.44,92.89,61Z"/><path class="cls-54" d="M92.66,60.9a21.32,21.32,0,0,1,.78,5.79c0,0.43,0,.87-0.06,1.32a11.81,11.81,0,0,1-4,8.47c-0.14.26-.81-0.12-1.76-1.09-0.79-.8-1.94-2.66-3.88-4.56C79.95,67.14,73.78,63.56,65,63a4.76,4.76,0,0,0-1.24.31c-2.3.8-10.33,2.29-15.81,4.38L44,69.13c-2.86,1.08-8.73,3.4-10.07,8.12-0.06.22-.21,0.5-0.35,0.84-0.35.36-4.94,3.23-3.76,4.81a15.37,15.37,0,0,1,.46-5.13c0.13-.51.29-1,0.46-1.57a14.09,14.09,0,0,1,7.38-8.51s1-1.11,1.37-1.49A71.21,71.21,0,0,1,52.3,61.4c2.31-.54,5.72-2,10.07-2.72,0.47-.08,2.33-0.4,5-0.71C71.77,57.46,84.5,56.7,92.66,60.9Z"/><path class="cls-55" d="M92.42,60.81a20.34,20.34,0,0,1,.73,5.69c0,0.42,0,.86-0.07,1.3A11.29,11.29,0,0,1,88.92,76c-0.1.2-.74-0.34-1.73-1.41a53.27,53.27,0,0,0-3.89-4.43c-3.78-3.58-9.88-6.93-18.55-7.49a5.67,5.67,0,0,0-1.21.34C61.07,63.93,53,65.62,48,67.41c-0.27.1-1.84,0.64-3.89,1.4C41,70,35.27,72.3,34,76.61c-0.07.23-.2,0.52-0.31,0.84-0.26.27-5,3.11-3.8,4.64a14.48,14.48,0,0,1,.74-5c0.16-.49.34-1,0.55-1.51a14.85,14.85,0,0,1,7.61-8,10.28,10.28,0,0,1,1.72-1.47A57.63,57.63,0,0,1,53,61.43,100.81,100.81,0,0,1,62.86,59c0.35-.06,2.18-0.39,4.85-0.71C72.47,57.72,84.55,57,92.42,60.81Z"/><path class="cls-56" d="M92.19,60.72a19.4,19.4,0,0,1,.69,5.6c0,0.42,0,.84-0.08,1.28a10.82,10.82,0,0,1-4.32,8c-0.07.13-.67-0.55-1.69-1.73a41.67,41.67,0,0,0-3.89-4.3c-3.79-3.45-9.82-6.58-18.37-7.1a7.69,7.69,0,0,0-1.18.38c-2.64,1-10.76,2.86-15.27,4.36-0.18.06-1.76,0.57-3.85,1.32-3.32,1.21-9,3.57-10.21,7.47-0.08.25-.19,0.53-0.28,0.84s-5,3-3.84,4.47a13.71,13.71,0,0,1,1-4.86q0.27-.7.64-1.45a15.83,15.83,0,0,1,7.84-7.5A12.21,12.21,0,0,1,41.47,66a62.63,62.63,0,0,1,12.16-4.58,95,95,0,0,1,9.73-2.13c0.24,0,2-.38,4.72-0.71C73.16,58,84.61,57.22,92.19,60.72Z"/><path class="cls-57" d="M92,60.62a18.49,18.49,0,0,1,.65,5.51c0,0.41,0,.83-0.1,1.25A10.38,10.38,0,0,1,88,75.13c0,0.07-.6-0.76-1.66-2.05a33.44,33.44,0,0,0-3.9-4.17c-3.79-3.33-9.76-6.23-18.19-6.71,0,0-.46.15-1.15,0.41-2.8,1.07-11,3.14-15,4.34-0.09,0-1.69.49-3.8,1.25-3.54,1.27-9.07,3.65-10.28,7.15a6.18,6.18,0,0,0-.24.85c-0.09.09-5.08,2.86-3.88,4.3a13.05,13.05,0,0,1,1.3-4.73q0.31-.67.73-1.39a17.11,17.11,0,0,1,8.08-7,19,19,0,0,1,2.42-1.44,66.26,66.26,0,0,1,11.82-4.47,82.85,82.85,0,0,1,9.56-1.84c0.12,0,1.89-.37,4.58-0.71C73.86,58.23,84.66,57.48,92,60.62Z"/><path class="cls-58" d="M48.22,66.73s-13.73,3.51-14.31,8.84c0,0-5.12,2.73-3.92,4.13a12.52,12.52,0,0,1,1.58-4.59,18.18,18.18,0,0,1,9.13-7.83S52.83,60.37,64.33,60c0,0,17.09-3.52,27.39.58a17.61,17.61,0,0,1,.61,5.41,10.34,10.34,0,0,1-4.73,8.73,24.72,24.72,0,0,0-5.54-6.41,27,27,0,0,0-18-6.31S52.76,66.56,48.22,66.73Z"/></g></g></svg>