<svg id="Picture" xmlns="http://www.w3.org/2000/svg" viewBox="0 0 127.55 172.18"><defs><style>.cls-1{fill:#407a9f;}</style></defs><title>Alzheimers</title><path class="cls-1" d="M32.88,37.44V25.78A11.65,11.65,0,1,1,21.22,37.44,11.65,11.65,0,0,1,32.88,25.78h0V37.44Z"/><path class="cls-1" d="M82,130.91V112.72a18.19,18.19,0,1,1-18.19,18.19A18.19,18.19,0,0,1,82,112.72h0v18.19Z"/><path class="cls-1" d="M84.67,73.33v-7.6a7.6,7.6,0,1,1-7.6,7.6,7.6,7.6,0,0,1,7.6-7.6h0v7.6Z"/><path class="cls-1" d="M33.73,96.47V84.16A12.32,12.32,0,1,1,21.41,96.47,12.32,12.32,0,0,1,33.73,84.16h0V96.47Z"/></svg>