<svg xmlns="http://www.w3.org/2000/svg" viewBox="0 0 127.55 172.18"><defs><style>.cls-1{isolation:isolate;}.cls-2,.cls-4{fill:#fff;}.cls-2{stroke:#cdd0d0;}.cls-2,.cls-3{stroke-miterlimit:10;}.cls-3{fill:#ecbfbd;stroke:#ecbfbd;stroke-width:1.25px;}.cls-5{opacity:0.5;mix-blend-mode:multiply;}.cls-6{fill:#a7c3d4;opacity:0;}.cls-7{fill:#9fbccf;opacity:0.06;}.cls-8{fill:#98b8cc;opacity:0.12;}.cls-9{fill:#92b3c9;opacity:0.18;}.cls-10{fill:#8cafc7;opacity:0.24;}.cls-11{fill:#85abc4;opacity:0.29;}.cls-12{fill:#7fa7c1;opacity:0.35;}.cls-13{fill:#7aa2be;opacity:0.41;}.cls-14{fill:#749ebb;opacity:0.47;}.cls-15{fill:#6e9ab8;opacity:0.53;}.cls-16{fill:#6896b5;opacity:0.59;}.cls-17{fill:#6292b1;opacity:0.65;}.cls-18{fill:#5d8eae;opacity:0.71;}.cls-19{fill:#578aab;opacity:0.76;}.cls-20{fill:#5186a8;opacity:0.82;}.cls-21{fill:#4c82a5;opacity:0.88;}.cls-22{fill:#467ea2;opacity:0.94;}.cls-23{fill:#407a9f;}</style></defs><title>Alzheimers</title><g class="cls-1"><g id="Picture"><path class="cls-2" d="M76.77,144.29l-1.35,3.93-2.49,5-2.3,3.07-2.8,11.37H67.23c-11-7-29.05-10.63-29.05-10.63-11.09-2.31-16-8.52-18.19-14,2-1.39,3.16-2.3,3.16-2.3,12.63-15.59,3.12-24.77,3.12-24.77C21.67,111,16.91,100,16.91,100c-7.06-18.87,2.46-34.78,2.46-34.78,12-24,41-22,41-22,41.51,0.82,41.1,33.14,41.1,33.14l0.08,0.82,0.33,1.48a4.39,4.39,0,0,1,.49,3.61,5.06,5.06,0,0,0-.82,5L110,101.06c2.22,3,1.48,4.59,1.48,4.59,0.08,2.13-3.94,1.72-3.94,1.72a3.84,3.84,0,0,0-2.29-.33c-3.28.41,0.25,5.33,0.25,5.33l0.33,1.23c0.49,2.22-2.71,3.12-2.71,3.12l1.23,1.15c1.64,2.46-1.15,4.18-1.15,4.18-3.37,2.13.25,7.71,0.25,7.71,1.64,1.81.9,4.51,0.9,4.51-2.13,7.87-24.68,6.07-24.68,6.07-2.92.26-3.24,2.21-2.92,3.94h0Z"/><path class="cls-3" d="M19,80.27c0.14-6.7,2.93-8.36,2.93-8.36,1.81-6.14,3.82-7.2,4.93-9.53s2.48-4.94,4.78-5.72,2.43-2.37,4.19-3.6A25.31,25.31,0,0,1,41,50.7,6.43,6.43,0,0,1,46.9,49c5.58-2.2,6.13,0,7.78-.07s2.39-2,5-1.86a20.72,20.72,0,0,1,5.76,1.54c5.55-1.2,4.45,1.69,6.38,1.31s6.47,0.07,7.83,1.92,2.33,0.55,5.19,2.66a13,13,0,0,1,3.76,3.83,3.81,3.81,0,0,0,2,1.94,12.79,12.79,0,0,1,4.81,7.52,5.69,5.69,0,0,1,2.42,5.54,9.6,9.6,0,0,0-.51,5.33c-1.15,8.91-10.2,10.45-11.59,11.28a15.13,15.13,0,0,1-3.86,1.31,13.77,13.77,0,0,1-2.16,4.32c-1.82.36-8.85,4.85-11.1,5.29a19.12,19.12,0,0,1-5.72-.22c-8.17,2-12.31-.93-12.31-0.93-4.91,1.63-4.32-.49-6.15-0.13s-4.86.17-6.08-.93-2.52-1-4.34-1.71-4-1.77-6.17-.24-3.52.8-3.52,0.8C18.44,93,18.83,87,19,80.27Z"/><path class="cls-4" d="M45.91,70.07A2.33,2.33,0,0,1,47,72.44c-0.7.58-1.83,0.51-1.5-.82s-1.1-1-1.46-1.79S44.49,69.31,45.91,70.07Z"/><path class="cls-4" d="M47.18,83c-0.42.9-.79,0.15-1.33-0.71s-0.07-3,.67-3,0.11,1.32.11,1.32C46.74,81.92,47.6,82.13,47.18,83Z"/><path class="cls-4" d="M36.68,86.27s2,1.39,2.17,2.76,1.86,0.38,2.63,2.45-0.72.14-1.11,0a10.5,10.5,0,0,1-1.75-1c-0.6-.4-0.59-2.63-1.86-3.42S36.41,86.39,36.68,86.27Z"/><path class="cls-4" d="M26.27,79.32c-0.93.18-1.73-3.52-1.31-4.79s0.51,0,.51,0S27.2,79.14,26.27,79.32Z"/><path class="cls-4" d="M67.46,86.93c-1,.41,0-1.41.19-2.41S67.18,82.08,68,82s0.72,2.16.72,2.16A2.91,2.91,0,0,1,67.46,86.93Z"/><path class="cls-4" d="M24.33,97.47s1.37,0.73,3.52-.8,4.35-.52,6.17.24,3.12,0.61,4.34,1.71,4.26,1.28,6.08.93,1.23,1.76,6.15.13c0,0,4.14,3,12.31.93a19.12,19.12,0,0,0,5.72.22c2.25-.44,9.27-4.93,11.1-5.29a13.77,13.77,0,0,0,2.16-4.32,15.13,15.13,0,0,0,3.86-1.31c1.39-.83,10.44-2.38,11.59-11.28a9.6,9.6,0,0,1,.51-5.33,5.69,5.69,0,0,0-2.42-5.54,12.79,12.79,0,0,0-4.81-7.52,3.81,3.81,0,0,1-2-1.94,13,13,0,0,0-3.76-3.83C82,52.37,81,53.67,79.62,51.83s-5.9-2.3-7.83-1.92S71,47.4,65.41,48.59A20.72,20.72,0,0,0,59.66,47c-2.59-.16-3.33,1.76-5,1.86s-2.2-2.13-7.78.07A6.43,6.43,0,0,0,41,50.7a25.31,25.31,0,0,0-5.22,2.36c-1.76,1.23-1.9,2.82-4.19,3.6S27.92,60,26.82,62.38s-3.12,3.39-4.93,9.53c0,0-2.79,1.66-2.93,8.36S18.44,93,24.33,97.47ZM41.51,57.05c1.1,1,.65,1.43-0.35,1.63s-0.89-1.53-1.42-2.32-1.85-1.49-3.49.38a4.49,4.49,0,0,1-3.64,1.9c-0.87.1-1.13-.45-0.77-0.52a3.67,3.67,0,0,0,2.78-1.36,12.1,12.1,0,0,1,4.68-3.36c2.46-1.07,1.71.41,1.71,0.41A5.48,5.48,0,0,0,41.51,57.05Zm1.42,2.69c-1.05-.83,3-3.1,6.15-2.69s6.31,4.55,6.48,7-1,2.65-.89,5.67-3.61,1.3-4-.85S51,66.41,51.41,66c0,0,1-1.38.19-1.67,0,0-.46-0.06-0.91,1.07a2.23,2.23,0,0,1-3.43,1c-1.61-1-2-1-2.94-1,0,0-1.45-.61-1-1.15S44,60.58,42.92,59.74Zm14.14-3.58a3.31,3.31,0,0,1,1.72,2,4.21,4.21,0,0,0,1.76,2.55A3.65,3.65,0,0,1,62,65.51c0.75,5.71-.16,6.41-0.16,6.41-1.4,1.54-.85,1.72-0.85,1.72,1.44-.21,1.56-1.12,2.1-2.93s0-5.41,0-5.41c0.82-1.12.43-3.13,0.17-4S60.66,59,60.66,59c-0.15-1.16-.08-1.54-1.65-3.09s-1.23-2.87-1.23-2.87c0.65-2.35,3.77-.44,3.77-0.44,2.11,2.85,3.71,3.43,5.18,3.74s1.57,3.1,1.57,3.1c1.35,2.71.09,2.73,0.09,2.73-0.29.05-.17-1.23-0.75-1.56a1.17,1.17,0,0,1-.59-1.52,1,1,0,0,0-.35-1c-1.32.48-.43,2.76-0.43,2.76,1,0.33,1.13,2.75,1.13,2.75a13.21,13.21,0,0,0-.54,6.34c1.29,6.2-2.1,7.83-3.6,7.75s-2.44-1.08-4.65-.65-3.32-1.06-4.09-2.69,1.11-3.41,1.36-4.05-0.36-1.49.27-3.17a9.24,9.24,0,0,0,.18-5.15c-0.35-1.41.12-1.66,0.44-3.05s-0.4-2.07-.76-1.63a2.45,2.45,0,0,0-.23,1.45c-0.38,1.86-1.4,1.17-1.4,1.17,0-2.51-1.39-2.55-2.36-2.58s0.53-1.07.53-1.07c1-.41.19-0.93,0.19-0.93a4.64,4.64,0,0,1-4.2.15c-1.77-.69-4.24.68-4.24,0.68-2.23,1.48-2.07-.71-2.07-0.71-0.45-2.29.53-4.11,2.16-4.5s1.05,0.83,1.05.83a1.78,1.78,0,0,0,1.72,2.71c1.22-.24.08-1.5,0.08-1.5a1.75,1.75,0,0,1,.94-2.41c4.46-1.84,5.8.8,7.23,1.33S57.06,56.16,57.06,56.16ZM85.47,68.64c3,1.57,1.61,6.73-2.27,6.6S78.51,77,77.06,78s-3,1.86-3.19,1.14a3.69,3.69,0,0,1,2-3.36c1.46-.51,2.73-1.2,3.75-4s1.87-2.59,1.87-2.59c-0.18,1,1,2.63,1,2.63,1.92,1.85.88,0,.88,0-1.44-2.83-.29-6,1.28-6.34S89,67.88,89,67.88c0.22,2.63-2.27.15-2.27,0.15C85.28,67.26,85.47,68.64,85.47,68.64ZM73.18,71.78c-0.34-1.72-1.66-5.09-3.2-6.13A2.17,2.17,0,0,1,69.16,63c2.29-1.93,3,.31,3.91,1.76s1.57,0.81.49-.91-0.9-2.35,1.27-2.62,3.31,3.28,4.22,4.15,0.73-.07-0.4-2.45-0.32-2.76.4-4,1.57-.68,1.57-0.68A18.71,18.71,0,0,0,85,61.31c1.41,0.76,2.9,3.44,2.9,3.44,0.81,1.47-.59.41-0.59,0.41-0.92-1.67-3.38-1.34-3.38-1.34-1.46.88-1.57-.06-1.57-0.06-0.73-.67-0.77.23-0.77,0.23,1.27,3.09-.55,4-0.55,4-2.82,1.89-3.39-1.41-3.69-3.29s-1.08-1.35-1-.92a18.5,18.5,0,0,1,.42,4.44c-0.19,1.3-2.06,3.15-.71,2.81s0-1.27,2-1.5,0.69,2.39-1.86,4.52S73.51,73.5,73.18,71.78Zm1.52-15c-0.56-2.12.11-2.1,0.11-2.1,2.22-.43,4.33,2,4.33,2,0.4,0.52-.85,1-0.85,1a18.35,18.35,0,0,0-1.81,2.88,5.33,5.33,0,0,1-1.37-.92c-1.6.91-1.43-.46-1.43-0.46C73.91,57.69,75.26,58.91,74.7,56.79Zm-2,21.4s-1.88,2.15-5.51,1.08c0,0-2.12-1.74-.35-2.53a4.38,4.38,0,0,1,1.55,1.48s1.67,0.94.65-.87c0,0-1.33-.33-0.93-3.23a15.42,15.42,0,0,0,0-6.08c-0.37-1.12.19-2,1.35-1.08C69.41,67,74.27,73.57,72.65,78.19ZM67,51.85c0.34,1.34.66,3,3,2.68,0,0,2.72-1.27,3.25,1.07s0.14,0.71-1,4.12-3-.16-3-1.5-0.06-3.33-3-3.71-2.83-2.34-3.69-2.91-2.56-1.72-5.76.16a1.14,1.14,0,0,1,.21-2,6.17,6.17,0,0,1,6.07-.07,3.31,3.31,0,0,0,2.27.22A3.08,3.08,0,0,1,67,51.85Zm14,5c-1.78-.39-0.4-2.82-7-3.53A8.37,8.37,0,0,0,70,53.12s-1.7.41-1.88-2a1.47,1.47,0,0,0-.79-1s0.09-.69,1.63,0a11.11,11.11,0,0,1,2,1.46s4.73-1.22,7.88,1.95a2.23,2.23,0,0,0,2.07,1.08c1.47-.07,1.24.28,1.35,0.48C82.22,55,82.81,57.29,81,56.89Zm11.86,8.66a5.79,5.79,0,0,1-3.52-1.32,5.22,5.22,0,0,0-1.89-2.45,6.46,6.46,0,0,0-3.56-2.64c-1.44-.53-1.45-1.35-1.45-1.35A1.36,1.36,0,0,0,83.83,56c1.26,0.35,2.69,2.37,2.69,2.37a4.43,4.43,0,0,0,2.1,3.15A9.65,9.65,0,0,1,92.88,65.56ZM95.54,73s-1.71,1.89-2.41-1.31a2.84,2.84,0,0,0-1.78-3.44,4.55,4.55,0,0,0-1.75-1.36s-0.81-.73.92-0.63A6.6,6.6,0,0,1,95.54,73ZM94,81.81c-5.16,4-8.26,1-7.64-.36s-0.08-3.84-.08-3.84a5.08,5.08,0,0,0,2.25.89c6.05,0.6,5.15-1.75,5.15-1.75-3.39,1.63-4,.63-5.6.2s-3.39-1.41-2.18-1.65,2.92-1.76,2.6-3-0.07-3,1.47-3.1,1.75,1.73,1.75,1.73a3.8,3.8,0,0,1-.17,2.18c0.19,1.37,2.39,1.61,2.39,1.61,1.86-.36,1.51.89,1.51,0.89a2.71,2.71,0,0,0-.54,1.81A3.94,3.94,0,0,1,94,81.81ZM87.33,85a6.32,6.32,0,0,0,5.24-.88c-1.41,2.28-6.49,5.13-7.05,2.64S87.33,85,87.33,85Zm-5.85,2a5.16,5.16,0,0,0,2.74-.39c1,1.87.13,2.2-1.37,2.49s-2.07,0-2.57-1S81.48,86.93,81.48,86.93Zm-2.71-2.07s-0.28-1.43-1.26-1.53c0,0-.39-1.26,1.22-1,0,0,3.1-.46,4.23-1.5s-0.1-.87-1.11-0.38a10.73,10.73,0,0,1-6.54.69s-1.41-.39,1.61-1.65,2.58-3.1,6.8-3.18c0,0,2.6,1.12,1.15,4.75,0,0,1.09,2.16.37,3.42C85.23,84.49,80.41,87.14,78.77,84.86ZM35,86c-0.29-1.78,1.79-3.08,2.78-3.16A15.33,15.33,0,0,1,42.17,84c1.72,0.55.8,1.24,1.93,2.46a5.56,5.56,0,0,1,1.18,1.49c-0.46-.36-2-0.1-3.19.18s-0.35.79-.35,0.79c1.93,0.79,6.89-2,7.09,1.56s-3,2.93-4.63,3.07-3.64-.68-5.39.05-0.59,1.23-.59,1.23c1.52-.74,4.49-0.38,6.15-0.42s2.35,0.32,2.68,2,0.75,1.58,1.19,1.27-0.78-2.85-.23-3.46,2.7-1.86,2.45-3.15a1.57,1.57,0,0,1,.34-1.68,16.56,16.56,0,0,0,3.44-.9,8.65,8.65,0,0,1,5.2-1.57c1.92-.15,2.55,1.06,5.08,1.23a17.09,17.09,0,0,1,4.46.91c2.33,1.66,3.68,2.28,5.94,2.18s1.37-.93,1.37-0.93a4.38,4.38,0,0,1-3.55-.25c-1.12-.9.26-1.78,0.62-2.79s-0.53-.73-0.53-0.73c-1.48.4-.2,2.38-1.95,2.55s-1.8-1.54-3.68-1.73a13.67,13.67,0,0,1-5.71-1.89c-1.35-1-.39-1.71-1.25-3.26s-0.56-1.73-.34-2.88-1.72,0-1.11,2.28,1.83,1.7.16,3.36-2.32.4-2.6-.77-1.14-.44-1.14-1.56,0-1.45,0-1.45c-1.12-.61-1,1.08-0.81,2.39s2,2.89-1.08,3.88-6.74.54-7.66-1.34a7.65,7.65,0,0,0-4.15-3.58c-1.51-.6-1.59-0.47-2-2.23s1.72-3.73,2.73-4a0.67,0.67,0,0,0,.52-1c-3.27.36-3.67,3.17-4.21,4.11s0.48,3-1.7,1.83-3.23-5.16-3.45-6.28-0.13-1.53-.85-1.5c-1.32.05,0.72,4.81,2.22,7.08s1.23,2,.07,2.32-4.25-.67-6.09-5.54,0.72-5.43-1-5.26,0.38,7,.38,7c0.93,0.76.42,1.31,0.42,1.31-1.3-.69-3.39,1.16-3.39,1.16-0.66.91-1.73-.61-1.42-1,0.63-.79.66-1.74,0.09-4.36s-0.28-2.84,1-6.42,2.08-3,2.94-3.19,2,2.06,1.91,3.52-1.33,2.88-.25,5.56,1.52,1.82,1.52,1.82c-0.39-.59-0.71-4.2-0.71-4.2,1.38-3.5-.14-5.54-0.74-6.92s-1.87-.75-2-1.38,1.2-1.85,2.79-1.38,0.71,2.2,2.19,3.24,1,1.3,1,1.3a4.42,4.42,0,0,0-1.72.34c-0.34.85,0.91,0.66,2.22,0.85S35.67,73.5,35.86,75s-0.3,2.17.4,2,0.64-3,0-6.34-3-4.37-3.48-6.11S34,61.87,34.4,61.34s1.34-2-.49-0.79S32.57,62.2,32,62.35s-0.8-.4-1.77-0.21a1.59,1.59,0,0,1-1.17,0C29.43,60.08,32,60,32,60a7.5,7.5,0,0,0,4.47-1.6c1.47-1.57,3.5.26,2.44,0.8a12.64,12.64,0,0,0-3.45,2.84c-0.44.31-1,1.21-.08,1a4.89,4.89,0,0,0,2.06-1.68C40,60.07,41.37,60,42,61.12s0.61,3.39-.73,4-1.08,2.44-1.08,2.44c0.42,1.31.73,0,.87-0.67s2.34-1.68,3.15-.11,1.5,1.1,1.5,1.1c2.83-.05,4.1,2.2,4.89,3.1s3.2,3.27,2.46,4.92-2.21-.51-2.21-0.51C49,73.78,48.55,75,47,75.07s-0.4-2-2.73-2-3.64-2.68-3.64-2.68a1.35,1.35,0,0,1-1.21-.76,7.94,7.94,0,0,1,.29-6.46c0.4-.8-0.08-1-0.08-1-1.29.25-2.29,4-2,5.28a8.64,8.64,0,0,1,.06,2.88c-0.77,0-.44.59-0.44,0.59a3.87,3.87,0,0,0,1.42.17c1.87-.09,4,3.39,4.87,3.56s1.44,1.39,1,1.8-2,2.45-3.48,3-0.41.75-.41,0.75c1,0,3-1,4.84-2.84s3-1.32,3-1.32c2-.4,2.48,1.85,2.37,2.43a40.72,40.72,0,0,1-1,4.15c-0.3.72-.38,2,0.57,0.94S51.1,79.83,52.81,78s2.78-.23,2.78-0.23c0.51,0.34,1,1.8,1.78,1.14a4.66,4.66,0,0,1,2.22-.81,3.52,3.52,0,0,0,2.07.71c2.8-.47,3.87.8,3.87,0.8a2.37,2.37,0,0,0,2.72,1.77c4-1.9,5.44.49,5.44,0.49a5,5,0,0,1,3.66,2.77,2.92,2.92,0,0,0,.2,1.7c1.47,0.71,2,3.18,2,3.18-0.28,7.12-2.61,3.74-4.43,5.54A4.54,4.54,0,0,1,70,96.39c-1.44-.55-4.1.08-5.22,0.35s-1-1.08-1.43-1.34S62.77,96,63,96.92s3.06,0.85,4.53.67,1.85,0.64,1.61,1.13-1.09,1.27-4.4.3-5,.47-8.12.31-1.29-1.47,0-2.9,1.26-2.36,3.34-2.82,2.53,0.12,4.45.86,1.43-.11,1.43-0.11c-1.5-2.27-5.35-1.74-6.19-1.74s-0.6-1.38-.6-1.38c0.19-.76-0.37-0.76-0.37-0.76a9,9,0,0,0-1.14,2.39C54.73,97.54,52.44,98,52.44,98c-5.42,1-6.28.06-7.43-.44A1.08,1.08,0,0,1,44.57,96c-0.19-1-.8-0.12-0.8-0.12-1.51,1.4,1,2-.72,2.31s-3.73-.89-5.31-2.69S35.3,87.82,35,86Zm-5.09,7.34c0.29-.8.42-2-0.18-4.34s-0.16-2.71,1.77-3.09,2.72,1.77,2.72,1.77c1,7.37,2.05,7.83,2.05,7.83-0.87.47-1.61-.28-2.5-1s-1.05-.83-0.56-1.37-0.15-2.64-.45-3.84-1.45-1.72-1.13-.08,0.71,3.65-.43,4.61S29.63,94.18,29.91,93.38Zm-4.53-3c-1.32-1.82-.64-4-0.42-5.93s4.09-3.76,4.82-2.65,1.05,1.2,2.76,1.61,1.05,1.58,1.05,1.58a2,2,0,0,1-1.4-.69,3.8,3.8,0,0,0-2.63.59c-1.44,1.76-1.74.56-2.74,0s-1.37-.55-1,0.05a6.18,6.18,0,0,0,1.61,1.39c1.3,0.19,1.57,6.15,1.57,6.15-0.27,3.17-.93,1.67-0.93,1.67C27.65,91.67,26.71,92.15,25.38,90.33Zm-4.2-2.14C20,77.51,22.47,74.28,22.47,74.28c0.4,0.15.71,4.76,0.71,4.76-0.88.84-1.2,3.35-.54,3.3a1.09,1.09,0,0,1,.9,1.53,7.41,7.41,0,0,0-.44,2.68c1,6.49.84,3.92,2.86,6.64s-0.5,2.4-.5,2.4C22.21,95.33,21.18,88.19,21.18,88.19Z"/><path class="cls-4" d="M45.89,60.5c1.82,2.46,2.51.32,3.94,0s1.25,0.72.88,0.72a4.52,4.52,0,0,0-1.13.3,3.34,3.34,0,0,0-1.13.67c-0.83.31-1,.94-1.66,0.62s-1.31-.26-1.51-1.64S45.89,60.5,45.89,60.5Z"/><g class="cls-5"><ellipse class="cls-6" cx="71.02" cy="89" rx="5.28" ry="7.84" transform="translate(-38.17 121.26) rotate(-67.87)"/><ellipse class="cls-7" cx="71.01" cy="89" rx="5.17" ry="7.72" transform="translate(-38.18 121.25) rotate(-67.87)"/><ellipse class="cls-8" cx="71" cy="89.01" rx="5.05" ry="7.59" transform="translate(-38.2 121.25) rotate(-67.87)"/><ellipse class="cls-9" cx="70.99" cy="89.01" rx="4.93" ry="7.46" transform="translate(-38.21 121.24) rotate(-67.87)"/><ellipse class="cls-10" cx="70.99" cy="89.02" rx="4.81" ry="7.33" transform="translate(-38.22 121.24) rotate(-67.87)"/><ellipse class="cls-11" cx="70.98" cy="89.02" rx="4.7" ry="7.2" transform="translate(-38.23 121.23) rotate(-67.87)"/><ellipse class="cls-12" cx="70.97" cy="89.03" rx="4.58" ry="7.07" transform="translate(-38.24 121.22) rotate(-67.86)"/><ellipse class="cls-13" cx="70.96" cy="89.04" rx="4.46" ry="6.94" transform="translate(-38.25 121.22) rotate(-67.86)"/><ellipse class="cls-14" cx="70.96" cy="89.04" rx="4.34" ry="6.82" transform="translate(-38.26 121.21) rotate(-67.86)"/><ellipse class="cls-15" cx="70.95" cy="89.05" rx="4.23" ry="6.69" transform="translate(-38.27 121.21) rotate(-67.86)"/><ellipse class="cls-16" cx="70.94" cy="89.05" rx="4.11" ry="6.56" transform="translate(-38.28 121.2) rotate(-67.86)"/><path class="cls-17" d="M76.89,91.48c-0.83,2-4.17,2.61-7.46,1.28S64.15,88.68,65,86.63s4.17-2.61,7.46-1.27S77.72,89.44,76.89,91.48Z"/><path class="cls-18" d="M76.76,91.44c-0.8,2-4.07,2.53-7.29,1.22s-5.19-4-4.38-6,4.07-2.53,7.29-1.21S77.57,89.46,76.76,91.44Z"/><path class="cls-19" d="M76.63,91.4c-0.78,1.92-4,2.44-7.13,1.15s-5.09-3.89-4.31-5.81,4-2.44,7.13-1.15S77.41,89.47,76.63,91.4Z"/><path class="cls-20" d="M76.51,91.36c-0.75,1.86-3.87,2.35-7,1.09s-5-3.79-4.23-5.65,3.88-2.35,7-1.09S77.26,89.49,76.51,91.36Z"/><path class="cls-21" d="M76.38,91.31c-0.73,1.8-3.78,2.27-6.8,1s-4.89-3.69-4.16-5.5,3.78-2.26,6.8-1S77.11,89.51,76.38,91.31Z"/><path class="cls-22" d="M76.25,91.27c-0.71,1.74-3.68,2.18-6.64,1s-4.79-3.6-4.08-5.34,3.68-2.18,6.64-1S77,89.53,76.25,91.27Z"/><path class="cls-23" d="M76.13,91.23c-0.68,1.68-3.58,2.09-6.48.91s-4.69-3.5-4-5.18,3.58-2.09,6.48-.91S76.81,89.54,76.13,91.23Z"/></g></g></g></svg>