<svg id="Picture" xmlns="http://www.w3.org/2000/svg" viewBox="0 0 127.55 172.18"><defs><style>.cls-1{fill:#e1cbd1;stroke:#e1cbd1;stroke-miterlimit:10;stroke-width:2px;}.cls-2{fill:#cb9fac;}.cls-3{fill:#407a9f;}</style></defs><title>Alzheimers</title><path class="cls-1" d="M32.88,37.44V16.65A20.79,20.79,0,1,1,12.09,37.44,20.79,20.79,0,0,1,32.88,16.65h0V37.44Z"/><path class="cls-2" d="M32.88,37.44V22.33A15.11,15.11,0,1,1,17.77,37.44,15.11,15.11,0,0,1,32.88,22.33h0V37.44Z"/><path class="cls-3" d="M32.88,37.44V25.78A11.65,11.65,0,1,1,21.22,37.44,11.65,11.65,0,0,1,32.88,25.78h0V37.44Z"/><path class="cls-1" d="M82,130.91V99.74a31.16,31.16,0,1,1-31.16,31.16A31.16,31.16,0,0,1,82,99.74h0v31.16Z"/><path class="cls-2" d="M82,130.91V107.32a23.59,23.59,0,1,1-23.59,23.59A23.59,23.59,0,0,1,82,107.32h0v23.59Z"/><path class="cls-3" d="M82,130.91V112.72a18.19,18.19,0,1,1-18.19,18.19A18.19,18.19,0,0,1,82,112.72h0v18.19Z"/><path class="cls-1" d="M84.67,73.33V58.22A15.11,15.11,0,1,1,69.56,73.33,15.11,15.11,0,0,1,84.67,58.22h0V73.33Z"/><path class="cls-2" d="M84.67,73.33V63.27A10.06,10.06,0,1,1,74.61,73.33,10.06,10.06,0,0,1,84.67,63.27h0V73.33Z"/><path class="cls-3" d="M84.67,73.33v-7.6a7.6,7.6,0,1,1-7.6,7.6,7.6,7.6,0,0,1,7.6-7.6h0v7.6Z"/><path class="cls-1" d="M33.73,96.47V80A16.43,16.43,0,1,1,17.3,96.47,16.43,16.43,0,0,1,33.73,80V96.47Z"/><path class="cls-2" d="M33.73,96.47V82.56A13.92,13.92,0,1,1,19.81,96.47,13.92,13.92,0,0,1,33.73,82.56h0V96.47Z"/><path class="cls-3" d="M33.73,96.47V84.16A12.32,12.32,0,1,1,21.41,96.47,12.32,12.32,0,0,1,33.73,84.16h0V96.47Z"/></svg>