<svg xmlns="http://www.w3.org/2000/svg" viewBox="0 0 127.55 172.18"><defs><style>.cls-1{isolation:isolate;}.cls-2,.cls-4{fill:#fff;}.cls-2{stroke:#cdd0d0;}.cls-2,.cls-3{stroke-miterlimit:10;}.cls-3{fill:#ecbfbd;stroke:#ecbfbd;stroke-width:1.25px;}.cls-10,.cls-11,.cls-12,.cls-13,.cls-14,.cls-15,.cls-16,.cls-17,.cls-18,.cls-19,.cls-20,.cls-21,.cls-22,.cls-32,.cls-5,.cls-6,.cls-7,.cls-8,.cls-9{fill:#749ebb;}.cls-24,.cls-5{opacity:0;}.cls-6{opacity:0.04;}.cls-7{opacity:0.07;}.cls-8{opacity:0.11;}.cls-9{opacity:0.14;}.cls-10{opacity:0.18;}.cls-11{opacity:0.21;}.cls-12{opacity:0.25;}.cls-13{opacity:0.28;}.cls-14{opacity:0.32;}.cls-15{opacity:0.35;}.cls-16{opacity:0.39;}.cls-17{opacity:0.42;}.cls-18{opacity:0.46;}.cls-19{opacity:0.49;}.cls-20{opacity:0.53;}.cls-21{opacity:0.56;}.cls-22{opacity:0.6;}.cls-23{opacity:0.75;mix-blend-mode:multiply;}.cls-24{fill:#a7c3d4;}.cls-25{fill:#9fbccf;opacity:0.06;}.cls-26{fill:#98b8cc;opacity:0.12;}.cls-27{fill:#92b3c9;opacity:0.18;}.cls-28{fill:#8cafc7;opacity:0.24;}.cls-29{fill:#85abc4;opacity:0.29;}.cls-30{fill:#7fa7c1;opacity:0.35;}.cls-31{fill:#7aa2be;opacity:0.41;}.cls-32{opacity:0.47;}.cls-33{fill:#6e9ab8;opacity:0.53;}.cls-34{fill:#6896b5;opacity:0.59;}.cls-35{fill:#6292b1;opacity:0.65;}.cls-36{fill:#5d8eae;opacity:0.71;}.cls-37{fill:#578aab;opacity:0.76;}.cls-38{fill:#5186a8;opacity:0.82;}.cls-39{fill:#4c82a5;opacity:0.88;}.cls-40{fill:#467ea2;opacity:0.94;}.cls-41{fill:#407a9f;}</style></defs><title>Alzheimers</title><g class="cls-1"><g id="Picture"><path class="cls-2" d="M78.42,143.43l-1.36,4-2.51,5-2.32,3.1L69.39,167h-0.6c-11.08-7.12-29.34-10.74-29.34-10.74-11.19-2.33-16.17-8.6-18.36-14.16,2-1.4,3.19-2.32,3.19-2.32,12.76-15.74,3.15-25,3.15-25-4.64-5-9.44-16.07-9.44-16.07-7.13-19.05,2.49-35.13,2.49-35.13,12.09-24.19,41.42-22.2,41.42-22.2,41.92,0.83,41.51,33.47,41.51,33.47l0.08,0.83,0.33,1.49a4.44,4.44,0,0,1,.5,3.65,5.1,5.1,0,0,0-.83,5.05L112,99.77c2.24,3.07,1.49,4.64,1.49,4.64,0.08,2.16-4,1.74-4,1.74a3.89,3.89,0,0,0-2.32-.33c-3.31.41,0.25,5.38,0.25,5.38l0.33,1.24c0.5,2.24-2.73,3.15-2.73,3.15l1.24,1.16c1.66,2.49-1.16,4.23-1.16,4.23-3.4,2.16.25,7.79,0.25,7.79,1.66,1.82.91,4.56,0.91,4.56-2.15,8-24.93,6.13-24.93,6.13-3,.27-3.27,2.23-2.95,4h0Z"/><path class="cls-3" d="M20.05,78.78c0.14-6.77,3-8.44,3-8.44,1.82-6.2,3.86-7.27,5-9.63s2.51-5,4.83-5.78,2.45-2.39,4.23-3.64a25.52,25.52,0,0,1,5.26-2.38,6.5,6.5,0,0,1,6-1.73c5.63-2.23,6.19,0,7.85-.08s2.41-2,5-1.88A20.9,20.9,0,0,1,67,46.79c5.61-1.21,4.49,1.71,6.44,1.33s6.53,0.07,7.91,1.94,2.36,0.55,5.24,2.68a13.11,13.11,0,0,1,3.79,3.87,3.85,3.85,0,0,0,2.07,2,12.91,12.91,0,0,1,4.86,7.59,5.75,5.75,0,0,1,2.44,5.59,9.69,9.69,0,0,0-.52,5.38c-1.16,9-10.3,10.56-11.71,11.39a15.26,15.26,0,0,1-3.9,1.32A13.91,13.91,0,0,1,81.4,94.2c-1.84.36-8.93,4.9-11.21,5.34a19.3,19.3,0,0,1-5.78-.22C56.17,101.39,52,98.38,52,98.38c-5,1.65-4.37-.5-6.21-0.13s-4.91.17-6.14-.93-2.55-1-4.38-1.73S31.19,93.8,29,95.34s-3.55.81-3.55,0.81C19.52,91.58,19.92,85.55,20.05,78.78Z"/><path class="cls-4" d="M47.26,68.48a2.36,2.36,0,0,1,1.14,2.4c-0.71.59-1.85,0.51-1.51-.83S45.79,69,45.42,68.24,45.84,67.71,47.26,68.48Z"/><path class="cls-4" d="M48.55,81.56c-0.42.91-.79,0.15-1.34-0.71s-0.07-3.06.68-3.05S48,79.12,48,79.12C48.1,80.45,49,80.65,48.55,81.56Z"/><path class="cls-4" d="M37.95,84.83s2,1.41,2.19,2.79S42,88,42.8,90.1s-0.72.14-1.12,0a10.5,10.5,0,0,1-1.77-1c-0.61-.41-0.59-2.66-1.88-3.45S37.67,85,37.95,84.83Z"/><path class="cls-4" d="M27.44,77.82C26.5,78,25.69,74.27,26.12,73s0.52,0,.52,0S28.37,77.64,27.44,77.82Z"/><path class="cls-4" d="M69,85.5c-1,.41,0-1.43.2-2.43s-0.48-2.45.4-2.55,0.72,2.18.72,2.18A2.94,2.94,0,0,1,69,85.5Z"/><path class="cls-4" d="M25.47,96.15s1.38,0.74,3.55-.81,4.4-.52,6.23.24,3.16,0.62,4.38,1.73,4.3,1.29,6.14.93S47,100,52,98.38c0,0,4.18,3,12.43.94a19.3,19.3,0,0,0,5.78.22c2.27-.44,9.36-5,11.21-5.34a13.91,13.91,0,0,0,2.18-4.36,15.26,15.26,0,0,0,3.9-1.32c1.41-.84,10.54-2.4,11.71-11.39a9.69,9.69,0,0,1,.52-5.38,5.75,5.75,0,0,0-2.44-5.59,12.91,12.91,0,0,0-4.86-7.59,3.85,3.85,0,0,1-2.07-2,13.11,13.11,0,0,0-3.79-3.87c-2.89-2.13-3.87-.82-5.24-2.68s-6-2.32-7.91-1.94S72.57,45.58,67,46.79a20.9,20.9,0,0,0-5.81-1.56c-2.62-.16-3.36,1.78-5,1.88s-2.22-2.15-7.85.08a6.5,6.5,0,0,0-6,1.73A25.52,25.52,0,0,0,37,51.29c-1.78,1.25-1.92,2.85-4.23,3.64S29.1,58.35,28,60.71s-3.15,3.43-5,9.63c0,0-2.82,1.68-3,8.44S19.52,91.58,25.47,96.15ZM42.82,55.33c1.11,1.06.66,1.44-.35,1.64s-0.9-1.54-1.43-2.34-1.87-1.51-3.52.39a4.53,4.53,0,0,1-3.67,1.92c-0.88.1-1.14-.45-0.78-0.52A3.7,3.7,0,0,0,35.87,55a12.24,12.24,0,0,1,4.73-3.4c2.49-1.09,1.73.41,1.73,0.41A5.53,5.53,0,0,0,42.82,55.33ZM44.25,58c-1.06-.84,3-3.13,6.21-2.71s6.37,4.6,6.55,7-1,2.68-.9,5.72-3.64,1.31-4.06-.86,0.34-2.46.77-2.92c0,0,1-1.4.2-1.69,0,0-.46-0.06-0.91,1.08a2.25,2.25,0,0,1-3.47,1.05c-1.62-1-2-1-3-1,0,0-1.47-.61-1-1.16S45.31,58.89,44.25,58Zm14.28-3.62a3.35,3.35,0,0,1,1.74,2A4.24,4.24,0,0,0,62,59a3.68,3.68,0,0,1,1.48,4.88c0.76,5.77-.16,6.47-0.16,6.47-1.42,1.55-.86,1.74-0.86,1.74,1.46-.21,1.58-1.13,2.12-3s0-5.47,0-5.47c0.83-1.14.43-3.16,0.18-4.08s-2.62-2.26-2.62-2.26c-0.15-1.17-.08-1.56-1.66-3.12s-1.24-2.9-1.24-2.9c0.66-2.38,3.81-.45,3.81-0.45,2.14,2.88,3.75,3.46,5.23,3.77s1.59,3.13,1.59,3.13c1.36,2.73.09,2.76,0.09,2.76-0.29.06-.17-1.24-0.76-1.58a1.18,1.18,0,0,1-.6-1.53,1,1,0,0,0-.36-1.06c-1.33.48-.43,2.78-0.43,2.78,1,0.34,1.14,2.77,1.14,2.77a13.33,13.33,0,0,0-.55,6.4c1.3,6.26-2.13,7.91-3.64,7.83s-2.46-1.09-4.7-.65S56.74,74.41,56,72.77s1.12-3.44,1.37-4.09-0.37-1.5.27-3.2a9.33,9.33,0,0,0,.18-5.21c-0.35-1.43.12-1.67,0.45-3.08s-0.41-2.09-.78-1.65A2.48,2.48,0,0,0,57.23,57c-0.38,1.88-1.42,1.18-1.42,1.18-0.05-2.54-1.4-2.57-2.39-2.61S54,54.5,54,54.5c1-.41.19-0.94,0.19-0.94a4.68,4.68,0,0,1-4.24.15c-1.79-.7-4.28.69-4.28,0.69-2.26,1.49-2.09-.72-2.09-0.72-0.45-2.31.54-4.15,2.18-4.55S46.79,50,46.79,50a1.79,1.79,0,0,0,1.73,2.73c1.23-.24.08-1.51,0.08-1.51a1.77,1.77,0,0,1,.95-2.43c4.51-1.85,5.85.81,7.31,1.35S58.53,54.43,58.53,54.43ZM87.21,67c3,1.58,1.63,6.8-2.29,6.67s-4.74,1.83-6.2,2.79-3.08,1.88-3.22,1.15a3.73,3.73,0,0,1,2-3.39c1.47-.51,2.76-1.21,3.78-4s1.88-2.62,1.88-2.62c-0.18,1,1,2.66,1,2.66,1.94,1.87.9,0,.9,0-1.46-2.86-.29-6.09,1.29-6.4s4.37,2.44,4.37,2.44c0.22,2.65-2.3.15-2.3,0.15C87,65.64,87.21,67,87.21,67ZM74.8,70.21c-0.34-1.73-1.68-5.14-3.23-6.19a2.19,2.19,0,0,1-.83-2.69c2.32-2,3,.32,3.95,1.78s1.58,0.81.49-.92-0.91-2.37,1.28-2.65,3.34,3.32,4.26,4.19,0.74-.07-0.41-2.47-0.32-2.78.4-4,1.59-.69,1.59-0.69a18.92,18.92,0,0,0,4.43,3.1c1.42,0.77,2.93,3.48,2.93,3.48,0.81,1.49-.59.41-0.59,0.41-0.93-1.69-3.41-1.36-3.41-1.36-1.47.89-1.59-.06-1.59-0.06-0.73-.68-0.78.23-0.78,0.23,1.28,3.12-.55,4.08-0.55,4.08C79.9,68.31,79.32,65,79,63.09s-1.09-1.36-1-.93a18.55,18.55,0,0,1,.43,4.49c-0.19,1.31-2.08,3.18-.72,2.84s0-1.28,2-1.52,0.69,2.41-1.88,4.56S75.14,71.94,74.8,70.21Zm1.53-15.14c-0.57-2.14.11-2.12,0.11-2.12,2.24-.44,4.38,2.07,4.38,2.07,0.4,0.52-.86,1-0.86,1a18.58,18.58,0,0,0-1.83,2.91A5.37,5.37,0,0,1,76.76,58c-1.62.92-1.44-.47-1.44-0.47C75.54,56,76.9,57.21,76.33,55.07ZM74.27,76.68s-1.9,2.17-5.56,1.09c0,0-2.14-1.76-.35-2.56a4.4,4.4,0,0,1,1.56,1.49s1.68,0.95.65-.88c0,0-1.34-.34-0.94-3.26a15.67,15.67,0,0,0,0-6.14c-0.37-1.13.2-2.06,1.36-1.09C71,65.33,75.9,72,74.27,76.68Zm-5.73-26.6c0.34,1.36.66,3,3,2.71,0,0,2.75-1.29,3.29,1.08s0.14,0.72-1,4.16-3-.16-3-1.51-0.06-3.36-3.06-3.75-2.86-2.36-3.72-2.94-2.59-1.74-5.81.16a1.15,1.15,0,0,1,.21-2,6.23,6.23,0,0,1,6.13-.07,3.35,3.35,0,0,0,2.29.23A3.1,3.1,0,0,1,68.54,50.08Zm14.19,5.09c-1.8-.4-0.41-2.84-7.07-3.56a8.44,8.44,0,0,0-4.09-.25s-1.72.41-1.89-2a1.49,1.49,0,0,0-.8-1s0.09-.69,1.64,0a11.3,11.3,0,0,1,2,1.48s4.78-1.23,8,2a2.25,2.25,0,0,0,2.09,1.09c1.49-.07,1.25.28,1.37,0.48C83.93,53.29,84.52,55.57,82.72,55.17Zm12,8.75a5.84,5.84,0,0,1-3.56-1.33,5.27,5.27,0,0,0-1.91-2.47,6.53,6.53,0,0,0-3.59-2.67c-1.46-.54-1.47-1.36-1.47-1.36a1.38,1.38,0,0,0,1.38-1.77c1.27,0.35,2.71,2.39,2.71,2.39a4.47,4.47,0,0,0,2.12,3.18A9.74,9.74,0,0,1,94.7,63.92Zm2.68,7.57s-1.72,1.91-2.43-1.32a2.86,2.86,0,0,0-1.8-3.47,4.61,4.61,0,0,0-1.77-1.38s-0.82-.74.92-0.63A6.66,6.66,0,0,1,97.38,71.49Zm-1.56,8.85c-5.21,4-8.34,1-7.71-.37S88,76.09,88,76.09a5.13,5.13,0,0,0,2.28.9c6.11,0.61,5.2-1.76,5.2-1.76-3.43,1.64-4,.63-5.66.21s-3.42-1.43-2.2-1.67S90.58,72,90.26,70.7s-0.07-3.06,1.48-3.13,1.77,1.75,1.77,1.75a3.84,3.84,0,0,1-.17,2.21c0.19,1.39,2.41,1.63,2.41,1.63,1.88-.37,1.53.9,1.53,0.9a2.74,2.74,0,0,0-.54,1.83A4,4,0,0,1,95.81,80.33Zm-6.72,3.19a6.39,6.39,0,0,0,5.3-.88c-1.42,2.3-6.56,5.18-7.12,2.67S89.09,83.52,89.09,83.52Zm-5.91,2A5.21,5.21,0,0,0,86,85.11c1,1.89.13,2.22-1.38,2.52s-2.09,0-2.59-1S83.19,85.5,83.19,85.5Zm-2.73-2.09S80.17,82,79.18,81.87c0,0-.4-1.27,1.23-1,0,0,3.13-.46,4.28-1.51s-0.1-.88-1.12-0.38a10.84,10.84,0,0,1-6.61.69s-1.42-.4,1.62-1.67,2.61-3.13,6.86-3.22c0,0,2.62,1.13,1.16,4.79,0,0,1.1,2.18.38,3.45C87,83,82.1,85.71,80.45,83.41ZM36.25,84.6c-0.3-1.8,1.81-3.11,2.8-3.19a15.46,15.46,0,0,1,4.43,1.1c1.74,0.56.81,1.25,1.95,2.48a5.67,5.67,0,0,1,1.19,1.51c-0.46-.36-2-0.11-3.22.18s-0.35.8-.35,0.8c2,0.8,7-2,7.16,1.58s-3.07,3-4.68,3.1-3.67-.68-5.44.05-0.6,1.24-.6,1.24C41,92.71,44,93.08,45.71,93s2.37,0.32,2.71,2.06,0.76,1.59,1.21,1.28-0.79-2.88-.23-3.49S52.11,91,51.86,89.7A1.58,1.58,0,0,1,52.2,88a16.72,16.72,0,0,0,3.48-.9,8.74,8.74,0,0,1,5.25-1.59c1.94-.15,2.57,1.07,5.13,1.24a17.25,17.25,0,0,1,4.51.92c2.35,1.67,3.71,2.31,6,2.2S78,88.92,78,88.92a4.43,4.43,0,0,1-3.59-.25c-1.13-.9.27-1.79,0.63-2.82s-0.54-.74-0.54-0.74c-1.49.41-.21,2.4-2,2.58s-1.82-1.55-3.71-1.75A13.82,13.82,0,0,1,63,84c-1.37-1-.39-1.72-1.26-3.29S61.18,79,61.4,77.83s-1.74,0-1.12,2.3,1.85,1.72.16,3.4-2.34.4-2.63-.78-1.16-.45-1.15-1.57,0-1.46,0-1.46c-1.13-.62-1,1.09-0.82,2.41s2,2.92-1.09,3.92-6.81.54-7.74-1.35a7.72,7.72,0,0,0-4.19-3.62c-1.52-.6-1.61-0.47-2-2.25s1.74-3.77,2.75-4a0.67,0.67,0,0,0,.52-1.06c-3.3.36-3.7,3.2-4.25,4.15s0.48,3.05-1.72,1.85-3.26-5.21-3.49-6.34-0.13-1.55-.86-1.52c-1.33.05,0.73,4.86,2.24,7.15s1.25,2.06.07,2.35-4.29-.68-6.15-5.6,0.73-5.48-1-5.31,0.38,7.12.38,7.12c0.94,0.77.43,1.32,0.43,1.32-1.31-.7-3.42,1.17-3.42,1.17-0.66.92-1.75-.61-1.43-1,0.63-.8.67-1.76,0.09-4.4s-0.28-2.87,1-6.48,2.1-3.05,3-3.22,2,2.09,1.93,3.56-1.34,2.9-.25,5.61S32.15,76,32.15,76c-0.4-.6-0.72-4.25-0.72-4.25,1.39-3.53-.14-5.59-0.75-7s-1.89-.75-2.07-1.39,1.21-1.87,2.82-1.39,0.72,2.22,2.21,3.28,1,1.31,1,1.31a4.47,4.47,0,0,0-1.73.34c-0.34.85,0.92,0.66,2.25,0.85s1.72,4.21,1.91,5.75-0.3,2.19.4,2.06,0.65-3,0-6.4S34.5,64.71,34,63s1.2-2.76,1.66-3.3,1.35-2-.49-0.8-1.36,1.67-1.89,1.83-0.81-.4-1.79-0.21a1.61,1.61,0,0,1-1.18,0c0.32-2.09,3-2.15,3-2.15a7.57,7.57,0,0,0,4.52-1.61c1.49-1.58,3.53.26,2.46,0.81a12.77,12.77,0,0,0-3.48,2.87c-0.45.31-1.06,1.22-.08,1a4.94,4.94,0,0,0,2.08-1.7c2.55-1.34,3.93-1.44,4.61-.28s0.61,3.42-.73,4-1.09,2.46-1.09,2.46c0.43,1.32.74,0,.88-0.68s2.36-1.7,3.18-.11,1.51,1.11,1.51,1.11c2.85-.05,4.14,2.22,4.94,3.13s3.23,3.3,2.49,5-2.24-.52-2.24-0.52c-1.89-1.6-2.37-.32-3.94-0.3s-0.4-2.06-2.76-2-3.68-2.71-3.68-2.71A1.37,1.37,0,0,1,40.7,68a8,8,0,0,1,.3-6.52c0.4-.81-0.08-1-0.08-1-1.3.25-2.31,4-2,5.33A8.66,8.66,0,0,1,39,68.72c-0.78,0-.45.59-0.45,0.59a3.91,3.91,0,0,0,1.44.17c1.89-.09,4,3.43,4.92,3.59s1.45,1.4,1,1.82-2,2.48-3.52,3S42,78.65,42,78.65c1,0,3.05-1,4.89-2.87s3.06-1.33,3.06-1.33c2.06-.4,2.5,1.87,2.39,2.45a40.27,40.27,0,0,1-1,4.19c-0.31.73-.39,2,0.58,1s0.62-3.72,2.35-5.52S57,76.3,57,76.3c0.52,0.35,1,1.82,1.8,1.15a4.7,4.7,0,0,1,2.24-.81,3.55,3.55,0,0,0,2.09.72c2.83-.48,3.91.81,3.91,0.81a2.4,2.4,0,0,0,2.75,1.79c4-1.91,5.49.5,5.49,0.5a5,5,0,0,1,3.7,2.8A3,3,0,0,0,79.2,85c1.49,0.72,2,3.21,2,3.21-0.28,7.19-2.64,3.78-4.47,5.6a4.59,4.59,0,0,1-5.14,1.29c-1.46-.56-4.14.08-5.27,0.36s-1.06-1.09-1.44-1.35-0.57.56-.32,1.52,3.09,0.86,4.57.68,1.87,0.65,1.63,1.14-1.1,1.28-4.44.31-5,.48-8.2.31-1.3-1.49,0-2.93,1.28-2.38,3.38-2.85,2.55,0.12,4.49.86S67.46,93,67.46,93c-1.52-2.29-5.4-1.75-6.25-1.76s-0.61-1.4-.61-1.4c0.19-.77-0.38-0.77-0.38-0.77a9,9,0,0,0-1.16,2.42c-2.9,4.72-5.21,5.23-5.21,5.23-5.48,1-6.34.06-7.51-.44a1.09,1.09,0,0,1-.44-1.66c-0.19-1-.81-0.12-0.81-0.12-1.52,1.42,1,2.06-.72,2.33s-3.77-.9-5.36-2.72S36.55,86.4,36.25,84.6ZM31.11,92c0.29-.81.43-2-0.18-4.39s-0.16-2.74,1.79-3.12,2.75,1.79,2.75,1.79c1,7.45,2.07,7.91,2.07,7.91-0.88.47-1.63-.28-2.52-1s-1.07-.84-0.57-1.39S34.3,89.14,34,87.93s-1.47-1.74-1.14-.08,0.72,3.68-.44,4.66S30.82,92.82,31.11,92Zm-4.57-3.08c-1.33-1.84-.65-4.07-0.42-6s4.13-3.8,4.87-2.67,1.06,1.21,2.79,1.63,1.06,1.59,1.06,1.59a2,2,0,0,1-1.41-.7,3.84,3.84,0,0,0-2.66.6c-1.45,1.78-1.76.57-2.77,0s-1.38-.55-1,0.05a6.26,6.26,0,0,0,1.62,1.4c1.31,0.2,1.59,6.21,1.59,6.21-0.27,3.2-.94,1.68-0.94,1.68C28.82,90.29,27.87,90.78,26.54,88.94Zm-4.25-2.17c-1.21-10.78,1.3-14,1.3-14,0.4,0.15.72,4.81,0.72,4.81-0.88.85-1.21,3.38-.55,3.33a1.1,1.1,0,0,1,.9,1.55,7.47,7.47,0,0,0-.44,2.71c1,6.55.85,4,2.89,6.7s-0.5,2.42-.5,2.42C23.33,94,22.29,86.77,22.29,86.77Z"/><path class="cls-4" d="M47.24,58.81c1.84,2.49,2.54.33,4,0s1.27,0.73.89,0.72a4.57,4.57,0,0,0-1.14.3,3.37,3.37,0,0,0-1.14.67c-0.84.31-1,.95-1.68,0.63s-1.32-.27-1.52-1.65S47.24,58.81,47.24,58.81Z"/><path class="cls-5" d="M66.53,81.48s3.78-5.05,8.58-5c0,0,11.29,0,11.47-10.46,0,0,5.2-4.93,3.81-7.78a36.64,36.64,0,0,1,3.71,9.29c1.21,5.12,1.13,11.2-4,15,0,0-.87,2.8,3,1.71,0,0-10.22,6.06-16.15,6.11,0,0-5.75,7.26-17.9,7.13,0,0-19.92.44-31.17-8.44a40.72,40.72,0,0,1-1.41-8.64c-0.26-4.83.38-10.66,4-14.71a44.4,44.4,0,0,0,6,10.57c4.09,5.35,10.38,10.85,19.18,11.41C55.52,87.68,55,82.52,66.53,81.48Z"/><path class="cls-6" d="M90.34,59.05a34.45,34.45,0,0,1,2.81,6.88c0.2,0.71.39,1.44,0.55,2.2,1,5,.83,10.82-4.26,14.51,0,0-.81,2.68,2.8,1.71,0,0.1-9.68,6-15.46,6,0,0-4.92,6.21-15.57,6.89a17.56,17.56,0,0,1-2.2,0c-0.29,0-19.86.29-30.92-8.27a36.75,36.75,0,0,1-1.37-8.49,25.64,25.64,0,0,1,1.1-8.87,11.94,11.94,0,0,1,3-5.06s0.65,1.68,1.91,4a43.75,43.75,0,0,0,4.11,6.24C40.14,81,44.8,85.16,51,87a17.85,17.85,0,0,0,4.79.67c0.08-.05-0.16-4.38,9-5.74,0.58-.09,1.22-0.18,1.93-0.27,0.08,0,3.78-4.87,8.47-4.82,0,0,10.07-.15,11.41-10.14l0.53-.57C88.28,64.78,91.45,61.26,90.34,59.05Z"/><path class="cls-7" d="M90.31,59.85a33,33,0,0,1,2.54,6.74c0.18,0.69.33,1.4,0.47,2.14,0.87,4.79.54,10.44-4.48,14,0,0-.76,2.57,2.63,1.72,0,0.21-9.14,5.85-14.77,5.91,0,0-4.8,6.06-15.46,6.72a16.83,16.83,0,0,1-2.18,0c-0.59,0-19.8.14-30.66-8.09a33.29,33.29,0,0,1-1.34-8.34,24.54,24.54,0,0,1,1.27-8.63,9.48,9.48,0,0,1,3-4.52c0.08,0.08.69,1.67,1.94,3.9a42,42,0,0,0,4.13,6,28.36,28.36,0,0,0,14,9.62,14.75,14.75,0,0,0,4.62.46c0.17-.1.08-4.22,8.91-5.51l1.88-.3c0.16-.1,3.79-4.69,8.35-4.65,0,0,10-.17,11.36-9.83,0,0,.2-0.23.5-0.57C88.13,65.46,91.41,62,90.31,59.85Z"/><path class="cls-8" d="M90.27,60.65a31.14,31.14,0,0,1,2.28,6.6c0.15,0.67.28,1.37,0.39,2.08,0.7,4.62.25,10.06-4.7,13.51,0,0-.7,2.45,2.46,1.72,0,0.31-8.6,5.74-14.08,5.81,0,0-4.68,5.87-15.35,6.54a16.54,16.54,0,0,1-2.15,0c-0.88-.06-19.74,0-30.4-7.91a30.25,30.25,0,0,1-1.3-8.18,23.5,23.5,0,0,1,1.44-8.39,7.48,7.48,0,0,1,3-4c0.11,0.13.73,1.66,2,3.79a40.32,40.32,0,0,0,4.16,5.83,28.29,28.29,0,0,0,13.88,9.17,12.54,12.54,0,0,0,4.44.24c0.25-.16.34-4,8.84-5.29,0.51-.07,1.12-0.2,1.83-0.33,0.24-.14,3.79-4.51,8.24-4.48,0,0,10-.19,11.3-9.52a4.56,4.56,0,0,1,.48-0.57C88,66.15,91.38,62.76,90.27,60.65Z"/><path class="cls-9" d="M90.23,61.45a29.3,29.3,0,0,1,2,6.45c0.12,0.65.23,1.33,0.31,2,0.53,4.45,0,9.68-4.93,13,0,0-.64,2.33,2.28,1.72,0,0.42-8.06,5.64-13.39,5.71,0,0-4.56,5.7-15.24,6.36a16.15,16.15,0,0,1-2.13,0C58,96.66,39.46,96.59,29,89a27.56,27.56,0,0,1-1.26-8,22.52,22.52,0,0,1,1.61-8.16,5.87,5.87,0,0,1,3-3.43c0.15,0.17.77,1.65,2,3.68a38.68,38.68,0,0,0,4.18,5.63,28.26,28.26,0,0,0,13.76,8.72,10.93,10.93,0,0,0,4.27,0c0.33-.21.59-3.86,8.78-5.06A7.36,7.36,0,0,0,67.06,82c0.35-.14,3.8-4.33,8.13-4.31,0,0,9.93-.21,11.24-9.21a3.28,3.28,0,0,1,.45-0.57C87.84,66.84,91.34,63.51,90.23,61.45Z"/><path class="cls-10" d="M90.19,62.25a27.52,27.52,0,0,1,1.74,6.31c0.1,0.63.17,1.29,0.23,2C92.53,74.8,91.82,79.81,87,83c0,0-.58,2.21,2.11,1.73-0.05.52-7.52,5.53-12.7,5.61,0,0-4.44,5.54-15.13,6.19a15.87,15.87,0,0,1-2.11,0c-1.46-.1-19.62-0.3-29.89-7.56a25.54,25.54,0,0,1-1.23-7.87,21.73,21.73,0,0,1,1.78-7.92,4.61,4.61,0,0,1,2.94-2.89c0.19,0.21.81,1.64,2,3.56A37.08,37.08,0,0,0,39,79.3a28.29,28.29,0,0,0,13.65,8.26,9.78,9.78,0,0,0,4.09-.18c0.42-.26.84-3.69,8.71-4.83a6.85,6.85,0,0,0,1.74-.39C67.63,82,71,78,75.21,78c0,0,9.89-.22,11.19-8.9a2.61,2.61,0,0,1,.42-0.57C87.69,67.53,91.3,64.25,90.19,62.25Z"/><path class="cls-11" d="M90.15,63a25.8,25.8,0,0,1,1.48,6.17c0.07,0.61.12,1.25,0.15,1.9,0.2,4.12-.63,8.92-5.38,12,0,0-.52,2.09,1.93,1.73-0.06.63-7,5.43-12,5.51,0,0-4.32,5.37-15,6a15.71,15.71,0,0,1-2.08,0c-1.76-.13-19.56-0.45-29.63-7.38a23.4,23.4,0,0,1-1.19-7.72,20.9,20.9,0,0,1,1.95-7.68,3.66,3.66,0,0,1,2.92-2.35c0.23,0.25.86,1.63,2,3.45a35.54,35.54,0,0,0,4.23,5.22,28.39,28.39,0,0,0,13.54,7.81c1,0.26,2,0,3.92-.4,0.5-.31,1.09-3.51,8.65-4.61a6.45,6.45,0,0,0,1.69-.42c0.52-.22,3.81-4,7.91-4,0,0,9.84-.24,11.13-8.59a2.2,2.2,0,0,1,.4-0.58C87.54,68.22,91.27,65,90.15,63Z"/><path class="cls-12" d="M90.11,63.84a24.15,24.15,0,0,1,1.21,6c0,0.59.06,1.21,0.07,1.85,0,3.95-.93,8.54-5.6,11.52,0,0-.47,2,1.76,1.73-0.07.73-6.44,5.32-11.32,5.41,0,0-4.2,5.21-14.91,5.84a15.67,15.67,0,0,1-2.06,0c-2-.16-19.5-0.6-29.38-7.21a21.46,21.46,0,0,1-1.15-7.57A20.13,20.13,0,0,1,30.84,74a3,3,0,0,1,2.9-1.8c0.27,0.29.9,1.62,2.07,3.34a34.05,34.05,0,0,0,4.25,5,28.57,28.57,0,0,0,13.43,7.36,5.61,5.61,0,0,0,3.74-.61c0.63-.27,1.34-3.34,8.58-4.38a6.17,6.17,0,0,0,1.64-.45c0.61-.27,3.81-3.8,7.79-3.8,0,0,9.79-.26,11.07-8.27a1.93,1.93,0,0,1,.37-0.58C87.39,68.91,91.23,65.75,90.11,63.84Z"/><path class="cls-13" d="M90.07,64.64A22.58,22.58,0,0,1,91,70.52c0,0.57,0,1.17,0,1.79-0.12,3.77-1.22,8.16-5.83,11a1.37,1.37,0,0,0,1.58,1.74c-0.08.84-5.9,5.22-10.63,5.31,0,0-4.08,5-14.81,5.66a15.78,15.78,0,0,1-2,0C57,95.8,39.85,95.24,30.17,89a19.71,19.71,0,0,1-1.12-7.41,19.45,19.45,0,0,1,2.29-7.21c0.49-1,1.24-1.35,2.87-1.26,0.31,0.33,1,1.61,2.1,3.23a32.64,32.64,0,0,0,4.27,4.81A28.84,28.84,0,0,0,53.9,88c0.84,0.2,1.74,0,3.57-.82C58.19,86.87,59.06,84,66,83a6,6,0,0,0,1.59-.48c0.69-.31,3.82-3.62,7.68-3.63,0,0,9.75-.28,11-8a1.76,1.76,0,0,1,.34-0.58C87.25,69.61,91.2,66.5,90.07,64.64Z"/><path class="cls-14" d="M90,65.44a21.09,21.09,0,0,1,.67,5.73c0,0.56,0,1.13-.09,1.73-0.28,3.6-1.51,7.78-6.05,10.52A1.38,1.38,0,0,0,86,85.16c-0.09.94-5.36,5.11-9.94,5.21,0,0-4,4.87-14.7,5.49a16.06,16.06,0,0,1-2-.06c-2.63-.21-19.38-0.89-28.86-6.86a18.12,18.12,0,0,1-1.08-7.26c0.15-2.26,1.2-4.49,2.46-7,0.45-.89,1.19-1,2.85-0.72,0.34,0.38,1,1.6,2.12,3.12a31.29,31.29,0,0,0,4.3,4.61,29.22,29.22,0,0,0,13.2,6.45c0.75,0.17,1.53-.16,3.39-1,0.8-.38,1.84-3,8.45-3.93a5.94,5.94,0,0,0,1.55-.51c0.77-.36,3.83-3.44,7.57-3.46,0,0,9.7-.29,11-7.65A1.65,1.65,0,0,1,86.56,71C87.1,70.3,91.16,67.25,90,65.44Z"/><path class="cls-15" d="M90,66.24a19.7,19.7,0,0,1,.41,5.59c0,0.54-.1,1.09-0.17,1.67a12.74,12.74,0,0,1-6.28,10,1.41,1.41,0,0,0,1.23,1.74c-0.1,1-4.82,5-9.25,5.11,0,0-3.84,4.71-14.59,5.31a16.56,16.56,0,0,1-2-.07c-2.92-.24-19.32-1-28.61-6.68a16.67,16.67,0,0,1-1-7.1,12,12,0,0,1,2.63-6.73c0.26-.84,1.15-0.69,2.83-0.18,0.38,0.42,1,1.59,2.15,3a30,30,0,0,0,4.32,4.41,29.72,29.72,0,0,0,13.09,6c0.65,0.14,1.33-.32,3.22-1.25,0.88-.44,2.09-2.83,8.39-3.7a6,6,0,0,0,1.5-.54c0.85-.41,3.83-3.26,7.46-3.29,0,0,9.65-.31,10.9-7.34a1.58,1.58,0,0,1,.29-0.58C87,71,91.12,68,90,66.24Z"/><path class="cls-16" d="M90,67a18.4,18.4,0,0,1,.14,5.45C90,73,90,73.54,89.85,74.09a13,13,0,0,1-6.5,9.52,1.5,1.5,0,0,0,1.06,1.75c-0.12,1.15-4.28,4.9-8.56,5,0,0-3.71,4.54-14.48,5.13a17.36,17.36,0,0,1-2-.08c-3.22-.27-19.26-1.19-28.35-6.5A15.34,15.34,0,0,1,30,82a11.24,11.24,0,0,1,2.8-6.5c0.22-.72,1.1-0.36,2.81.36,0.42,0.46,1.1,1.57,2.18,2.9a28.85,28.85,0,0,0,4.34,4.2c3.22,2.58,7.57,4.43,13,5.55,0.56,0.12,1.13-.48,3-1.46,1-.5,2.34-2.65,8.33-3.47A6.29,6.29,0,0,0,68,83c0.93-.46,3.84-3.08,7.35-3.12,0,0,9.61-.33,10.85-7a1.55,1.55,0,0,1,.26-0.58C86.82,71.69,91.09,68.74,90,67Z"/><path class="cls-17" d="M89.92,67.83a17.21,17.21,0,0,1-.13,5.3c-0.09.5-.2,1-0.33,1.55a13.28,13.28,0,0,1-6.72,9,1.66,1.66,0,0,0,.89,1.75c-0.13,1.25-3.74,4.8-7.87,4.91,0,0-3.59,4.37-14.37,5a18.6,18.6,0,0,1-1.94-.1c-3.51-.31-19.2-1.34-28.09-6.33a14.12,14.12,0,0,1-1-6.8,10.57,10.57,0,0,1,3-6.26c0.18-.6,1.24-0.31,2.79.91,0.54,0.42,1.15,1.56,2.2,2.78a27.78,27.78,0,0,0,4.36,4c3.21,2.42,7.53,4,12.87,5.1C56,88.73,56.5,88,58.45,87a15.47,15.47,0,0,1,8.26-3.25,6.86,6.86,0,0,0,1.4-.61c1-.52,3.84-2.9,7.23-2.95,0,0,9.56-.34,10.79-6.71a1.57,1.57,0,0,1,.24-0.59C86.68,72.39,91.05,69.49,89.92,67.83Z"/><path class="cls-18" d="M89.88,68.63a16.13,16.13,0,0,1-.39,5.16c-0.11.48-.25,1-0.41,1.49a13.73,13.73,0,0,1-6.95,8.52,2,2,0,0,0,.71,1.75c-0.14,1.36-3.2,4.69-7.18,4.81,0,0-3.47,4.21-14.26,4.78-0.17,0-.86,0-1.91-0.11-3.8-.34-19.14-1.49-27.84-6.15a13,13,0,0,1-.93-6.64,10,10,0,0,1,3.14-6c0.15-.48,1.17.09,2.77,1.45,0.56,0.48,1.2,1.55,2.23,2.67a26.81,26.81,0,0,0,4.39,3.79c3.21,2.26,7.49,3.66,12.76,4.64,0.38,0.07.71-.79,2.69-1.89a16.57,16.57,0,0,1,8.2-3,8,8,0,0,0,1.35-.64c1.09-.58,3.85-2.72,7.12-2.78,0,0,9.51-.35,10.73-6.4a4.24,4.24,0,0,1,.21-0.59C86.61,73.15,91,70.24,89.88,68.63Z"/><path class="cls-19" d="M89.84,69.43a15.16,15.16,0,0,1-.66,5c-0.14.46-.3,0.94-0.49,1.43a14.35,14.35,0,0,1-7.17,8,2.7,2.7,0,0,0,.54,1.76c-0.15,1.46-2.66,4.59-6.49,4.72,0,0-3.35,4-14.15,4.61-0.13,0-.81,0-1.89-0.12-4.09-.37-19.08-1.63-27.58-6a12,12,0,0,1-.9-6.49,9.46,9.46,0,0,1,3.31-5.79c0.11-.36,1.1.47,2.75,2,0.58,0.54,1.26,1.53,2.26,2.56a26,26,0,0,0,4.41,3.59C47,86.86,51.22,88,56.42,88.94c0.28,0,.51-0.95,2.52-2.11A17.65,17.65,0,0,1,67.07,84a10.62,10.62,0,0,0,1.31-.67c1.16-.63,3.85-2.54,7-2.61,0,0,9.47-.36,10.68-6.09,0-.16.11-0.36,0.18-0.59C86.47,73.84,91,71,89.84,69.43Z"/><path class="cls-20" d="M89.8,70.23a14.31,14.31,0,0,1-.93,4.87c-0.16.44-.35,0.9-0.57,1.37A15.16,15.16,0,0,1,80.91,84a4.67,4.67,0,0,0,.36,1.76,6,6,0,0,1-5.81,4.62s-3.23,3.87-14,4.43c-0.08,0-.76,0-1.87-0.14-4.38-.41-19-1.78-27.33-5.8a11,11,0,0,1-.86-6.33A9,9,0,0,1,34.86,77c0.07-.24,1,0.85,2.73,2.53C38.19,80.11,38.9,81,39.87,82a25.28,25.28,0,0,0,4.43,3.38c3.2,2,7.4,2.89,12.53,3.74a6.57,6.57,0,0,1,2.34-2.32,18.66,18.66,0,0,1,8.07-2.57c0.07,0,.53-0.29,1.26-0.7,1.24-.69,3.86-2.36,6.9-2.44,0,0,9.42-.37,10.62-5.78,0-.17.1-0.37,0.16-0.59S90.94,71.73,89.8,70.23Z"/><path class="cls-21" d="M89.77,71a13.58,13.58,0,0,1-1.19,4.73q-0.28.64-.64,1.31a16.24,16.24,0,0,1-7.62,7,12.6,12.6,0,0,1,.19,1.76c0,1.68-1.58,4.38-5.12,4.52,0,0-3.11,3.71-13.94,4.25,0,0-.71,0-1.84-0.15-4.67-.45-19-1.93-27.07-5.62a10.14,10.14,0,0,1-.82-6.18,8.63,8.63,0,0,1,3.65-5.31c0-.12.93,1.23,2.71,3.08,0.63,0.65,1.37,1.49,2.31,2.34A24.76,24.76,0,0,0,44.83,86c3.19,1.8,7.35,2.5,12.42,3.29a4.27,4.27,0,0,1,2.17-2.53c1.34-.82,3.59-1.79,8-2.34,0,0,.48-0.31,1.21-0.73a14.84,14.84,0,0,1,6.79-2.26S84.8,81,86,75.91c0-.18.09-0.38,0.13-0.59S90.91,72.48,89.77,71Z"/><path class="cls-22" d="M67.61,84.54a15.33,15.33,0,0,1,7.84-2.85s10.08-.42,10.61-5.75c0,0,4.82-2.7,3.67-4.11a13,13,0,0,1-1.46,4.58,17.25,17.25,0,0,1-8.57,7.78s0.88,6-4.41,6.18c0,0-3,3.72-13.83,4.08,0,0-18.89-1.46-28.63-5.61,0,0-3.65-6.72,3-11.1a21.7,21.7,0,0,0,5,5.85A25.4,25.4,0,0,0,57.67,89.4S57.32,85.48,67.61,84.54Z"/><g class="cls-23"><ellipse class="cls-24" cx="70.87" cy="86.99" rx="7.02" ry="10.43" transform="translate(-36.41 119.87) rotate(-67.87)"/><ellipse class="cls-25" cx="70.86" cy="87" rx="6.87" ry="10.26" transform="translate(-36.43 119.87) rotate(-67.87)"/><ellipse class="cls-26" cx="70.85" cy="87.01" rx="6.71" ry="10.09" transform="translate(-36.44 119.86) rotate(-67.87)"/><ellipse class="cls-27" cx="70.84" cy="87.02" rx="6.56" ry="9.92" transform="translate(-36.45 119.85) rotate(-67.87)"/><ellipse class="cls-28" cx="70.83" cy="87.03" rx="6.4" ry="9.74" transform="translate(-36.47 119.85) rotate(-67.87)"/><ellipse class="cls-29" cx="70.82" cy="87.03" rx="6.24" ry="9.57" transform="translate(-36.48 119.84) rotate(-67.87)"/><ellipse class="cls-30" cx="70.81" cy="87.04" rx="6.09" ry="9.4" transform="translate(-36.5 119.84) rotate(-67.86)"/><ellipse class="cls-31" cx="70.8" cy="87.05" rx="5.93" ry="9.23" transform="translate(-36.51 119.83) rotate(-67.86)"/><ellipse class="cls-32" cx="70.79" cy="87.06" rx="5.77" ry="9.06" transform="translate(-36.52 119.82) rotate(-67.86)"/><path class="cls-33" d="M79,90.41c-1.17,2.88-5.8,3.71-10.35,1.86s-7.29-5.68-6.12-8.56,5.8-3.71,10.35-1.86S80.18,87.54,79,90.41Z"/><path class="cls-34" d="M78.85,90.36c-1.13,2.8-5.67,3.59-10.13,1.78s-7.16-5.55-6-8.35S68.36,80.19,72.82,82,80,87.56,78.85,90.36Z"/><path class="cls-35" d="M78.68,90.3c-1.1,2.72-5.54,3.48-9.91,1.7s-7-5.42-5.93-8.14,5.54-3.48,9.91-1.69S79.78,87.59,78.68,90.3Z"/><path class="cls-36" d="M78.51,90.24c-1.07,2.64-5.41,3.36-9.69,1.62s-6.89-5.3-5.83-7.93,5.41-3.36,9.7-1.61S79.58,87.61,78.51,90.24Z"/><path class="cls-37" d="M78.34,90.19c-1,2.56-5.28,3.24-9.48,1.54S62.1,86.56,63.14,84s5.28-3.24,9.48-1.53S79.38,87.63,78.34,90.19Z"/><path class="cls-38" d="M78.17,90.13c-1,2.48-5.15,3.13-9.26,1.46s-6.63-5-5.63-7.51,5.15-3.13,9.26-1.45S79.18,87.66,78.17,90.13Z"/><path class="cls-39" d="M78,90.07c-1,2.4-5,3-9,1.38s-6.5-4.91-5.53-7.3,5-3,9-1.37S79,87.68,78,90.07Z"/><path class="cls-40" d="M77.84,90c-0.94,2.32-4.89,2.9-8.82,1.3s-6.37-4.78-5.43-7.1,4.89-2.9,8.83-1.29S78.77,87.7,77.84,90Z"/><path class="cls-41" d="M77.67,90c-0.9,2.24-4.76,2.78-8.61,1.21s-6.24-4.65-5.33-6.89,4.76-2.78,8.61-1.21S78.57,87.73,77.67,90Z"/></g></g></g></svg>