<svg id="Picture" xmlns="http://www.w3.org/2000/svg" xmlns:xlink="http://www.w3.org/1999/xlink" viewBox="0 0 127.66 170.5"><defs><style>.cls-1,.cls-5,.cls-7,.cls-8,.cls-9{fill:none;}.cls-2{clip-path:url(#clip-path);}.cls-3,.cls-4{fill:#fff;}.cls-4{opacity:0.5;}.cls-5{stroke:#fff;stroke-width:1.5px;}.cls-5,.cls-7,.cls-8,.cls-9{stroke-miterlimit:10;}.cls-6{fill:#e1cbd1;}.cls-7,.cls-8,.cls-9{stroke:#e1cbd1;}.cls-7{stroke-width:2px;}.cls-8{stroke-width:0.25px;}</style><clipPath id="clip-path"><rect class="cls-1" x="1.17" y="21.52" width="86.61" height="131.12"/></clipPath></defs><title>Alzheimers</title><rect class="cls-1" width="127.66" height="170.5"/><g class="cls-2"><path class="cls-3" d="M0,32.52c-1.16-1.18-3.3-2.18-7.25-1.51l-8.3,1.59s-3.17,1.47-3.42,2.12a16,16,0,0,0-16.52,5l-0.49,1a2.52,2.52,0,0,1-1.79,1.46s-5.45,2-7.08,4.15a14.15,14.15,0,0,0-6.43,7.16S-55,55.95-54.4,59.69a8.55,8.55,0,0,0-3,4.39,7.94,7.94,0,0,0-2.69,3.66,14.86,14.86,0,0,0-4.07,6.51s-3.34,5.53-1.55,9.19l1,1.14s1.55,1.22-.16,3c0,0-4,4.15.89,12a13.91,13.91,0,0,0,.16,11.47,8.5,8.5,0,0,0-.73,7.32l0.81,2.28a27.66,27.66,0,0,1,.65,3.74s0.73,2.93,2.06,4.2l0.22,0.19A12.81,12.81,0,0,1-59,130.39s-2.36,4.15,5.37,9.52c0,0,3.34,7.24,8.71,5.45,0,0,5.45-1,7.16-.49,0,0,4.23,1.47,5.78.16,0,0,8.38-.32,11.23-3.25,0,0,5-1.87,5-6.43,0,0-.41-2.44,1.22-2.93,0,0,5.29-2.28,3.9-11.47a5.18,5.18,0,0,0,2.69,2.11l0.41,0.17s1.55,4.64,5.13,5.29a4.08,4.08,0,0,0,2.17.63H0.46a4.06,4.06,0,0,0,2.17-.63c3.58-.65,5.13-5.29,5.13-5.29l0.41-.17A5.18,5.18,0,0,0,10.85,121c-1.38,9.19,3.9,11.47,3.9,11.47,1.63,0.49,1.22,2.93,1.22,2.93,0,4.56,5,6.43,5,6.43,2.85,2.93,11.23,3.25,11.23,3.25,1.54,1.3,5.78-.16,5.78-0.16,1.71-.49,7.16.49,7.16,0.49,5.37,1.79,8.7-5.45,8.7-5.45,7.73-5.37,5.37-9.52,5.37-9.52A12.89,12.89,0,0,1,61,128.85l0.22-.19c1.33-1.27,2.06-4.2,2.06-4.2a27.74,27.74,0,0,1,.65-3.74l0.82-2.28a8.49,8.49,0,0,0-.73-7.32,13.92,13.92,0,0,0,.16-11.47c4.88-7.89.89-12,.89-12-1.71-1.79-.16-3-0.16-3l1-1.14c1.79-3.66-1.55-9.19-1.55-9.19a14.86,14.86,0,0,0-4.07-6.51,8,8,0,0,0-2.68-3.66,8.55,8.55,0,0,0-3-4.39c0.57-3.74-3.17-6.26-3.17-6.26A14.16,14.16,0,0,0,45,46.27c-1.63-2.19-7.08-4.15-7.08-4.15a2.52,2.52,0,0,1-1.79-1.46l-0.49-1a16,16,0,0,0-16.52-5c-0.25-.65-3.42-2.12-3.42-2.12L7.43,31C3.5,30.34,1.36,31.33.2,32.5Z"/><path class="cls-4" d="M0,32.52c-1.16-1.18-3.3-2.18-7.25-1.51l-8.3,1.59s-3.17,1.47-3.42,2.12a16,16,0,0,0-16.52,5l-0.49,1a2.52,2.52,0,0,1-1.79,1.46s-5.45,2-7.08,4.15a14.15,14.15,0,0,0-6.43,7.16S-55,55.95-54.4,59.69a8.55,8.55,0,0,0-3,4.39,7.94,7.94,0,0,0-2.69,3.66,14.86,14.86,0,0,0-4.07,6.51s-3.34,5.53-1.55,9.19l1,1.14s1.55,1.22-.16,3c0,0-4,4.15.89,12a13.91,13.91,0,0,0,.16,11.47,8.5,8.5,0,0,0-.73,7.32l0.81,2.28a27.66,27.66,0,0,1,.65,3.74s0.73,2.93,2.06,4.2l0.22,0.19A12.81,12.81,0,0,1-59,130.39s-2.36,4.15,5.37,9.52c0,0,3.34,7.24,8.71,5.45,0,0,5.45-1,7.16-.49,0,0,4.23,1.47,5.78.16,0,0,8.38-.32,11.23-3.25,0,0,5-1.87,5-6.43,0,0-.41-2.44,1.22-2.93,0,0,5.29-2.28,3.9-11.47a5.18,5.18,0,0,0,2.69,2.11l0.41,0.17s1.55,4.64,5.13,5.29a4.08,4.08,0,0,0,2.17.63H0.46a4.06,4.06,0,0,0,2.17-.63c3.58-.65,5.13-5.29,5.13-5.29l0.41-.17A5.18,5.18,0,0,0,10.85,121c-1.38,9.19,3.9,11.47,3.9,11.47,1.63,0.49,1.22,2.93,1.22,2.93,0,4.56,5,6.43,5,6.43,2.85,2.93,11.23,3.25,11.23,3.25,1.54,1.3,5.78-.16,5.78-0.16,1.71-.49,7.16.49,7.16,0.49,5.37,1.79,8.7-5.45,8.7-5.45,7.73-5.37,5.37-9.52,5.37-9.52A12.89,12.89,0,0,1,61,128.85l0.22-.19c1.33-1.27,2.06-4.2,2.06-4.2a27.74,27.74,0,0,1,.65-3.74l0.82-2.28a8.49,8.49,0,0,0-.73-7.32,13.92,13.92,0,0,0,.16-11.47c4.88-7.89.89-12,.89-12-1.71-1.79-.16-3-0.16-3l1-1.14c1.79-3.66-1.55-9.19-1.55-9.19a14.86,14.86,0,0,0-4.07-6.51,8,8,0,0,0-2.68-3.66,8.55,8.55,0,0,0-3-4.39c0.57-3.74-3.17-6.26-3.17-6.26A14.16,14.16,0,0,0,45,46.27c-1.63-2.19-7.08-4.15-7.08-4.15a2.52,2.52,0,0,1-1.79-1.46l-0.49-1a16,16,0,0,0-16.52-5c-0.25-.65-3.42-2.12-3.42-2.12L7.43,31C3.5,30.34,1.36,31.33.2,32.5Z"/><path class="cls-5" d="M-0.25,77.46a13,13,0,0,1-2.21-.11L-7,76.71s-5.61-2.28-2-3.1c0,0,2-.06,2.45,0,0,0,3.27.58,2.69-1.81a3.52,3.52,0,0,1-.53-2.86s0.94-3-1.46-2.57c0,0-8.06,2.69-8.59-2.92,0,0-.47-4.5,5.9-5.44,0,0,3.8.47,4.21-1.87,0,0,.88-3.15-1.11-3.74,0,0-3.68-1.17-3-3.8a3.1,3.1,0,0,1,1.34-2,4.07,4.07,0,0,0,2-3.45,9.86,9.86,0,0,1,.18-3.1c0.18-.82.41-3.91-0.64-4.85A4.09,4.09,0,0,0-9.83,35a19.52,19.52,0,0,1-3.27.53c-1.11,0-3.74.88-2.63,4.5s2.86,7.42.82,11-6.55,7.25-9.11,4.32-0.65-6.37.06-7.66,2.22-4.38.23-5.14c0,0-.88-0.35-1.93.82a1.72,1.72,0,0,1-3-.88c-0.29-1.52-.7-3.21-2.16-3.21s-1.4,1.46-1.87,2.28-1.87,4.15-4.44,4.26-4.5,1.35-4.33,4.44-2.92,3.39-4.44,3.68-4.15,1.17-3.51,4,4.32,2.46,5.32,2.34a30.05,30.05,0,0,1,6.19.53,10.62,10.62,0,0,0,2.92.53,3.29,3.29,0,0,1,3.16,3.62c-0.17,2.75-5.55,4-9.06,3.51S-46,67.65-46,67.65s-3.92-.82-4.09.35,1.17,1,2.92,1.69,4.32,5.38,1.7,7.66a12.14,12.14,0,0,1-2.81,1.17,3.66,3.66,0,0,0-2.8,3.74c0,2.34-.64,7.3-4,7A2.45,2.45,0,0,1-57,86.82c-0.29-2.22-1-2.1-1-2.1a3.32,3.32,0,0,1-1-2.51c0.17-1.4.47-4.56-1.11-4.32,0,0-1.63.18,0.12,4.09,0,0,1.17,3.68.29,6s0.06,4.27,1.93,4.32a7,7,0,0,1,3.62.88l1.7,0.93a1.76,1.76,0,0,0,1.64.18c0.76-.41.41-1.05,0-1.75a2.93,2.93,0,0,1,.41-3.8l2.16-1.05a6.73,6.73,0,0,0,2.16-1.58,4.22,4.22,0,0,1,4-1.05s2.39,0.64,3.27-.7,2.51-2.63,4.09-2.1,2.51,3.1,1.58,8.06a10.35,10.35,0,0,1-4.91,7s-2.22,1.11.18,2.22,2.86,4.5,2.34,6.9-1.52,2.69-1,4,1.58,5.38,1.58,5.38,1.87,5.08-1.81,6.08-4.62-2.28-5.55-3.86-2.86-5.14-2.86-5.14a16,16,0,0,0-2.69-2.81,6.56,6.56,0,0,1-2.45-4c-0.41-1.87-1.34-3.1-4-2.86s-1.75.12-2-.06c0,0-1.63-.47-1.17,1.05l1,1.87a2.84,2.84,0,0,1,.12,2.16c-0.41,1.23,0,1.69.94,1.69a2.13,2.13,0,0,0,1.52-.7s1.34-1.58,3.27,1.4,1.52,4.91,1.52,4.91-0.35,2.51,2.81,3.68,3.68,3.68,2.63,4.91-4,1.17-5.55,0-5.61-3.27-6.49-1.52,1.29,2.28,3.68,2.51,2.1,2.34,1.75,3.74-0.64,3.27.41,3.45,2.22-.7,3.1-2.22,2.92-3.33,4.5-3.33,3.33,1.75,2.92,6-2.22,4.56-2.92,5.14-2,.52-1.87,1.81,1.75,1.05,2.57.65a4.52,4.52,0,0,1,3.27.06,2.53,2.53,0,0,0,3.16-3.33c-0.88-3.1-1.11-3.8-1.11-3.8s-0.52-5,2-5.49,4.15,0.88,4.5,2.1,1.93,5.26,1.93,5.26,1.46,3.74,3.68,2.28c0,0,2.4-1.34,2.46-3.74s0.76-2.75,2.46-3.74,3.8-3.74,1.92-6.37c0,0-2.57-4.15-3.56-4.73s-2.22-2.51-1.34-2.86l4.38,1,5.26,1.11,2.45-.88s-8-1.4-5.44-5.14c0,0,2.86-2.75,15.14-3.27v-4.29a2,2,0,0,1-1.88-1c-0.23-2.47,1.51-9,1.92-10.54ZM-29.05,114a21,21,0,0,0-3.33,3c0.35-3.68-2.45-9.47-2.45-9.47,1-.53,1.31-2.89,1.31-2.89a7.15,7.15,0,0,0-2.54-5.87c2.73-1.63,4.48-9.28,4.84-11,0-.11,0-0.22.07-0.34s0,0.12-.07.34c-2.93,13.81.87,21.76,2.35,22.89A1.89,1.89,0,0,1-29.05,114Zm7.65,6.56c2.73,1.12,4.26,3.71,3.41,5.79s-3.76,2.87-6.49,1.75-4.26-3.71-3.41-5.79S-24.14,119.43-21.41,120.55Zm4-17.52s-0.7,1.05-.26,3.94-1.66,2.89-1.66,2.89c-7.63,2.19-11.48-7.19-11.48-7.19-3.59-12.62,8.06-20.16,8.06-20.16,1.52-1.15,2.18-1,2.35-.38s-1.14,1.29-1.79,1.53-0.9.2-.9,0.92,1.29,0.24,1.29.24l0.62-.3c3.16-.61.61,1.31,0.44,1.58s-1.23.79-.79,1.75,2,0.44,2,.44c3.68-1.05.61,1.31,0.61,1.31a3.35,3.35,0,0,0-.53,4.12l2,3.77C-15.64,100.14-17.4,103-17.4,103Zm5.58,4.76s-4.61,1.75-4.21-2.28l0.52-3.86s0.59-2.4,2.51-1.34l3.86,2.75S-5.68,105.34-11.82,107.79Zm5.2-5.11c-8-5.61-13.15-21.39-13.15-21.39,3.77-.61,7.45,1.93,7.45,1.93C-3.64,89.18-6.61,102.68-6.61,102.68Zm5.26-11-2,8.68-0.53,2.8s-1,2.63-1.4-.26l0.09-4.91s0.7-12.53-4.64-15.08l-5.61-3s-2.46-1.14-2-2.63c0,0,.44-1.05,2-0.26,0,0,8.85,5.26,11,6.13S0.84,85.06-1.35,91.64Z"/><path class="cls-6" d="M59.22,82c1.75-3.91.12-4.09,0.12-4.09-1.58-.23-1.29,2.92-1.11,4.32a3.32,3.32,0,0,1-1,2.51s-0.7-.12-1,2.1a2.45,2.45,0,0,1-1.93,2.4c-3.33.35-4-4.62-4-7a3.66,3.66,0,0,0-2.81-3.74,12.19,12.19,0,0,1-2.81-1.17c-2.63-2.28-.06-7,1.7-7.66s3.1-.52,2.92-1.69-4.09-.35-4.09-0.35-1.58.41-5.08,0.93-8.88-.76-9.06-3.51a3.29,3.29,0,0,1,3.16-3.62,10.63,10.63,0,0,0,2.92-.53,30.05,30.05,0,0,1,6.19-.53c1,0.12,4.67.53,5.32-2.34s-2-3.74-3.51-4-4.62-.58-4.44-3.68S39,46,36.43,45.91s-4-3.45-4.44-4.26-0.41-2.28-1.87-2.28-1.87,1.7-2.16,3.21a1.71,1.71,0,0,1-3,.88C23.86,42.29,23,42.64,23,42.64c-2,.76-0.47,3.86.23,5.14s2.63,4.73.06,7.66-7.07-.7-9.11-4.32-0.29-7.42.82-11-1.52-4.5-2.63-4.5A19.51,19.51,0,0,1,9.08,35a4.09,4.09,0,0,0-4.32.18c-1.05.94-.82,4-0.64,4.85a9.92,9.92,0,0,1,.18,3.1,4.07,4.07,0,0,0,2,3.45,3.1,3.1,0,0,1,1.34,2c0.7,2.63-3,3.8-3,3.8-2,.59-1.11,3.74-1.11,3.74C4,58.48,7.79,58,7.79,58c6.37,0.94,5.9,5.44,5.9,5.44-0.53,5.61-8.59,2.92-8.59,2.92-2.4-.47-1.46,2.57-1.46,2.57a3.5,3.5,0,0,1-.52,2.86c-0.58,2.4,2.69,1.81,2.69,1.81,0.47-.06,2.45,0,2.45,0,3.56,0.82-2,3.1-2,3.1l-4.5.64a13,13,0,0,1-2.21.11L-0.44,93.1c0.42,1.53,2.16,8.07,1.92,10.54a2,2,0,0,1-1.88,1l0,4.29c12.27,0.53,15.13,3.27,15.13,3.27,2.57,3.74-5.43,5.14-5.43,5.14l2.45,0.88L17,117.08l4.38-1c0.88,0.35-.35,2.28-1.34,2.86s-3.57,4.73-3.57,4.73c-1.87,2.63.23,5.38,1.93,6.37s2.4,1.34,2.45,3.74,2.46,3.74,2.46,3.74C25.56,139,27,135.26,27,135.26s1.58-4,1.93-5.26,2-2.63,4.5-2.1,2,5.49,2,5.49-0.23.7-1.11,3.8a2.53,2.53,0,0,0,3.16,3.33,4.52,4.52,0,0,1,3.27-.06c0.82,0.41,2.46.64,2.57-.65s-1.17-1.23-1.87-1.81-2.51-.88-2.92-5.14,1.34-6,2.92-6,3.62,1.81,4.5,3.33,2,2.39,3.1,2.22,0.76-2,.41-3.45-0.64-3.51,1.75-3.74,4.56-.76,3.68-2.51-5,.35-6.49,1.52-4.5,1.23-5.55,0-0.53-3.74,2.63-4.91,2.8-3.68,2.8-3.68-0.41-1.93,1.52-4.91,3.27-1.4,3.27-1.4a2.13,2.13,0,0,0,1.52.7c0.93,0,1.34-.47.93-1.69a2.83,2.83,0,0,1,.12-2.16l1-1.87c0.47-1.52-1.17-1.05-1.17-1.05-0.23.17,0.64,0.29-2,.06s-3.56,1-4,2.86a6.59,6.59,0,0,1-2.45,4,16,16,0,0,0-2.69,2.81s-1.93,3.56-2.86,5.14-1.87,4.85-5.55,3.86-1.81-6.08-1.81-6.08,1.05-4,1.58-5.38-0.47-1.63-1-4-0.06-5.78,2.34-6.9,0.17-2.22.17-2.22a10.35,10.35,0,0,1-4.91-7c-0.94-5,0-7.54,1.58-8.06S37.13,83,38,84.36s3.27,0.7,3.27.7a4.21,4.21,0,0,1,4,1.05,6.74,6.74,0,0,0,2.16,1.58l2.16,1.05a2.92,2.92,0,0,1,.41,3.8c-0.41.7-.76,1.34,0,1.75a1.77,1.77,0,0,0,1.64-.18l1.69-.93A7,7,0,0,1,57,92.31c1.87-.06,2.81-2,1.93-4.32S59.22,82,59.22,82ZM3.15,103.12l-0.53-2.8-2-8.68c-2.19-6.57.88-7.63,3.07-8.5s11-6.13,11-6.13c1.58-.79,2,0.26,2,0.26,0.44,1.49-2,2.63-2,2.63l-5.61,3C3.76,85.41,4.46,97.95,4.46,97.95l0.09,4.91C4.11,105.75,3.15,103.12,3.15,103.12Zm8.41-19.9s3.68-2.54,7.45-1.93c0,0-5.17,15.78-13.15,21.39C5.86,102.68,2.89,89.18,11.56,83.22Zm-0.49,24.57c-6.14-2.46-2.69-4.73-2.69-4.73l3.86-2.75c1.93-1.05,2.51,1.34,2.51,1.34l0.52,3.86C15.68,109.55,11.07,107.79,11.07,107.79Zm7.51,2.07s-2.1,0-1.67-2.89S16.65,103,16.65,103s-1.75-2.89,0-5.52l2-3.77a3.35,3.35,0,0,0-.53-4.12s-3.07-2.37.62-1.31c0,0,1.58.52,2-.44s-0.61-1.49-.79-1.75-2.72-2.19.44-1.58L21,84.83s1.29,0.48,1.29-.24-0.24-.68-0.9-0.92-2-.94-1.79-1.53,0.83-.78,2.35.38c0,0,11.66,7.54,8.06,20.16C30.06,102.68,26.2,112.06,18.58,109.87Zm5.16,18.22c-2.73,1.12-5.64.33-6.49-1.75s0.68-4.67,3.41-5.79,5.64-.33,6.49,1.75S26.47,127,23.73,128.09ZM35.32,98.73a7.16,7.16,0,0,0-2.54,5.87s0.35,2.37,1.31,2.89c0,0-2.8,5.79-2.45,9.47a21,21,0,0,0-3.33-3,1.89,1.89,0,0,1-.17-3.33c1.48-1.13,5.28-9.08,2.35-22.89,0-.21-0.07-0.34-0.07-0.34s0,0.22.07,0.34C30.84,89.45,32.59,97.1,35.32,98.73Z"/><path class="cls-7" d="M59.22,82c1.75-3.91.12-4.09,0.12-4.09-1.58-.23-1.29,2.92-1.11,4.32a3.32,3.32,0,0,1-1,2.51s-0.7-.12-1,2.1a2.45,2.45,0,0,1-1.93,2.4c-3.33.35-4-4.62-4-7a3.66,3.66,0,0,0-2.81-3.74,12.19,12.19,0,0,1-2.81-1.17c-2.63-2.28-.06-7,1.7-7.66s3.1-.52,2.92-1.69-4.09-.35-4.09-0.35-1.58.41-5.08,0.93-8.88-.76-9.06-3.51a3.29,3.29,0,0,1,3.16-3.62,10.63,10.63,0,0,0,2.92-.53,30.05,30.05,0,0,1,6.19-.53c1,0.12,4.67.53,5.32-2.34s-2-3.74-3.51-4-4.62-.58-4.44-3.68S39,46,36.43,45.91s-4-3.45-4.44-4.26-0.41-2.28-1.87-2.28-1.87,1.7-2.16,3.21a1.71,1.71,0,0,1-3,.88C23.86,42.29,23,42.64,23,42.64c-2,.76-0.47,3.86.23,5.14s2.63,4.73.06,7.66-7.07-.7-9.11-4.32-0.29-7.42.82-11-1.52-4.5-2.63-4.5A19.51,19.51,0,0,1,9.08,35a4.09,4.09,0,0,0-4.32.18c-1.05.94-.82,4-0.64,4.85a9.92,9.92,0,0,1,.18,3.1,4.07,4.07,0,0,0,2,3.45,3.1,3.1,0,0,1,1.34,2c0.7,2.63-3,3.8-3,3.8-2,.59-1.11,3.74-1.11,3.74C4,58.48,7.79,58,7.79,58c6.37,0.94,5.9,5.44,5.9,5.44-0.53,5.61-8.59,2.92-8.59,2.92-2.4-.47-1.46,2.57-1.46,2.57a3.5,3.5,0,0,1-.52,2.86c-0.58,2.4,2.69,1.81,2.69,1.81,0.47-.06,2.45,0,2.45,0,3.56,0.82-2,3.1-2,3.1l-4.5.64a13,13,0,0,1-2.21.11L-0.44,93.1c0.42,1.53,2.16,8.07,1.92,10.54a2,2,0,0,1-1.88,1l0,4.29c12.27,0.53,15.13,3.27,15.13,3.27,2.57,3.74-5.43,5.14-5.43,5.14l2.45,0.88L17,117.08l4.38-1c0.88,0.35-.35,2.28-1.34,2.86s-3.57,4.73-3.57,4.73c-1.87,2.63.23,5.38,1.93,6.37s2.4,1.34,2.45,3.74,2.46,3.74,2.46,3.74C25.56,139,27,135.26,27,135.26s1.58-4,1.93-5.26,2-2.63,4.5-2.1,2,5.49,2,5.49-0.23.7-1.11,3.8a2.53,2.53,0,0,0,3.16,3.33,4.52,4.52,0,0,1,3.27-.06c0.82,0.41,2.46.64,2.57-.65s-1.17-1.23-1.87-1.81-2.51-.88-2.92-5.14,1.34-6,2.92-6,3.62,1.81,4.5,3.33,2,2.39,3.1,2.22,0.76-2,.41-3.45-0.64-3.51,1.75-3.74,4.56-.76,3.68-2.51-5,.35-6.49,1.52-4.5,1.23-5.55,0-0.53-3.74,2.63-4.91,2.8-3.68,2.8-3.68-0.41-1.93,1.52-4.91,3.27-1.4,3.27-1.4a2.13,2.13,0,0,0,1.52.7c0.93,0,1.34-.47.93-1.69a2.83,2.83,0,0,1,.12-2.16l1-1.87c0.47-1.52-1.17-1.05-1.17-1.05-0.23.17,0.64,0.29-2,.06s-3.56,1-4,2.86a6.59,6.59,0,0,1-2.45,4,16,16,0,0,0-2.69,2.81s-1.93,3.56-2.86,5.14-1.87,4.85-5.55,3.86-1.81-6.08-1.81-6.08,1.05-4,1.58-5.38-0.47-1.63-1-4-0.06-5.78,2.34-6.9,0.17-2.22.17-2.22a10.35,10.35,0,0,1-4.91-7c-0.94-5,0-7.54,1.58-8.06S37.13,83,38,84.36s3.27,0.7,3.27.7a4.21,4.21,0,0,1,4,1.05,6.74,6.74,0,0,0,2.16,1.58l2.16,1.05a2.92,2.92,0,0,1,.41,3.8c-0.41.7-.76,1.34,0,1.75a1.77,1.77,0,0,0,1.64-.18l1.69-.93A7,7,0,0,1,57,92.31c1.87-.06,2.81-2,1.93-4.32S59.22,82,59.22,82ZM3.15,103.12l-0.53-2.8-2-8.68c-2.19-6.57.88-7.63,3.07-8.5s11-6.13,11-6.13c1.58-.79,2,0.26,2,0.26,0.44,1.49-2,2.63-2,2.63l-5.61,3C3.76,85.41,4.46,97.95,4.46,97.95l0.09,4.91C4.11,105.75,3.15,103.12,3.15,103.12Zm8.41-19.9s3.68-2.54,7.45-1.93c0,0-5.17,15.78-13.15,21.39C5.86,102.68,2.89,89.18,11.56,83.22Zm-0.49,24.57c-6.14-2.46-2.69-4.73-2.69-4.73l3.86-2.75c1.93-1.05,2.51,1.34,2.51,1.34l0.52,3.86C15.68,109.55,11.07,107.79,11.07,107.79Zm7.51,2.07s-2.1,0-1.67-2.89S16.65,103,16.65,103s-1.75-2.89,0-5.52l2-3.77a3.35,3.35,0,0,0-.53-4.12s-3.07-2.37.62-1.31c0,0,1.58.52,2-.44s-0.61-1.49-.79-1.75-2.72-2.19.44-1.58L21,84.83s1.29,0.48,1.29-.24-0.24-.68-0.9-0.92-2-.94-1.79-1.53,0.83-.78,2.35.38c0,0,11.66,7.54,8.06,20.16C30.06,102.68,26.2,112.06,18.58,109.87Zm5.16,18.22c-2.73,1.12-5.64.33-6.49-1.75s0.68-4.67,3.41-5.79,5.64-.33,6.49,1.75S26.47,127,23.73,128.09ZM35.32,98.73a7.16,7.16,0,0,0-2.54,5.87s0.35,2.37,1.31,2.89c0,0-2.8,5.79-2.45,9.47a21,21,0,0,0-3.33-3,1.89,1.89,0,0,1-.17-3.33c1.48-1.13,5.28-9.08,2.35-22.89,0-.21-0.07-0.34-0.07-0.34s0,0.22.07,0.34C30.84,89.45,32.59,97.1,35.32,98.73Z"/><path class="cls-8" d="M0.07,32.54A8.93,8.93,0,0,0,1,37.43a11.17,11.17,0,0,1,.45,4.12s-0.54,6.53,1.7,7l2.06,0.54S6,48.95,6,49.57c0,0-.06.65-1.13,0.31l-1.71-.4s-1.62-1.24-2-.15c0,0-.9.27-0.37,3.7A17.17,17.17,0,0,1,1,55.83c-0.09.93-.25,5.27,2.46,5.83a30.72,30.72,0,0,0,3.8,0c1.31-.15,5.14,0,5,1.68,0,0-.19.78-1.34,0.19L9,62.5a4,4,0,0,0-2.12-.25,9.4,9.4,0,0,1-2.4.15c-0.65-.15-3-1.79-3.21-0.29,0,0-1,3-.55,3.85a5.77,5.77,0,0,1-.28,3.61,10.4,10.4,0,0,1-.9-4.33s1.33-3.85-.26-3.94a19.69,19.69,0,0,0-4.6.72l-0.81.34s-2.86,1.81-3.52,1c0,0-.84-0.53,2.71-1.28,0,0,5.22.19,6.09-2.52,0,0,2-5.58.16-8.56,0,0-.38-3.47-2.34-2.63L-4.2,49s-2,.75-2.28.25c0,0-.44-0.4.5-0.78A10.32,10.32,0,0,1-3.67,48a3.71,3.71,0,0,0,3.15-.84S1.35,47.73.3,44A11.76,11.76,0,0,1,0,38.92a7.71,7.71,0,0,0,.28-2Z"/><path class="cls-8" d="M0.49,69.58A5,5,0,0,0,3.3,74.93a7.33,7.33,0,0,0,4.92-.54s-10,4.39-15.57-.09c0,0,6.44,2.33,7.52-1.08Z"/><path class="cls-8" d="M33.91,86.11s-0.7,1.4,1.14,2.37c0,0,1.84,1.84,1.66,3,0,0-.09,2.1,1.49,1.14,0,0,3.42-1.23,5.08,1.4,0,0,2.89,3.94,1.14,6.66l-0.79,1.14s-0.88,2.8-2.72,2L39,103.29s-2.37.44-.17,1.14c0,0,1.66.79,1.05,2.19l-0.7,2.54a7.58,7.58,0,0,0,.35,2c0.35,1.14-.53,1.66-1,2.45s-1.84,3.42-.53,3.07a10.37,10.37,0,0,0,1.84-3.07c0.7-1.84,1.93-4.12,3.16-4.73l3.33-2.63a2.29,2.29,0,0,0,.78-2.19c-0.26-1.4.09-3.94,3.6-4.12a17.06,17.06,0,0,0,4.3-.53c1.49-.52,7.27-1.75,7.1,3.94,0,0-.18,2.37-1.66,3.07a1.19,1.19,0,0,0-.32,2s2,3.74-2,8.12a2.81,2.81,0,0,1-2.34.7s-1.23,0-1.69-2.39-1.17-3.27-2-2.8c0,0-1,.58.7,2,0,0,2.22,2.16.47,4.21a3,3,0,0,1-3,.88c-1.87-.47-1.87.76-2.16,1.23a1.82,1.82,0,0,1-.76.76c-0.23.12-1.17,0.94,0.17,0.94a6.34,6.34,0,0,0,2.86-1.64c0.88-1.11,3.1-1.23,4.73-1.23s1.87-.76,1.87-0.76a2.67,2.67,0,0,1,2.57-.41s3.74,1.46,1.64,5.43a29.15,29.15,0,0,1-4,5,2.08,2.08,0,0,1-2.34.41,3.05,3.05,0,0,1-1.23-.76,0.83,0.83,0,0,0-1.34-.29s-0.41.64,0.94,1l1,0.29s1.87,0.29.58,2.1c0,0-3.45,4.33-6.19,4.38,0,0-3.15.06-4.38-2.45l-0.82-1.63s-0.76-1.23-1.11-1.05c0,0-.76.18,0.12,1.29a6.16,6.16,0,0,1,1.28,2.4,1.82,1.82,0,0,0,2.1,1.52s4.73,0.17,4.38,2.57-0.94,2-.94,2a3.27,3.27,0,0,0-1.05,1.87,3,3,0,0,1-3.5,2.28,8.4,8.4,0,0,0-5.75.38,37.56,37.56,0,0,1,6.26.61c5.37,1.79,8.7-5.45,8.7-5.45,7.73-5.37,5.37-9.52,5.37-9.52A12.89,12.89,0,0,1,61,128.85l0.22-.19c1.33-1.27,2.06-4.2,2.06-4.2a27.74,27.74,0,0,1,.65-3.74l0.82-2.28a8.49,8.49,0,0,0-.73-7.32,13.92,13.92,0,0,0,.16-11.47c4.88-7.89.89-12,.89-12-1.71-1.79-.16-3-0.16-3l1-1.14c1.79-3.66-1.55-9.19-1.55-9.19a14.86,14.86,0,0,0-4.07-6.51,8,8,0,0,0-2.68-3.66,8.55,8.55,0,0,0-3-4.39c0-.16,0-0.32,0-0.49A5.26,5.26,0,0,1,52,62.54a20.54,20.54,0,0,1-5.7,1.31L44,63.76s-2.54-.17-3.42.35c0,0-1.93,1-3.07.35,0,0-3.33-.35-2,0.62A16.77,16.77,0,0,0,41,64.73l2.45-.26s6.92-1,11,.88c0,0,2.72,1.75.53,3.94,0,0-1.23,1.23-2,1.14,0,0-1.49-.53-1.49.61,0,0,.09,2.28-1.14,2.54,0,0-1.4.61-1,1.58,0,0,.26.88,1.75,0.79a4,4,0,0,1,2.82,1.24c-0.6-1.73-1.56-5.56,1.48-6.5,0,0,4.73-2.11,7.19,5.61a26.21,26.21,0,0,1,.26,8.5,19.43,19.43,0,0,0,.79,4.82,8.54,8.54,0,0,1-.18,5.26s-2.28,4.47-6.22,3.5c0,0-1.4-.44-1.84-0.09a1.74,1.74,0,0,1-2.1-.18c-0.7-.61-1.58,0-2.28.52a2.56,2.56,0,0,1-3.68-.26s-3.59-3-3-6c0,0,.35-2.72-1.49-1.67,0,0-3.68,1.75-5.26-1.14l-1.84-2.37S34.44,85.68,33.91,86.11Zm20.34-8.06a1.89,1.89,0,0,0-.34-0.86C54.1,77.71,54.25,78.05,54.25,78.05ZM21.47,142.18c3.19,2.56,10.78,2.85,10.78,2.85a1.48,1.48,0,0,0,.23.16l-0.2-.35s-4.21-1-3.27-4.33A8.89,8.89,0,0,1,21.47,142.18ZM50,52.54s0.55,0.21,1.27.56a14.22,14.22,0,0,0-5.94-6.64,6.3,6.3,0,0,1,.73,2S47.15,52.1,50,52.54ZM30.11,35.48a16.32,16.32,0,0,0-11-.77,6,6,0,0,1-.36,6s-4,5.49.12,8.77c0,0,.29,3.59,2,3.59,0,0,1.05.09-.35-1.4a11.28,11.28,0,0,1-1.75-5.43S17.13,33.62,30.11,35.48ZM8.61,119s2.73,0.05,1.51,2.84a5.48,5.48,0,0,0,.73-0.9,19.43,19.43,0,0,0-.23,3.25c0.32-2.1,1.12-4.47,3.07-4.78L15,119l1.52-.7,1.11-.35s3.39-.41,3.91-1.29c0,0,.41-1.11-1-0.88a10.06,10.06,0,0,1-4.56.93l-2.34.23-1.52.18-2.4.29s-2.63,0-2.28,1C7.44,118.37,7.33,118.89,8.61,119Zm-4.09,6.72a23.94,23.94,0,0,1-1.45,2.67c2.76-.79,4.2-3.93,4.58-4.89A5,5,0,0,0,4.52,125.73Z"/><path class="cls-8" d="M64.25,74.13s-4.91-6-8.89-5.38"/><path class="cls-8" d="M58.61,69.36a2,2,0,0,1,1.67-1.5"/><path class="cls-8" d="M57.63,64.08a2.73,2.73,0,0,0-2.29-.33,4.73,4.73,0,0,1-3.4-1.1"/><path class="cls-8" d="M45,99.17s-0.09,7.1-5.52,11.22"/><path class="cls-8" d="M41.63,110s1.75-6.14,6.13-8.77"/><path class="cls-8" d="M57.4,117.06a12.61,12.61,0,0,0,6.65-5.95"/><path class="cls-8" d="M64.22,99.64a4.74,4.74,0,0,0-2.61-2.48"/><path class="cls-8" d="M59.25,130.39l-3.14,3.17s-3.45,3.51-7.54,2"/><path class="cls-8" d="M53.84,135.2a9.57,9.57,0,0,1,0,4.71"/><path class="cls-8" d="M10.85,121a13.48,13.48,0,0,1,2.38-4.08"/><ellipse class="cls-8" cx="5.51" cy="121.52" rx="1.81" ry="0.76" transform="translate(-46.62 11.61) rotate(-22.78)"/><path class="cls-8" d="M-0.1,109.37s0.35,0.06.53,1.11a3.47,3.47,0,0,0,.58,2c0.64,0.82.29,1.11,0.12,2.16a4.78,4.78,0,0,0,.53,2.8c0.29,0.47.12,2.57-.18,3.62a2.35,2.35,0,0,0,.18,2.1c0.35,0.76.53,4-1.35,4.27,0,0-1.64-.82-1.17-4.38l0.29-.7a4.13,4.13,0,0,0,0-2,13.17,13.17,0,0,1-.17-4.27c0.12-1.87.17-1.23-.29-2s-0.7-1.17.12-2.1c0,0,.47,0,0.47-1C-0.45,111-1.32,109.19-.1,109.37Z"/><path class="cls-8" d="M-0.1,109.37l0.23,2.92s0,2.1-.06,2.34a6.76,6.76,0,0,0,.35,2.69,2.57,2.57,0,0,1,.11,2.51c-0.53.7-.18,2.63-0.18,3.33s0.58,2,.35,3.21,0.06,1,.06,1"/><path class="cls-8" d="M54.25,78.05a5,5,0,0,1-.44,4.21,2.24,2.24,0,0,0-.7,2.54"/><path class="cls-8" d="M0.31,109.37s-0.35.06-.53,1.11a3.47,3.47,0,0,1-.58,2c-0.64.82-.29,1.11-0.12,2.16a4.79,4.79,0,0,1-.53,2.8,7.91,7.91,0,0,0,.18,3.62,2.34,2.34,0,0,1-.18,2.1c-0.35.76-.52,4,1.35,4.27,0,0,1.64-.82,1.17-4.38l-0.29-.7a4.11,4.11,0,0,1,0-2A13.08,13.08,0,0,0,1,116.15c-0.12-1.87-.17-1.23.29-2s0.7-1.17-.11-2.1c0,0-.47,0-0.47-1C0.66,111,1.54,109.19.31,109.37Z"/><path class="cls-8" d="M0.31,109.37l-0.23,2.92s0,2.1.06,2.34a6.76,6.76,0,0,1-.35,2.69,2.56,2.56,0,0,0-.12,2.51c0.53,0.7.18,2.63,0.18,3.33s-0.58,2-.35,3.21-0.06,1-.06,1"/><path class="cls-8" d="M13.72,109.68L5,106.15a3.93,3.93,0,0,0-3.48-.32,4.28,4.28,0,0,1-4,.1c-0.68-.47-1.42-0.74-3.53.26l-5.43,2.74"/><path class="cls-9" d="M0,32.52c-1.16-1.18-3.3-2.18-7.25-1.51l-8.3,1.59s-3.17,1.47-3.42,2.12a16,16,0,0,0-16.52,5l-0.49,1a2.52,2.52,0,0,1-1.79,1.46s-5.45,2-7.08,4.15a14.15,14.15,0,0,0-6.43,7.16S-55,55.95-54.4,59.69a8.55,8.55,0,0,0-3,4.39,7.94,7.94,0,0,0-2.69,3.66,14.86,14.86,0,0,0-4.07,6.51s-3.34,5.53-1.55,9.19l1,1.14s1.55,1.22-.16,3c0,0-4,4.15.89,12a13.91,13.91,0,0,0,.16,11.47,8.5,8.5,0,0,0-.73,7.32l0.81,2.28a27.66,27.66,0,0,1,.65,3.74s0.73,2.93,2.06,4.2l0.22,0.19A12.81,12.81,0,0,1-59,130.39s-2.36,4.15,5.37,9.52c0,0,3.34,7.24,8.71,5.45,0,0,5.45-1,7.16-.49,0,0,4.23,1.47,5.78.16,0,0,8.38-.32,11.23-3.25,0,0,5-1.87,5-6.43,0,0-.41-2.44,1.22-2.93,0,0,5.29-2.28,3.9-11.47a5.18,5.18,0,0,0,2.69,2.11l0.41,0.17s1.55,4.64,5.13,5.29a4.08,4.08,0,0,0,2.17.63H0.46a4.06,4.06,0,0,0,2.17-.63c3.58-.65,5.13-5.29,5.13-5.29l0.41-.17A5.18,5.18,0,0,0,10.85,121c-1.38,9.19,3.9,11.47,3.9,11.47,1.63,0.49,1.22,2.93,1.22,2.93,0,4.56,5,6.43,5,6.43,2.85,2.93,11.23,3.25,11.23,3.25,1.54,1.3,5.78-.16,5.78-0.16,1.71-.49,7.16.49,7.16,0.49,5.37,1.79,8.7-5.45,8.7-5.45,7.73-5.37,5.37-9.52,5.37-9.52A12.89,12.89,0,0,1,61,128.85l0.22-.19c1.33-1.27,2.06-4.2,2.06-4.2a27.74,27.74,0,0,1,.65-3.74l0.82-2.28a8.49,8.49,0,0,0-.73-7.32,13.92,13.92,0,0,0,.16-11.47c4.88-7.89.89-12,.89-12-1.71-1.79-.16-3-0.16-3l1-1.14c1.79-3.66-1.55-9.19-1.55-9.19a14.86,14.86,0,0,0-4.07-6.51,8,8,0,0,0-2.68-3.66,8.55,8.55,0,0,0-3-4.39c0.57-3.74-3.17-6.26-3.17-6.26A14.16,14.16,0,0,0,45,46.27c-1.63-2.19-7.08-4.15-7.08-4.15a2.52,2.52,0,0,1-1.79-1.46l-0.49-1a16,16,0,0,0-16.52-5c-0.25-.65-3.42-2.12-3.42-2.12L7.43,31C3.5,30.34,1.36,31.33.2,32.5Z"/></g></svg>